{
.appVersion = "1075";
copyright = "Copyright (c) 2011 by Oleg Frolov | Cyreal. All rights reserved. Copyright (c) 2013 Haley Fiege (haley@kingdomofawesome.com)";
customParameters = (
{
name = licenseURL;
value = "http://scripts.sil.org/OFL";
},
{
name = description;
value = "Copyright (c) 2011 by Oleg Frolov | Cyreal. All rights reserved.";
},
{
name = trademark;
value = "Brawler is a trademark of Oleg Frolov | Cyreal.";
},
{
name = license;
value = "Copyright (c) 2011, Oleg Frolov,\012with Reserved Font Name Brawler.\012This Font Software is licensed under the SIL Open Font License, Version 1.1.\012This license is available with a FAQ at: http://scripts.sil.org/OFL";
},
{
name = panose;
value = (
2,
0,
0,
0,
0,
0,
0,
0,
0,
0
);
},
{
name = glyphOrder;
value = (
.null,
nonmarkingreturn,
space,
quotedbl,
numbersign,
dollar,
percent,
ampersand,
quotesingle,
parenleft,
parenright,
asterisk,
plus,
comma,
hyphen,
period,
slash,
zero,
one,
two,
three,
four,
five,
six,
seven,
eight,
nine,
colon,
semicolon,
less,
equal,
greater,
question,
at,
A,
B,
C,
D,
E,
F,
G,
H,
I,
J,
K,
L,
M,
N,
O,
P,
Q,
R,
S,
T,
U,
V,
W,
X,
Y,
Z,
bracketleft,
backslash,
bracketright,
asciicircum,
underscore,
grave,
a,
b,
c,
d,
e,
f,
g,
h,
i,
j,
k,
l,
m,
n,
o,
p,
q,
r,
s,
t,
u,
v,
w,
x,
y,
z,
braceleft,
bar,
braceright,
asciitilde,
noBreak,
exclamdown,
cent,
sterling,
yen,
brokenbar,
section,
dieresis,
copyright,
ordfeminine,
guillemotleft,
logicalnot,
uni00AD,
registered,
macron,
degree,
plusminus,
acute,
paragraph,
periodcentered,
cedilla,
ordmasculine,
guillemotright,
onequarter,
onehalf,
threequarters,
questiondown,
AE,
Eth,
multiply,
Oslash,
Thorn,
germandbls,
ae,
eth,
divide,
oslash,
thorn,
dotlessi,
OE,
oe,
circumflex,
ring,
tilde,
endash,
emdash,
quoteleft,
quoteright,
quotesinglbase,
quotedblleft,
quotedblright,
quotedblbase,
bullet,
guilsinglleft,
guilsinglright,
fraction,
foursuperior,
Euro,
uni2215,
uniE0FF,
uniEFFD,
uniF000,
currency,
mu,
twosuperior,
threesuperior,
onesuperior,
minus,

glyphs = (
{
glyphname = quotedbl;
lastChange = "2017-11-21 14:35:46 +0000";
layers = (
{
background = {
paths = (
{
closed = 1;
nodes = (
"111 461 LINE",
"75 461 LINE",
"48 688 LINE",
"53 698 LINE",
"76 724 LINE",
"93 729 LINE",
"110 724 LINE",
"133 698 LINE",
"138 688 LINE"
);
},
{
closed = 1;
nodes = (
"271 461 LINE",
"236 461 LINE",
"208 688 LINE",
"214 698 LINE",
"237 724 LINE",
"254 729 LINE",
"271 724 LINE",
"293 698 LINE",
"299 688 LINE"
);
}
);
};
hints = (
{
horizontal = 1;
place = "{729, -20}";
target = down;
type = TopGhost;
},
{
horizontal = 1;
place = "{461, 21}";
target = up;
type = BottomGhost;
}
);
layerId = "03739D6D-2A00-4CFA-A48A-FF6A1F8AF183";
paths = (
{
closed = 1;
nodes = (
"158 688 LINE",
"151 701 OFFCURVE",
"126 722 OFFCURVE",
"103 729 CURVE",
"80 722 OFFCURVE",
"55 701 OFFCURVE",
"48 688 CURVE",
"75 461 LINE",
"131 461 LINE"
);
},
{
closed = 1;
nodes = (
"322 688 LINE",
"315 701 OFFCURVE",
"290 722 OFFCURVE",
"267 729 CURVE",
"244 722 OFFCURVE",
"219 701 OFFCURVE",
"212 688 CURVE",
"239 461 LINE",
"295 461 LINE"
);
}
);
width = 371;
},
{
background = {
paths = (
{
closed = 1;
nodes = (
"111 461 LINE",
"75 461 LINE",
"48 688 LINE",
"53 698 LINE",
"76 724 LINE",
"93 729 LINE",
"110 724 LINE",
"133 698 LINE",
"138 688 LINE"
);
},
{
closed = 1;
nodes = (
"271 461 LINE",
"236 461 LINE",
"208 688 LINE",
"214 698 LINE",
"237 724 LINE",
"254 729 LINE",
"271 724 LINE",
"293 698 LINE",
"299 688 LINE"
);
}
);
};
hints = (
{
place = "{48, 251}";
},
{
horizontal = 1;
place = "{461, 268}";
}
);
layerId = UUID0;
paths = (
{
closed = 1;
nodes = (
"138 688 LINE",
"131 701 OFFCURVE",
"116 722 OFFCURVE",
"93 729 CURVE",
"70 722 OFFCURVE",
"55 701 OFFCURVE",
"48 688 CURVE",
"75 461 LINE",
"111 461 LINE"
);
},
{
closed = 1;
nodes = (
"299 688 LINE",
"292 701 OFFCURVE",
"276 722 OFFCURVE",
"253 729 CURVE",
"230 722 OFFCURVE",
"215 701 OFFCURVE",
"208 688 CURVE",
"236 461 LINE",
"271 461 LINE"
);
}
);
width = 330;
}
);
unicode = 0022;
},
{
glyphname = numbersign;
lastChange = "2017-11-21 14:35:46 +0000";
layers = (
{
background = {
paths = (
{
closed = 1;
nodes = (
"432 213 LINE",
"257 213 LINE",
"169 -33 LINE",
"109 -13 LINE",
"190 213 LINE",
"44 213 LINE",
"44 283 LINE",
"216 283 LINE",
"265 420 LINE",
"94 420 LINE",
"94 490 LINE",
"290 490 LINE",
"379 735 LINE",
"439 715 LINE",
"358 490 LINE",
"532 490 LINE",
"621 735 LINE",
"681 715 LINE",
"600 490 LINE",
"746 490 LINE",
"746 420 LINE",
"574 420 LINE",
"525 283 LINE",
"696 283 LINE",
"696 213 LINE",
"499 213 LINE",
"411 -33 LINE",
"351 -13 LINE"
);
},
{
closed = 1;
nodes = (
"283 283 LINE",
"458 283 LINE",
"507 420 LINE",
"332 420 LINE"
);
}
);
};
hints = (
{
horizontal = 1;
place = "{210, 80}";
},
{
horizontal = 1;
place = "{448, 80}";
},
{
horizontal = 1;
place = "{741, -20}";
target = down;
type = TopGhost;
},
{
horizontal = 1;
place = "{-36, 21}";
target = up;
type = BottomGhost;
}
);
layerId = "03739D6D-2A00-4CFA-A48A-FF6A1F8AF183";
paths = (
{
closed = 1;
nodes = (
"375 741 LINE",
"103 -13 LINE",
"194 -36 LINE",
"466 719 LINE"
);
},
{
closed = 1;
nodes = (
"620 741 LINE",
"348 -13 LINE",
"439 -36 LINE",
"711 719 LINE"
);
},
{
closed = 1;
nodes = (
"105 528 LINE",
"105 448 LINE",
"779 448 LINE",
"779 528 LINE"
);
},
{
closed = 1;
nodes = (
"50 290 LINE",
"50 210 LINE",
"724 210 LINE",
"724 290 LINE"
);
}
);
width = 829;
},
{
background = {
paths = (
{
closed = 1;
nodes = (
"421 213 LINE",
"246 213 LINE",
"158 -33 LINE",
"98 -13 LINE",
"179 213 LINE",
"33 213 LINE",
"33 283 LINE",
"205 283 LINE",
"254 420 LINE",
"83 420 LINE",
"83 490 LINE",
"279 490 LINE",
"368 735 LINE",
"428 715 LINE",
"347 490 LINE",
"521 490 LINE",
"610 735 LINE",
"670 715 LINE",
"589 490 LINE",
"735 490 LINE",
"735 420 LINE",
"563 420 LINE",
"514 283 LINE",
"685 283 LINE",
"685 213 LINE",
"488 213 LINE",
"400 -33 LINE",
"340 -13 LINE"
);
},
{
closed = 1;
nodes = (
"272 283 LINE",
"447 283 LINE",
"496 420 LINE",
"321 420 LINE"
);
}
);
};
hints = (
{
place = "{32, 702}";
},
{
horizontal = 1;
place = "{-13, 21}";
target = up;
type = BottomGhost;
},
{
horizontal = 1;
place = "{213, 70}";
},
{
horizontal = 1;
place = "{420, 70}";
},
{
horizontal = 1;
place = "{715, -20}";
target = down;
type = TopGhost;
}
);
layerId = UUID0;
paths = (
{
closed = 1;
nodes = (
"339 -13 LINE",
"399 -33 LINE",
"487 213 LINE",
"684 213 LINE",
"684 283 LINE",
"513 283 LINE",
"562 420 LINE",
"734 420 LINE",
"734 490 LINE",
"588 490 LINE",
"669 715 LINE",
"609 735 LINE",
"520 490 LINE",
"346 490 LINE",
"427 715 LINE",
"367 735 LINE",
"278 490 LINE",
"82 490 LINE",
"82 420 LINE",
"253 420 LINE",
"204 283 LINE",
"32 283 LINE",
"32 213 LINE",
"178 213 LINE",
"97 -13 LINE",
"157 -33 LINE",
"245 213 LINE",
"420 213 LINE"
);
},
{
closed = 1;
nodes = (
"320 420 LINE",
"495 420 LINE",
"446 283 LINE",
"271 283 LINE"
);
}
);
width = 842;
}
);
unicode = 0023;
},
{
glyphname = dollar;
lastChange = "2017-11-21 14:35:46 +0000";
layers = (
{
background = {
paths = (
{
closed = 1;
nodes = (
"67 202 LINE",
"117 207 LINE",
"154 61 LINE",
"182 50 LINE",
"246 39 LINE",
"278 40 LINE",
"278 316 LINE",
"242 331 LINE",
"169 363 LINE",
"111 409 LINE",
"73 476 LINE",
"73 526 LINE",
"73 570 LINE",
"108 634 LINE",
"165 677 LINE",
"239 701 LINE",
"278 706 LINE",
"278 864 LINE",
"328 864 LINE",
"328 708 LINE",
"383 708 LINE",
"473 684 LINE",
"493 665 LINE",
"493 496 LINE",
"443 491 LINE",
"405 640 LINE",
"369 654 LINE",
"328 656 LINE",
"328 386 LINE",
"363 371 LINE",
"432 335 LINE",
"486 286 LINE",
"520 219 LINE",
"520 173 LINE",
"520 128 LINE",
"488 64 LINE",
"435 21 LINE",
"366 -3 LINE",
"328 -7 LINE",
"328 -168 LINE",
"278 -168 LINE",
"278 -10 LINE",
"243 -11 LINE",
"177 -4 LINE",
"121 9 LINE",
"78 25 LINE",
"67 33 LINE"
);
},
{
closed = 1;
nodes = (
"168 525 LINE",
"168 503 LINE",
"185 469 LINE",
"215 441 LINE",
"255 418 LINE",
"278 407 LINE",
"278 652 LINE",
"232 642 LINE",
"168 579 LINE"
);
},
{
closed = 1;
nodes = (
"425 173 LINE",
"425 196 LINE",
"410 233 LINE",
"384 261 LINE",
"349 284 LINE",
"328 294 LINE",
"328 48 LINE",
"370 59 LINE",
"425 118 LINE"
);
}
);
};
hints = (
{
place = "{61, 155}";
},
{
place = "{281, 83}";
},
{
place = "{408, 155}";
},
{
horizontal = 1;
place = "{-15, 78}";
},
{
horizontal = 1;
place = "{-167, 21}";
target = up;
type = BottomGhost;
},
{
horizontal = 1;
place = "{864, -20}";
target = down;
type = TopGhost;
}
);
layerId = "03739D6D-2A00-4CFA-A48A-FF6A1F8AF183";
paths = (
{
closed = 1;
nodes = (
"364 -167 LINE",
"364 -13 LINE",
"474 -1 OFFCURVE",
"563 49 OFFCURVE",
"563 173 CURVE SMOOTH",
"563 307 OFFCURVE",
"459 360 OFFCURVE",
"364 403 CURVE",
"364 643 LINE",
"390 641 OFFCURVE",
"416 636 OFFCURVE",
"437 628 CURVE",
"471 481 LINE",
"536 491 LINE",
"536 680 LINE",
"495 702 OFFCURVE",
"432 718 OFFCURVE",
"364 722 CURVE",
"364 864 LINE",
"281 864 LINE",
"281 720 LINE",
"166 708 OFFCURVE",
"61 655 OFFCURVE",
"61 536 CURVE SMOOTH",
"61 388 OFFCURVE",
"182 341 OFFCURVE",
"281 296 CURVE",
"281 63 LINE",
"220 62 OFFCURVE",
"181 73 OFFCURVE",
"153 82 CURVE",
"120 224 LINE",
"55 214 LINE",
"55 29 LINE",
"108 8 OFFCURVE",
"192 -12 OFFCURVE",
"281 -15 CURVE",
"281 -167 LINE"
);
},
{
closed = 1;
nodes = (
"216 587 OFFCURVE",
"244 617 OFFCURVE",
"281 631 CURVE",
"281 444 LINE",
"243 467 OFFCURVE",
"216 494 OFFCURVE",
"216 535 CURVE SMOOTH"
);
},
{
closed = 1;
nodes = (
"408 124 OFFCURVE",
"391 96 OFFCURVE",
"364 81 CURVE",
"364 250 LINE",
"391 230 OFFCURVE",
"408 206 OFFCURVE",
"408 173 CURVE SMOOTH"
);
}
);
width = 595;
},
{
background = {
paths = (
{
closed = 1;
nodes = (
"43 202 LINE",
"93 207 LINE",
"130 61 LINE",
"158 50 LINE",
"222 39 LINE",
"254 40 LINE",
"254 316 LINE",
"218 331 LINE",
"145 363 LINE",
"87 409 LINE",
"49 476 LINE",
"49 526 LINE",
"49 570 LINE",
"84 634 LINE",
"141 677 LINE",
"215 701 LINE",
"254 706 LINE",
"254 864 LINE",
"304 864 LINE",
"304 708 LINE",
"359 708 LINE",
"449 684 LINE",
"469 665 LINE",
"469 496 LINE",
"419 491 LINE",
"381 640 LINE",
"345 654 LINE",
"304 656 LINE",
"304 386 LINE",
"339 371 LINE",
"408 335 LINE",
"462 286 LINE",
"496 219 LINE",
"496 173 LINE",
"496 128 LINE",
"464 64 LINE",
"411 21 LINE",
"342 -3 LINE",
"304 -7 LINE",
"304 -168 LINE",
"254 -168 LINE",
"254 -10 LINE",
"219 -11 LINE",
"153 -4 LINE",
"97 9 LINE",
"54 25 LINE",
"43 33 LINE"
);
},
{
closed = 1;
nodes = (
"144 525 LINE",
"144 503 LINE",
"161 469 LINE",
"191 441 LINE",
"231 418 LINE",
"254 407 LINE",
"254 652 LINE",
"208 642 LINE",
"144 579 LINE"
);
},
{
closed = 1;
nodes = (
"401 173 LINE",
"401 196 LINE",
"386 233 LINE",
"360 261 LINE",
"325 284 LINE",
"304 294 LINE",
"304 48 LINE",
"346 59 LINE",
"401 118 LINE"
);
}
);
};
hints = (
{
place = "{49, 95}";
},
{
place = "{254, 50}";
},
{
place = "{401, 95}";
},
{
horizontal = 1;
place = "{-10, 50}";
},
{
horizontal = 1;
place = "{656, 52}";
},
{
horizontal = 1;
place = "{-7, 21}";
target = up;
type = BottomGhost;
}
);
layerId = UUID0;
paths = (
{
closed = 1;
nodes = (
"43 33 LINE",
"73 11 OFFCURVE",
"161 -13 OFFCURVE",
"254 -10 CURVE",
"254 -168 LINE",
"304 -168 LINE",
"304 -7 LINE",
"404 4 OFFCURVE",
"496 54 OFFCURVE",
"496 173 CURVE SMOOTH",
"496 296 OFFCURVE",
"397 346 OFFCURVE",
"304 386 CURVE",
"304 656 LINE",
"331 655 OFFCURVE",
"357 649 OFFCURVE",
"381 640 CURVE",
"419 491 LINE",
"469 496 LINE",
"469 665 LINE",
"442 690 OFFCURVE",
"377 708 OFFCURVE",
"304 708 CURVE",
"304 864 LINE",
"254 864 LINE",
"254 706 LINE",
"150 693 OFFCURVE",
"49 644 OFFCURVE",
"49 526 CURVE SMOOTH",
"49 393 OFFCURVE",
"159 356 OFFCURVE",
"254 316 CURVE",
"254 40 LINE",
"211 39 OFFCURVE",
"167 46 OFFCURVE",
"130 61 CURVE",
"93 207 LINE",
"43 202 LINE"
);
},
{
closed = 1;
nodes = (
"144 597 OFFCURVE",
"193 639 OFFCURVE",
"254 652 CURVE",
"254 407 LINE",
"193 436 OFFCURVE",
"144 466 OFFCURVE",
"144 525 CURVE SMOOTH"
);
},
{
closed = 1;
nodes = (
"401 100 OFFCURVE",
"360 63 OFFCURVE",
"304 48 CURVE",
"304 294 LINE",
"359 268 OFFCURVE",
"401 235 OFFCURVE",
"401 173 CURVE SMOOTH"
);
}
);
width = 555;
}
);
unicode = 0024;
},
{
glyphname = percent;
lastChange = "2017-11-21 14:35:46 +0000";
layers = (
{
background = {
paths = (
{
closed = 1;
nodes = (
"427 562 LINE",
"427 530 LINE",
"411 476 LINE",
"378 435 LINE",
"325 412 LINE",
"289 412 LINE",
"252 412 LINE",
"200 435 LINE",
"166 476 LINE",
"150 530 LINE",
"150 562 LINE",
"150 594 LINE",
"166 649 LINE",
"199 690 LINE",
"252 714 LINE",
"288 714 LINE",
"325 714 LINE",
"378 690 LINE",
"411 649 LINE",
"427 594 LINE"
);
},
{
closed = 1;
nodes = (
"691 700 LINE",
"315 0 LINE",
"240 0 LINE",
"616 700 LINE"
);
},
{
closed = 1;
nodes = (
"781 140 LINE",
"781 108 LINE",
"765 54 LINE",
"732 13 LINE",
"679 -10 LINE",
"643 -10 LINE",
"606 -10 LINE",
"554 13 LINE",
"520 54 LINE",
"504 108 LINE",
"504 140 LINE",
"504 172 LINE",
"520 227 LINE",
"553 268 LINE",
"606 292 LINE",
"642 292 LINE",
"679 292 LINE",
"732 268 LINE",
"765 227 LINE",
"781 172 LINE"
);
},
{
closed = 1;
nodes = (
"363 562 LINE",
"363 586 LINE",
"354 627 LINE",
"336 658 LINE",
"308 676 LINE",
"289 676 LINE",
"269 676 LINE",
"241 658 LINE",
"223 627 LINE",
"215 586 LINE",
"215 562 LINE",
"215 515 LINE",
"250 450 LINE",
"289 450 LINE",
"328 450 LINE",
"363 515 LINE"
);
},
{
closed = 1;
nodes = (
"717 140 LINE",
"717 164 LINE",
"708 205 LINE",
"690 236 LINE",
"662 254 LINE",
"643 254 LINE",
"623 254 LINE",
"595 236 LINE",
"577 205 LINE",
"569 164 LINE",
"569 140 LINE",
"569 93 LINE",
"604 28 LINE",
"643 28 LINE",
"682 28 LINE",
"717 93 LINE"
);
}
);
};
hints = (
{
place = "{35, 85}";
},
{
place = "{286, 85}";
},
{
place = "{490, 85}";
},
{
place = "{741, 85}";
},
{
horizontal = 1;
place = "{-30, 53}";
},
{
horizontal = 1;
place = "{277, 58}";
},
{
horizontal = 1;
place = "{375, 53}";
},
{
horizontal = 1;
place = "{682, 58}";
},
{
horizontal = 1;
place = "{0, 21}";
target = up;
type = BottomGhost;
},
{
horizontal = 1;
place = "{700, -20}";
target = down;
type = TopGhost;
}
);
layerId = "03739D6D-2A00-4CFA-A48A-FF6A1F8AF183";
paths = (
{
closed = 1;
nodes = (
"559 700 LINE",
"184 0 LINE",
"295 0 LINE",
"670 700 LINE"
);
},
{
closed = 1;
nodes = (
"371 659 OFFCURVE",
"320 740 OFFCURVE",
"203 740 CURVE SMOOTH",
"87 740 OFFCURVE",
"35 659 OFFCURVE",
"35 555 CURVE SMOOTH",
"35 455 OFFCURVE",
"84 375 OFFCURVE",
"204 375 CURVE SMOOTH",
"320 375 OFFCURVE",
"371 455 OFFCURVE",
"371 555 CURVE SMOOTH"
);
},
{
closed = 1;
nodes = (
"260 682 OFFCURVE",
"286 623 OFFCURVE",
"286 553 CURVE SMOOTH",
"286 479 OFFCURVE",
"260 428 OFFCURVE",
"208 428 CURVE SMOOTH",
"148 428 OFFCURVE",
"120 483 OFFCURVE",
"120 554 CURVE SMOOTH",
"120 629 OFFCURVE",
"135 682 OFFCURVE",
"193 682 CURVE SMOOTH"
);
},
{
closed = 1;
nodes = (
"826 254 OFFCURVE",
"775 335 OFFCURVE",
"658 335 CURVE SMOOTH",
"542 335 OFFCURVE",
"490 254 OFFCURVE",
"490 150 CURVE SMOOTH",
"490 50 OFFCURVE",
"539 -30 OFFCURVE",
"659 -30 CURVE SMOOTH",
"775 -30 OFFCURVE",
"826 50 OFFCURVE",
"826 150 CURVE SMOOTH"
);
},
{
closed = 1;
nodes = (
"715 277 OFFCURVE",
"741 218 OFFCURVE",
"741 148 CURVE SMOOTH",
"741 74 OFFCURVE",
"715 23 OFFCURVE",
"663 23 CURVE SMOOTH",
"603 23 OFFCURVE",
"575 78 OFFCURVE",
"575 149 CURVE SMOOTH",
"575 224 OFFCURVE",
"590 277 OFFCURVE",
"648 277 CURVE SMOOTH"
);
}
);
width = 865;
},
{
background = {
paths = (
{
closed = 1;
nodes = (
"310 562 LINE",
"310 530 LINE",
"294 476 LINE",
"261 435 LINE",
"208 412 LINE",
"172 412 LINE",
"135 412 LINE",
"83 435 LINE",
"49 476 LINE",
"33 530 LINE",
"33 562 LINE",
"33 594 LINE",
"49 649 LINE",
"82 690 LINE",
"135 714 LINE",
"171 714 LINE",
"208 714 LINE",
"261 690 LINE",
"294 649 LINE",
"310 594 LINE"
);
},
{
closed = 1;
nodes = (
"574 700 LINE",
"198 0 LINE",
"123 0 LINE",
"499 700 LINE"
);
},
{
closed = 1;
nodes = (
"664 140 LINE",
"664 108 LINE",
"648 54 LINE",
"615 13 LINE",
"562 -10 LINE",
"526 -10 LINE",
"489 -10 LINE",
"437 13 LINE",
"403 54 LINE",
"387 108 LINE",
"387 140 LINE",
"387 172 LINE",
"403 227 LINE",
"436 268 LINE",
"489 292 LINE",
"525 292 LINE",
"562 292 LINE",
"615 268 LINE",
"648 227 LINE",
"664 172 LINE"
);
},
{
closed = 1;
nodes = (
"246 562 LINE",
"246 586 LINE",
"237 627 LINE",
"219 658 LINE",
"191 676 LINE",
"172 676 LINE",
"152 676 LINE",
"124 658 LINE",
"106 627 LINE",
"98 586 LINE",
"98 562 LINE",
"98 515 LINE",
"133 450 LINE",
"172 450 LINE",
"211 450 LINE",
"246 515 LINE"
);
},
{
closed = 1;
nodes = (
"600 140 LINE",
"600 164 LINE",
"591 205 LINE",
"573 236 LINE",
"545 254 LINE",
"526 254 LINE",
"506 254 LINE",
"478 236 LINE",
"460 205 LINE",
"452 164 LINE",
"452 140 LINE",
"452 93 LINE",
"487 28 LINE",
"526 28 LINE",
"565 28 LINE",
"600 93 LINE"
);
}
);
};
hints = (
{
place = "{33, 65}";
},
{
place = "{246, 64}";
},
{
place = "{387, 65}";
},
{
place = "{600, 64}";
},
{
horizontal = 1;
place = "{-10, 38}";
},
{
horizontal = 1;
place = "{254, 38}";
},
{
horizontal = 1;
place = "{412, 38}";
},
{
horizontal = 1;
place = "{676, 38}";
},
{
horizontal = 1;
place = "{0, 21}";
target = up;
type = BottomGhost;
},
{
horizontal = 1;
place = "{700, -20}";
target = down;
type = TopGhost;
}
);
layerId = UUID0;
paths = (
{
closed = 1;
nodes = (
"310 646 OFFCURVE",
"271 714 OFFCURVE",
"172 714 CURVE SMOOTH",
"75 714 OFFCURVE",
"33 646 OFFCURVE",
"33 562 CURVE SMOOTH",
"33 478 OFFCURVE",
"76 412 OFFCURVE",
"174 412 CURVE SMOOTH",
"271 412 OFFCURVE",
"310 478 OFFCURVE",
"310 562 CURVE SMOOTH"
);
},
{
closed = 1;
nodes = (
"500 700 LINE",
"124 0 LINE",
"199 0 LINE",
"575 700 LINE"
);
},
{
closed = 1;
nodes = (
"664 224 OFFCURVE",
"624 292 OFFCURVE",
"525 292 CURVE SMOOTH",
"428 292 OFFCURVE",
"387 224 OFFCURVE",
"387 140 CURVE SMOOTH",
"387 56 OFFCURVE",
"428 -10 OFFCURVE",
"526 -10 CURVE SMOOTH",
"623 -10 OFFCURVE",
"664 56 OFFCURVE",
"664 140 CURVE SMOOTH"
);
},
{
closed = 1;
nodes = (
"246 499 OFFCURVE",
"226 450 OFFCURVE",
"174 450 CURVE SMOOTH",
"122 450 OFFCURVE",
"98 499 OFFCURVE",
"98 562 CURVE SMOOTH",
"98 625 OFFCURVE",
"120 676 OFFCURVE",
"173 676 CURVE SMOOTH",
"224 676 OFFCURVE",
"246 625 OFFCURVE",
"246 562 CURVE SMOOTH"
);
},
{
closed = 1;
nodes = (
"600 77 OFFCURVE",
"578 28 OFFCURVE",
"526 28 CURVE SMOOTH",
"474 28 OFFCURVE",
"452 77 OFFCURVE",
"452 140 CURVE SMOOTH",
"452 203 OFFCURVE",
"473 254 OFFCURVE",
"526 254 CURVE SMOOTH",
"577 254 OFFCURVE",
"600 203 OFFCURVE",
"600 140 CURVE SMOOTH"
);
}
);
width = 701;
}
);
unicode = 0025;
},
{
glyphname = ampersand;
lastChange = "2017-11-21 14:35:46 +0000";
layers = (
{
background = {
paths = (
{
closed = 1;
nodes = (
"228 483 OFFCURVE",
"217 514 OFFCURVE",
"217 542 CURVE SMOOTH",
"217 609 OFFCURVE",
"278 657 OFFCURVE",
"340 657 CURVE SMOOTH",
"367 657 OFFCURVE",
"393 648 OFFCURVE",
"416 625 CURVE",
"400 530 LINE",
"446 511 LINE",
"509 640 LINE",
"470 689 OFFCURVE",
"406 712 OFFCURVE",
"339 712 CURVE SMOOTH",
"222 712 OFFCURVE",
"124 646 OFFCURVE",
"124 526 CURVE SMOOTH",
"124 461 OFFCURVE",
"157 418 OFFCURVE",
"201 374 CURVE",
"125 332 OFFCURVE",
"42 245 OFFCURVE",
"42 156 CURVE SMOOTH",
"42 68 OFFCURVE",
"111 -9 OFFCURVE",
"226 -9 CURVE SMOOTH",
"359 -9 OFFCURVE",
"428 87 OFFCURVE",
"444 111 CURVE",
"501 64 OFFCURVE",
"564 28 OFFCURVE",
"648 0 CURVE",
"687 0 LINE",
"697 35 LINE",
"626 55 OFFCURVE",
"559 109 OFFCURVE",
"490 181 CURVE",
"592 335 LINE",
"676 371 LINE",
"676 401 LINE",
"471 401 LINE",
"461 353 LINE",
"530 343 LINE",
"452 222 LINE",
"388 291 OFFCURVE",
"324 372 OFFCURVE",
"255 452 CURVE SMOOTH"
);
},
{
closed = 1;
nodes = (
"174 53 OFFCURVE",
"138 100 OFFCURVE",
"138 159 CURVE SMOOTH",
"138 218 OFFCURVE",
"178 282 OFFCURVE",
"242 325 CURVE",
"299 257 OFFCURVE",
"348 198 OFFCURVE",
"403 147 CURVE",
"384 123 OFFCURVE",
"326 53 OFFCURVE",
"249 53 CURVE SMOOTH"
);
}
);
};
hints = (
{
place = "{33, 119}";
},
{
place = "{112, 124}";
},
{
horizontal = 1;
place = "{-9, 85}";
},
{
horizontal = 1;
place = "{638, 86}";
},
{
horizontal = 1;
place = "{0, 21}";
target = up;
type = BottomGhost;
}
);
layerId = "03739D6D-2A00-4CFA-A48A-FF6A1F8AF183";
paths = (
{
closed = 1;
nodes = (
"244 493 OFFCURVE",
"236 514 OFFCURVE",
"236 542 CURVE SMOOTH",
"236 591 OFFCURVE",
"278 638 OFFCURVE",
"340 638 CURVE SMOOTH",
"367 638 OFFCURVE",
"386 627 OFFCURVE",
"397 618 CURVE",
"385 535 LINE",
"446 511 LINE",
"514 649 LINE",
"475 698 OFFCURVE",
"406 724 OFFCURVE",
"339 724 CURVE SMOOTH",
"222 724 OFFCURVE",
"112 661 OFFCURVE",
"112 526 CURVE SMOOTH",
"112 468 OFFCURVE",
"136 426 OFFCURVE",
"176 384 CURVE",
"105 340 OFFCURVE",
"33 263 OFFCURVE",
"33 167 CURVE SMOOTH",
"33 70 OFFCURVE",
"102 -9 OFFCURVE",
"233 -9 CURVE SMOOTH",
"354 -9 OFFCURVE",
"416 68 OFFCURVE",
"444 101 CURVE",
"496 59 OFFCURVE",
"549 29 OFFCURVE",
"627 0 CURVE",
"687 0 LINE",
"700 46 LINE",
"629 66 OFFCURVE",
"571 117 OFFCURVE",
"502 189 CURVE",
"583 312 LINE",
"676 358 LINE",
"676 401 LINE",
"471 401 LINE",
"458 338 LINE",
"502 331 LINE",
"452 254 LINE",
"388 323 OFFCURVE",
"340 382 OFFCURVE",
"271 462 CURVE SMOOTH"
);
},
{
closed = 1;
nodes = (
"197 76 OFFCURVE",
"152 118 OFFCURVE",
"152 181 CURVE SMOOTH",
"152 240 OFFCURVE",
"186 282 OFFCURVE",
"235 317 CURVE",
"292 249 OFFCURVE",
"337 196 OFFCURVE",
"383 149 CURVE",
"362 120 OFFCURVE",
"316 76 OFFCURVE",
"249 76 CURVE SMOOTH"
);
}
);
width = 733;
},
{
background = {
paths = (
{
closed = 1;
nodes = (
"249 452 LINE",
"301 392 LINE",
"398 274 LINE",
"446 222 LINE",
"524 343 LINE",
"455 353 LINE",
"465 401 LINE",
"670 401 LINE",
"670 371 LINE",
"586 335 LINE",
"484 181 LINE",
"536 127 LINE",
"638 50 LINE",
"691 35 LINE",
"681 0 LINE",
"642 0 LINE",
"579 21 LINE",
"481 76 LINE",
"438 111 LINE",
"432 102 LINE",
"400 62 LINE",
"346 22 LINE",
"270 -9 LINE",
"220 -9 LINE",
"177 -9 LINE",
"109 18 LINE",
"61 63 LINE",
"36 123 LINE",
"36 156 LINE",
"36 190 LINE",
"64 254 LINE",
"110 311 LINE",
"166 358 LINE",
"195 374 LINE",
"162 407 LINE",
"118 477 LINE",
"118 526 LINE",
"118 571 LINE",
"152 640 LINE",
"211 688 LINE",
"289 712 LINE",
"333 712 LINE",
"383 712 LINE",
"474 677 LINE",
"503 640 LINE",
"440 511 LINE",
"394 530 LINE",
"410 625 LINE",
"393 642 LINE",
"354 657 LINE",
"334 657 LINE",
"311 657 LINE",
"266 640 LINE",
"232 609 LINE",
"211 567 LINE",
"211 542 LINE",
"211 521 LINE",
"229 475 LINE"
);
},
{
closed = 1;
nodes = (
"243 53 LINE",
"271 53 LINE",
"322 76 LINE",
"362 106 LINE",
"390 138 LINE",
"397 147 LINE",
"356 185 LINE",
"279 274 LINE",
"236 325 LINE",
"188 293 LINE",
"132 203 LINE",
"132 159 LINE",
"132 115 LINE",
"187 53 LINE"
);
}
);
};
hints = (
{
place = "{117, 93}";
},
{
place = "{35, 96}";
},
{
horizontal = 1;
place = "{-9, 62}";
},
{
horizontal = 1;
place = "{348, 53}";
},
{
horizontal = 1;
place = "{530, -20}";
target = down;
type = TopGhost;
},
{
horizontal = 1;
place = "{657, 55}";
},
{
horizontal = 1;
place = "{0, 21}";
target = up;
type = BottomGhost;
},
{
horizontal = 1;
place = "{0, 35}";
}
);
layerId = UUID0;
paths = (
{
closed = 1;
nodes = (
"221 483 OFFCURVE",
"210 514 OFFCURVE",
"210 542 CURVE SMOOTH",
"210 609 OFFCURVE",
"271 657 OFFCURVE",
"333 657 CURVE SMOOTH",
"360 657 OFFCURVE",
"386 648 OFFCURVE",
"409 625 CURVE",
"393 530 LINE",
"439 511 LINE",
"502 640 LINE",
"463 689 OFFCURVE",
"399 712 OFFCURVE",
"332 712 CURVE SMOOTH",
"215 712 OFFCURVE",
"117 646 OFFCURVE",
"117 526 CURVE SMOOTH",
"117 461 OFFCURVE",
"150 418 OFFCURVE",
"194 374 CURVE",
"118 332 OFFCURVE",
"35 245 OFFCURVE",
"35 156 CURVE SMOOTH",
"35 68 OFFCURVE",
"104 -9 OFFCURVE",
"219 -9 CURVE SMOOTH",
"352 -9 OFFCURVE",
"421 87 OFFCURVE",
"437 111 CURVE",
"494 64 OFFCURVE",
"557 28 OFFCURVE",
"641 0 CURVE",
"680 0 LINE",
"690 35 LINE",
"619 55 OFFCURVE",
"552 109 OFFCURVE",
"483 181 CURVE",
"585 335 LINE",
"669 371 LINE",
"669 401 LINE",
"464 401 LINE",
"454 353 LINE",
"523 343 LINE",
"445 222 LINE",
"381 291 OFFCURVE",
"317 372 OFFCURVE",
"248 452 CURVE SMOOTH"
);
},
{
closed = 1;
nodes = (
"167 53 OFFCURVE",
"131 100 OFFCURVE",
"131 159 CURVE SMOOTH",
"131 218 OFFCURVE",
"171 282 OFFCURVE",
"235 325 CURVE",
"292 257 OFFCURVE",
"341 198 OFFCURVE",
"396 147 CURVE",
"377 123 OFFCURVE",
"319 53 OFFCURVE",
"242 53 CURVE SMOOTH"
);
}
);
width = 749;
}
);
unicode = 0026;
},
{
glyphname = quotesingle;
lastChange = "2017-11-21 14:35:46 +0000";
layers = (
{
background = {
paths = (
{
closed = 1;
nodes = (
"83 461 LINE",
"47 461 LINE",
"20 688 LINE",
"25 698 LINE",
"48 724 LINE",
"65 729 LINE",
"82 724 LINE",
"105 698 LINE",
"110 688 LINE"
);
}
);
};
hints = (
{
horizontal = 1;
place = "{729, -20}";
target = down;
type = TopGhost;
},
{
horizontal = 1;
place = "{461, 21}";
target = up;
type = BottomGhost;
}
);
layerId = "03739D6D-2A00-4CFA-A48A-FF6A1F8AF183";
paths = (
{
closed = 1;
nodes = (
"130 688 LINE",
"123 701 OFFCURVE",
"98 722 OFFCURVE",
"75 729 CURVE",
"52 722 OFFCURVE",
"27 701 OFFCURVE",
"20 688 CURVE",
"47 461 LINE",
"103 461 LINE"
);
}
);
width = 150;
},
{
background = {
paths = (
{
closed = 1;
nodes = (
"111 461 LINE",
"75 461 LINE",
"48 688 LINE",
"53 698 LINE",
"76 724 LINE",
"93 729 LINE",
"110 724 LINE",
"133 698 LINE",
"138 688 LINE"
);
}
);
};
hints = (
{
place = "{48, 90}";
},
{
horizontal = 1;
place = "{461, 268}";
}
);
layerId = UUID0;
paths = (
{
closed = 1;
nodes = (
"138 688 LINE",
"131 701 OFFCURVE",
"116 722 OFFCURVE",
"93 729 CURVE",
"70 722 OFFCURVE",
"55 701 OFFCURVE",
"48 688 CURVE",
"75 461 LINE",
"111 461 LINE"
);
}
);
width = 190;
}
);
unicode = 0027;
},
{
glyphname = parenleft;
lastChange = "2017-11-21 14:35:46 +0000";
layers = (
{
background = {
paths = (
{
closed = 1;
nodes = (
"35 268 LINE",
"35 332 LINE",
"60 459 LINE",
"108 580 LINE",
"181 689 LINE",
"230 735 LINE",
"260 713 LINE",
"218 669 LINE",
"166 562 LINE",
"136 446 LINE",
"125 325 LINE",
"125 268 LINE",
"125 211 LINE",
"136 90 LINE",
"166 -26 LINE",
"218 -133 LINE",
"260 -177 LINE",
"230 -199 LINE",
"181 -153 LINE",
"108 -44 LINE",
"60 77 LINE",
"35 204 LINE"
);
}
);
};
hints = (
{
place = "{35, 120}";
},
{
horizontal = 1;
place = "{-199, 21}";
target = up;
type = BottomGhost;
},
{
horizontal = 1;
place = "{735, -20}";
target = down;
type = TopGhost;
}
);
layerId = "03739D6D-2A00-4CFA-A48A-FF6A1F8AF183";
paths = (
{
closed = 1;
nodes = (
"35 98 OFFCURVE",
"100 -77 OFFCURVE",
"230 -199 CURVE",
"278 -164 LINE",
"182 -42 OFFCURVE",
"155 115 OFFCURVE",
"155 268 CURVE SMOOTH",
"155 421 OFFCURVE",
"174 558 OFFCURVE",
"278 700 CURVE",
"230 735 LINE",
"100 613 OFFCURVE",
"35 438 OFFCURVE",
"35 268 CURVE SMOOTH"
);
}
);
width = 330;
},
{
background = {
paths = (
{
closed = 1;
nodes = (
"35 268 LINE",
"35 332 LINE",
"60 459 LINE",
"108 580 LINE",
"181 689 LINE",
"230 735 LINE",
"260 713 LINE",
"218 669 LINE",
"166 562 LINE",
"136 446 LINE",
"125 325 LINE",
"125 268 LINE",
"125 211 LINE",
"136 90 LINE",
"166 -26 LINE",
"218 -133 LINE",
"260 -177 LINE",
"230 -199 LINE",
"181 -153 LINE",
"108 -44 LINE",
"60 77 LINE",
"35 204 LINE"
);
}
);
};
hints = (
{
place = "{35, 90}";
},
{
horizontal = 1;
place = "{713, -20}";
target = down;
type = TopGhost;
}
);
layerId = UUID0;
paths = (
{
closed = 1;
nodes = (
"35 98 OFFCURVE",
"100 -77 OFFCURVE",
"230 -199 CURVE",
"260 -177 LINE",
"148 -60 OFFCURVE",
"125 115 OFFCURVE",
"125 268 CURVE SMOOTH",
"125 421 OFFCURVE",
"148 596 OFFCURVE",
"260 713 CURVE",
"230 735 LINE",
"100 613 OFFCURVE",
"35 438 OFFCURVE",
"35 268 CURVE SMOOTH"
);
}
);
width = 365;
}
);
unicode = 0028;
},
{
glyphname = parenright;
lastChange = "2017-11-21 14:35:46 +0000";
layers = (
{
background = {
paths = (
{
closed = 1;
nodes = (
"264 268 LINE",
"264 204 LINE",
"240 77 LINE",
"191 -44 LINE",
"118 -153 LINE",
"69 -199 LINE",
"39 -177 LINE",
"81 -133 LINE",
"134 -26 LINE",
"163 90 LINE",
"174 211 LINE",
"174 268 LINE",
"174 325 LINE",
"163 446 LINE",
"134 562 LINE",
"81 669 LINE",
"39 713 LINE",
"69 735 LINE",
"118 689 LINE",
"191 580 LINE",
"240 459 LINE",
"264 332 LINE"
);
}
);
};
hints = (
{
place = "{174, 120}";
},
{
horizontal = 1;
place = "{734, -20}";
target = down;
type = TopGhost;
},
{
horizontal = 1;
place = "{-200, 21}";
target = up;
type = BottomGhost;
}
);
layerId = "03739D6D-2A00-4CFA-A48A-FF6A1F8AF183";
paths = (
{
closed = 1;
nodes = (
"294 437 OFFCURVE",
"230 612 OFFCURVE",
"100 734 CURVE",
"52 699 LINE",
"148 577 OFFCURVE",
"174 420 OFFCURVE",
"174 267 CURVE SMOOTH",
"174 114 OFFCURVE",
"155 -23 OFFCURVE",
"51 -165 CURVE",
"98 -200 LINE",
"229 -78 OFFCURVE",
"294 97 OFFCURVE",
"294 267 CURVE SMOOTH"
);
}
);
width = 330;
},
{
background = {
paths = (
{
closed = 1;
nodes = (
"238 268 LINE",
"238 204 LINE",
"214 77 LINE",
"165 -44 LINE",
"92 -153 LINE",
"43 -199 LINE",
"13 -177 LINE",
"55 -133 LINE",
"108 -26 LINE",
"137 90 LINE",
"148 211 LINE",
"148 268 LINE",
"148 325 LINE",
"137 446 LINE",
"108 562 LINE",
"55 669 LINE",
"13 713 LINE",
"43 735 LINE",
"92 689 LINE",
"165 580 LINE",
"214 459 LINE",
"238 332 LINE"
);
}
);
};
hints = (
{
place = "{147, 90}";
},
{
horizontal = 1;
place = "{713, -20}";
target = down;
type = TopGhost;
}
);
layerId = UUID0;
paths = (
{
closed = 1;
nodes = (
"237 438 OFFCURVE",
"172 613 OFFCURVE",
"42 735 CURVE",
"12 713 LINE",
"124 596 OFFCURVE",
"147 421 OFFCURVE",
"147 268 CURVE SMOOTH",
"147 115 OFFCURVE",
"124 -60 OFFCURVE",
"12 -177 CURVE",
"42 -199 LINE",
"172 -77 OFFCURVE",
"237 98 OFFCURVE",
"237 268 CURVE SMOOTH"
);
}
);
width = 365;
}
);
unicode = 0029;
},
{
glyphname = asterisk;
lastChange = "2017-11-21 14:35:46 +0000";
layers = (
{
background = {
paths = (
{
closed = 1;
nodes = (
"217 569 LINE",
"195 721 LINE",
"282 721 LINE",
"261 569 LINE"
);
},
{
closed = 1;
nodes = (
"188 515 LINE",
"37 541 LINE",
"64 624 LINE",
"202 557 LINE"
);
},
{
closed = 1;
nodes = (
"233 474 LINE",
"161 338 LINE",
"91 390 LINE",
"197 500 LINE"
);
},
{
closed = 1;
nodes = (
"285 505 LINE",
"392 394 LINE",
"321 344 LINE",
"249 478 LINE"
);
},
{
closed = 1;
nodes = (
"272 562 LINE",
"411 629 LINE",
"436 546 LINE",
"287 519 LINE"
);
}
);
};
hints = (
{
horizontal = 1;
place = "{721, -20}";
target = down;
type = TopGhost;
},
{
horizontal = 1;
place = "{289, 21}";
target = up;
type = BottomGhost;
}
);
layerId = "03739D6D-2A00-4CFA-A48A-FF6A1F8AF183";
paths = (
{
closed = 1;
nodes = (
"289 550 LINE",
"312 721 LINE",
"214 721 LINE",
"239 550 LINE"
);
},
{
closed = 1;
nodes = (
"222 536 LINE",
"66 612 LINE",
"36 518 LINE",
"206 489 LINE"
);
},
{
closed = 1;
nodes = (
"216 472 LINE",
"97 348 LINE",
"176 289 LINE",
"257 442 LINE"
);
},
{
closed = 1;
nodes = (
"275 447 LINE",
"356 296 LINE",
"436 352 LINE",
"316 477 LINE"
);
},
{
closed = 1;
nodes = (
"318 493 LINE",
"486 524 LINE",
"458 617 LINE",
"301 542 LINE"
);
}
);
width = 523;
},
{
background = {
paths = (
{
closed = 1;
nodes = (
"217 569 LINE",
"195 721 LINE",
"282 721 LINE",
"261 569 LINE"
);
},
{
closed = 1;
nodes = (
"188 515 LINE",
"37 541 LINE",
"64 624 LINE",
"202 557 LINE"
);
},
{
closed = 1;
nodes = (
"233 474 LINE",
"161 338 LINE",
"91 390 LINE",
"197 500 LINE"
);
},
{
closed = 1;
nodes = (
"285 505 LINE",
"392 394 LINE",
"321 344 LINE",
"249 478 LINE"
);
},
{
closed = 1;
nodes = (
"272 562 LINE",
"411 629 LINE",
"436 546 LINE",
"287 519 LINE"
);
}
);
};
hints = (
{
place = "{36, 399}";
},
{
horizontal = 1;
place = "{569, 152}";
}
);
layerId = UUID0;
paths = (
{
closed = 1;
nodes = (
"260 569 LINE",
"281 721 LINE",
"194 721 LINE",
"216 569 LINE"
);
},
{
closed = 1;
nodes = (
"201 557 LINE",
"63 624 LINE",
"36 541 LINE",
"187 515 LINE"
);
},
{
closed = 1;
nodes = (
"196 500 LINE",
"90 390 LINE",
"160 338 LINE",
"232 474 LINE"
);
},
{
closed = 1;
nodes = (
"248 478 LINE",
"320 344 LINE",
"391 394 LINE",
"284 505 LINE"
);
},
{
closed = 1;
nodes = (
"286 519 LINE",
"435 546 LINE",
"410 629 LINE",
"271 562 LINE"
);
}
);
width = 496;
}
);
unicode = 002A;
},
{
glyphname = plus;
lastChange = "2017-11-21 14:35:46 +0000";
layers = (
{
background = {
paths = (
{
closed = 1;
nodes = (
"51 332 LINE",
"311 332 LINE",
"311 604 LINE",
"385 604 LINE",
"385 332 LINE",
"645 332 LINE",
"645 261 LINE",
"385 261 LINE",
"385 0 LINE",
"311 0 LINE",
"311 261 LINE",
"51 261 LINE"
);
}
);
};
hints = (
{
place = "{290, 114}";
},
{
horizontal = 1;
place = "{241, 111}";
},
{
horizontal = 1;
place = "{0, 21}";
target = up;
type = BottomGhost;
},
{
horizontal = 1;
place = "{604, -20}";
target = down;
type = TopGhost;
}
);
layerId = "03739D6D-2A00-4CFA-A48A-FF6A1F8AF183";
paths = (
{
closed = 1;
nodes = (
"50 241 LINE",
"290 241 LINE",
"290 0 LINE",
"404 0 LINE",
"404 241 LINE",
"644 241 LINE",
"644 352 LINE",
"404 352 LINE",
"404 604 LINE",
"290 604 LINE",
"290 352 LINE",
"50 352 LINE"
);
}
);
width = 693;
},
{
background = {
paths = (
{
closed = 1;
nodes = (
"32 332 LINE",
"292 332 LINE",
"292 604 LINE",
"366 604 LINE",
"366 332 LINE",
"626 332 LINE",
"626 261 LINE",
"366 261 LINE",
"366 0 LINE",
"292 0 LINE",
"292 261 LINE",
"32 261 LINE"
);
}
);
};
hints = (
{
place = "{292, 74}";
},
{
horizontal = 1;
place = "{0, 21}";
target = up;
type = BottomGhost;
},
{
horizontal = 1;
place = "{261, 71}";
}
);
layerId = UUID0;
paths = (
{
closed = 1;
nodes = (
"32 261 LINE",
"292 261 LINE",
"292 0 LINE",
"366 0 LINE",
"366 261 LINE",
"626 261 LINE",
"626 332 LINE",
"366 332 LINE",
"366 604 LINE",
"292 604 LINE",
"292 332 LINE",
"32 332 LINE"
);
}
);
width = 834;
}
);
unicode = 002B;
},
{
glyphname = comma;
lastChange = "2017-11-21 14:35:46 +0000";
layers = (
{
background = {
paths = (
{
closed = 1;
nodes = (
"168 51 LINE",
"173 26 LINE",
"162 -44 LINE",
"133 -112 LINE",
"90 -166 LINE",
"65 -175 LINE",
"45 -150 LINE",
"62 -138 LINE",
"85 -106 LINE",
"95 -70 LINE",
"96 -36 LINE",
"93 -22 LINE",
"46 2 LINE",
"23 49 LINE",
"48 96 LINE",
"96 122 LINE",
"142 97 LINE"
);
}
);
};
hints = (
{
horizontal = 1;
place = "{164, -20}";
target = down;
type = TopGhost;
},
{
horizontal = 1;
place = "{-181, 21}";
target = up;
type = BottomGhost;
}
);
layerId = "03739D6D-2A00-4CFA-A48A-FF6A1F8AF183";
paths = (
{
closed = 1;
nodes = (
"193 116 OFFCURVE",
"163 143 OFFCURVE",
"125 164 CURVE",
"75 137 OFFCURVE",
"52 107 OFFCURVE",
"32 73 CURVE",
"51 35 OFFCURVE",
"83 4 OFFCURVE",
"122 -16 CURVE",
"131 -61 OFFCURVE",
"111 -116 OFFCURVE",
"63 -151 CURVE",
"87 -181 LINE",
"180 -138 OFFCURVE",
"233 -6 OFFCURVE",
"214 75 CURVE"
);
}
);
width = 260;
},
{
background = {
paths = (
{
closed = 1;
nodes = (
"185 51 LINE",
"190 26 LINE",
"179 -44 LINE",
"150 -112 LINE",
"107 -166 LINE",
"82 -175 LINE",
"62 -150 LINE",
"79 -138 LINE",
"102 -106 LINE",
"112 -70 LINE",
"113 -36 LINE",
"110 -22 LINE",
"63 2 LINE",
"40 49 LINE",
"65 96 LINE",
"113 122 LINE",
"159 97 LINE"
);
}
);
};
hints = (
{
place = "{40, 148}";
},
{
horizontal = 1;
place = "{-175, 297}";
}
);
layerId = UUID0;
paths = (
{
closed = 1;
nodes = (
"168 82 OFFCURVE",
"145 105 OFFCURVE",
"114 122 CURVE",
"82 105 OFFCURVE",
"57 80 OFFCURVE",
"40 49 CURVE",
"56 18 OFFCURVE",
"80 -6 OFFCURVE",
"111 -22 CURVE",
"119 -59 OFFCURVE",
"110 -118 OFFCURVE",
"62 -150 CURVE",
"82 -175 LINE",
"151 -151 OFFCURVE",
"201 -16 OFFCURVE",
"185 51 CURVE"
);
}
);
width = 277;
}
);
unicode = 002C;
},
{
glyphname = hyphen;
lastChange = "2017-11-21 14:35:46 +0000";
layers = (
{
background = {
paths = (
{
closed = 1;
nodes = (
"61 270 LINE",
"305 270 LINE",
"305 195 LINE",
"61 195 LINE"
);
}
);
};
hints = (
{
place = "{50, 244}";
},
{
horizontal = 1;
place = "{195, 105}";
}
);
layerId = "03739D6D-2A00-4CFA-A48A-FF6A1F8AF183";
paths = (
{
closed = 1;
nodes = (
"50 195 LINE",
"294 195 LINE",
"294 300 LINE",
"50 300 LINE"
);
}
);
width = 344;
},
{
background = {
paths = (
{
closed = 1;
nodes = (
"61 270 LINE",
"305 270 LINE",
"305 195 LINE",
"61 195 LINE"
);
}
);
};
hints = (
{
place = "{50, 244}";
},
{
horizontal = 1;
place = "{195, 75}";
}
);
layerId = UUID0;
paths = (
{
closed = 1;
nodes = (
"50 195 LINE",
"294 195 LINE",
"294 270 LINE",
"50 270 LINE"
);
}
);
width = 344;
}
);
unicode = 002D;
},
{
glyphname = period;
lastChange = "2017-11-21 14:35:46 +0000";
layers = (
{
background = {
paths = (
{
closed = 1;
nodes = (
"41 55 LINE",
"67 102 LINE",
"115 128 LINE",
"161 103 LINE",
"186 57 LINE",
"159 10 LINE",
"112 -16 LINE",
"65 8 LINE"
);
}
);
};
hints = (
{
horizontal = 1;
place = "{-16, 21}";
target = up;
type = BottomGhost;
},
{
horizontal = 1;
place = "{164, -20}";
target = down;
type = TopGhost;
}
);
layerId = "03739D6D-2A00-4CFA-A48A-FF6A1F8AF183";
paths = (
{
closed = 1;
nodes = (
"69 34 OFFCURVE",
"100 4 OFFCURVE",
"139 -16 CURVE",
"177 5 OFFCURVE",
"209 36 OFFCURVE",
"231 75 CURVE",
"210 115 OFFCURVE",
"181 143 OFFCURVE",
"142 164 CURVE",
"102 143 OFFCURVE",
"70 112 OFFCURVE",
"49 73 CURVE"
);
}
);
width = 285;
},
{
background = {
paths = (
{
closed = 1;
nodes = (
"41 55 LINE",
"67 102 LINE",
"115 128 LINE",
"161 103 LINE",
"186 57 LINE",
"159 10 LINE",
"112 -16 LINE",
"65 8 LINE"
);
}
);
};
hints = (
{
place = "{41, 145}";
},
{
horizontal = 1;
place = "{-16, 144}";
}
);
layerId = UUID0;
paths = (
{
closed = 1;
nodes = (
"57 24 OFFCURVE",
"81 0 OFFCURVE",
"112 -16 CURVE",
"143 1 OFFCURVE",
"168 26 OFFCURVE",
"186 57 CURVE",
"169 88 OFFCURVE",
"146 111 OFFCURVE",
"115 128 CURVE",
"83 111 OFFCURVE",
"58 86 OFFCURVE",
"41 55 CURVE"
);
}
);
width = 285;
}
);
unicode = 002E;
},
{
glyphname = slash;
lastChange = "2017-11-21 14:35:46 +0000";
layers = (
{
background = {
paths = (
{
closed = 1;
nodes = (
"564 700 LINE",
"104 -157 LINE",
"21 -157 LINE",
"481 700 LINE"
);
}
);
};
hints = (
{
horizontal = 1;
place = "{700, -20}";
target = down;
type = TopGhost;
},
{
horizontal = 1;
place = "{-157, 21}";
target = up;
type = BottomGhost;
}
);
layerId = "03739D6D-2A00-4CFA-A48A-FF6A1F8AF183";
paths = (
{
closed = 1;
nodes = (
"442 700 LINE",
"-18 -157 LINE",
"105 -157 LINE",
"565 700 LINE"
);
}
);
width = 598;
},
{
background = {
paths = (
{
closed = 1;
nodes = (
"564 700 LINE",
"104 -157 LINE",
"21 -157 LINE",
"481 700 LINE"
);
}
);
};
hints = (
{
place = "{22, 543}";
},
{
horizontal = 1;
place = "{700, -20}";
target = down;
type = TopGhost;
}
);
layerId = UUID0;
paths = (
{
closed = 1;
nodes = (
"482 700 LINE",
"22 -157 LINE",
"105 -157 LINE",
"565 700 LINE"
);
}
);
width = 598;
}
);
unicode = 002F;
},
{
glyphname = zero;
lastChange = "2017-11-21 14:35:46 +0000";
layers = (
{
background = {
paths = (
{
closed = 1;
nodes = (
"305 714 LINE",
"375 714 LINE",
"470 655 LINE",
"529 555 LINE",
"556 421 LINE",
"556 347 LINE",
"556 273 LINE",
"529 143 LINE",
"470 43 LINE",
"375 -14 LINE",
"306 -14 LINE",
"237 -14 LINE",
"141 43 LINE",
"81 143 LINE",
"54 273 LINE",
"54 347 LINE",
"54 421 LINE",
"81 555 LINE",
"140 655 LINE",
"236 714 LINE"
);
},
{
closed = 1;
nodes = (
"303 659 LINE",
"266 659 LINE",
"213 615 LINE",
"178 536 LINE",
"162 420 LINE",
"162 349 LINE",
"162 281 LINE",
"177 167 LINE",
"210 87 LINE",
"263 42 LINE",
"301 42 LINE",
"342 42 LINE",
"398 87 LINE",
"433 167 LINE",
"448 281 LINE",
"448 349 LINE",
"448 420 LINE",
"431 536 LINE",
"396 615 LINE",
"341 659 LINE"
);
}
);
};
hints = (
{
place = "{37, 145}";
},
{
place = "{414, 141}";
},
{
horizontal = 1;
place = "{-14, 92}";
},
{
horizontal = 1;
place = "{622, 92}";
}
);
layerId = "03739D6D-2A00-4CFA-A48A-FF6A1F8AF183";
paths = (
{
closed = 1;
nodes = (
"115 714 OFFCURVE",
"37 549 OFFCURVE",
"37 349 CURVE SMOOTH",
"37 142 OFFCURVE",
"111 -14 OFFCURVE",
"300 -14 CURVE SMOOTH",
"487 -14 OFFCURVE",
"555 154 OFFCURVE",
"555 349 CURVE SMOOTH",
"555 552 OFFCURVE",
"486 714 OFFCURVE",
"298 714 CURVE SMOOTH"
);
},
{
closed = 1;
nodes = (
"378 622 OFFCURVE",
"414 518 OFFCURVE",
"414 351 CURVE SMOOTH",
"414 192 OFFCURVE",
"384 78 OFFCURVE",
"295 78 CURVE SMOOTH",
"213 78 OFFCURVE",
"182 192 OFFCURVE",
"182 351 CURVE SMOOTH",
"182 518 OFFCURVE",
"215 622 OFFCURVE",
"296 622 CURVE SMOOTH"
);
}
);
width = 592;
},
{
background = {
paths = (
{
closed = 1;
nodes = (
"305 714 LINE",
"375 714 LINE",
"470 655 LINE",
"529 555 LINE",
"556 421 LINE",
"556 347 LINE",
"556 273 LINE",
"529 143 LINE",
"470 43 LINE",
"375 -14 LINE",
"306 -14 LINE",
"237 -14 LINE",
"141 43 LINE",
"81 143 LINE",
"54 273 LINE",
"54 347 LINE",
"54 421 LINE",
"81 555 LINE",
"140 655 LINE",
"236 714 LINE"
);
},
{
closed = 1;
nodes = (
"303 659 LINE",
"266 659 LINE",
"213 615 LINE",
"178 536 LINE",
"162 420 LINE",
"162 349 LINE",
"162 281 LINE",
"177 167 LINE",
"210 87 LINE",
"263 42 LINE",
"301 42 LINE",
"342 42 LINE",
"398 87 LINE",
"433 167 LINE",
"448 281 LINE",
"448 349 LINE",
"448 420 LINE",
"431 536 LINE",
"396 615 LINE",
"341 659 LINE"
);
}
);
};
hints = (
{
place = "{55, 108}";
},
{
place = "{449, 108}";
},
{
horizontal = 1;
place = "{-13, 55}";
},
{
horizontal = 1;
place = "{658, 55}";
}
);
layerId = UUID0;
paths = (
{
closed = 1;
nodes = (
"122 713 OFFCURVE",
"55 546 OFFCURVE",
"55 349 CURVE SMOOTH",
"55 154 OFFCURVE",
"124 -13 OFFCURVE",
"308 -13 CURVE SMOOTH",
"491 -13 OFFCURVE",
"557 154 OFFCURVE",
"557 349 CURVE SMOOTH",
"557 546 OFFCURVE",
"490 713 OFFCURVE",
"306 713 CURVE SMOOTH"
);
},
{
closed = 1;
nodes = (
"405 658 OFFCURVE",
"449 540 OFFCURVE",
"449 351 CURVE SMOOTH",
"449 171 OFFCURVE",
"412 42 OFFCURVE",
"303 42 CURVE SMOOTH",
"202 42 OFFCURVE",
"163 171 OFFCURVE",
"163 351 CURVE SMOOTH",
"163 540 OFFCURVE",
"205 658 OFFCURVE",
"304 658 CURVE SMOOTH"
);
}
);
width = 592;
}
);
unicode = 0030;
},
{
glyphname = one;
lastChange = "2017-11-21 14:35:46 +0000";
layers = (
{
background = {
paths = (
{
closed = 1;
nodes = (
"446 45 LINE",
"436 0 LINE",
"77 0 LINE",
"77 35 LINE",
"216 64 LINE",
"216 609 LINE",
"50 574 LINE",
"50 609 LINE",
"115 634 LINE",
"233 691 LINE",
"282 716 LINE",
"316 716 LINE",
"316 64 LINE"
);
}
);
};
hints = (
{
place = "{193, 132}";
},
{
horizontal = 1;
place = "{716, -20}";
target = down;
type = TopGhost;
},
{
horizontal = 1;
place = "{0, 21}";
target = up;
type = BottomGhost;
}
);
layerId = "03739D6D-2A00-4CFA-A48A-FF6A1F8AF183";
paths = (
{
closed = 1;
nodes = (
"325 96 LINE",
"325 716 LINE",
"269 716 LINE",
"207 685 OFFCURVE",
"130 646 OFFCURVE",
"36 610 CURVE",
"36 538 LINE",
"193 572 LINE",
"193 96 LINE",
"61 68 LINE",
"61 0 LINE",
"436 0 LINE",
"452 78 LINE"
);
}
);
width = 495;
},
{
background = {
paths = (
{
closed = 1;
nodes = (
"422 45 LINE",
"412 0 LINE",
"53 0 LINE",
"53 35 LINE",
"192 64 LINE",
"192 609 LINE",
"26 574 LINE",
"26 609 LINE",
"91 634 LINE",
"209 691 LINE",
"258 716 LINE",
"292 716 LINE",
"292 64 LINE"
);
}
);
};
hints = (
{
place = "{192, 100}";
},
{
horizontal = 1;
place = "{0, 64}";
},
{
horizontal = 1;
place = "{0, 35}";
}
);
layerId = UUID0;
paths = (
{
closed = 1;
nodes = (
"292 64 LINE",
"292 716 LINE",
"258 716 LINE",
"193 683 OFFCURVE",
"113 642 OFFCURVE",
"26 609 CURVE",
"26 574 LINE",
"192 609 LINE",
"192 64 LINE",
"53 35 LINE",
"53 0 LINE",
"412 0 LINE",
"422 45 LINE"
);
}
);
width = 556;
}
);
unicode = 0031;
},
{
glyphname = two;
lastChange = "2017-11-21 14:35:46 +0000";
layers = (
{
background = {
paths = (
{
closed = 1;
nodes = (
"53 62 LINE",
"126 133 LINE",
"235 235 LINE",
"314 312 LINE",
"365 372 LINE",
"394 428 LINE",
"405 487 LINE",
"405 525 LINE",
"405 564 LINE",
"383 618 LINE",
"346 651 LINE",
"299 666 LINE",
"273 666 LINE",
"247 666 LINE",
"214 655 LINE",
"182 645 LINE",
"163 627 LINE",
"123 462 LINE",
"73 472 LINE",
"73 641 LINE",
"93 656 LINE",
"147 683 LINE",
"205 703 LINE",
"262 714 LINE",
"285 714 LINE",
"335 714 LINE",
"419 691 LINE",
"480 643 LINE",
"515 568 LINE",
"515 516 LINE",
"515 492 LINE",
"506 450 LINE",
"487 408 LINE",
"458 365 LINE",
"439 341 LINE",
"419 317 LINE",
"368 263 LINE",
"336 233 LINE",
"183 90 LINE",
"476 90 LINE",
"496 179 LINE",
"538 169 LINE",
"538 0 LINE",
"53 0 LINE"
);
}
);
};
hints = (
{
place = "{373, 142}";
},
{
horizontal = 1;
place = "{0, 123}";
},
{
horizontal = 1;
place = "{629, 85}";
}
);
layerId = "03739D6D-2A00-4CFA-A48A-FF6A1F8AF183";
paths = (
{
closed = 1;
nodes = (
"40 0 LINE",
"538 0 LINE",
"538 195 LINE",
"463 211 LINE",
"459 188 OFFCURVE",
"449 150 OFFCURVE",
"443 123 CURVE",
"217 123 LINE",
"235 140 OFFCURVE",
"218 124 OFFCURVE",
"235 139 CURVE SMOOTH",
"427 317 OFFCURVE",
"515 405 OFFCURVE",
"515 507 CURVE SMOOTH",
"515 657 OFFCURVE",
"419 714 OFFCURVE",
"279 714 CURVE SMOOTH",
"217 714 OFFCURVE",
"120 678 OFFCURVE",
"59 633 CURVE",
"59 449 LINE",
"140 434 LINE",
"180 602 LINE",
"201 618 OFFCURVE",
"240 629 OFFCURVE",
"268 629 CURVE SMOOTH",
"323 629 OFFCURVE",
"373 600 OFFCURVE",
"373 518 CURVE SMOOTH",
"373 404 OFFCURVE",
"334 367 OFFCURVE",
"158 199 CURVE",
"40 85 LINE"
);
}
);
width = 572;
},
{
background = {
paths = (
{
closed = 1;
nodes = (
"41 62 LINE",
"114 133 LINE",
"223 235 LINE",
"302 312 LINE",
"353 372 LINE",
"382 428 LINE",
"393 487 LINE",
"393 525 LINE",
"393 564 LINE",
"371 618 LINE",
"334 651 LINE",
"287 666 LINE",
"261 666 LINE",
"235 666 LINE",
"202 655 LINE",
"170 645 LINE",
"151 627 LINE",
"111 462 LINE",
"61 472 LINE",
"61 641 LINE",
"81 656 LINE",
"135 683 LINE",
"193 703 LINE",
"250 714 LINE",
"273 714 LINE",
"323 714 LINE",
"407 691 LINE",
"468 643 LINE",
"503 568 LINE",
"503 516 LINE",
"503 492 LINE",
"494 450 LINE",
"475 408 LINE",
"446 365 LINE",
"427 341 LINE",
"407 317 LINE",
"356 263 LINE",
"324 233 LINE",
"171 90 LINE",
"464 90 LINE",
"484 179 LINE",
"526 169 LINE",
"526 0 LINE",
"41 0 LINE"
);
}
);
};
hints = (
{
place = "{394, 109}";
},
{
place = "{485, 42}";
},
{
place = "{62, 50}";
},
{
horizontal = 1;
place = "{0, 90}";
},
{
horizontal = 1;
place = "{665, 49}";
}
);
layerId = UUID0;
paths = (
{
closed = 1;
nodes = (
"42 0 LINE",
"527 0 LINE",
"527 169 LINE",
"485 179 LINE",
"465 90 LINE",
"172 90 LINE",
"411 313 OFFCURVE",
"503 387 OFFCURVE",
"503 516 CURVE SMOOTH",
"503 655 OFFCURVE",
"406 714 OFFCURVE",
"274 714 CURVE SMOOTH",
"213 714 OFFCURVE",
"115 681 OFFCURVE",
"62 641 CURVE",
"62 472 LINE",
"112 462 LINE",
"152 628 LINE",
"177 651 OFFCURVE",
"227 665 OFFCURVE",
"262 665 CURVE SMOOTH",
"331 665 OFFCURVE",
"394 629 OFFCURVE",
"394 528 CURVE SMOOTH",
"394 376 OFFCURVE",
"335 347 OFFCURVE",
"42 62 CURVE"
);
}
);
width = 579;
}
);
unicode = 0032;
},
{
glyphname = three;
lastChange = "2017-11-21 14:35:46 +0000";
layers = (
{
background = {
paths = (
{
closed = 1;
nodes = (
"527 199 LINE",
"527 142 LINE",
"485 61 LINE",
"413 9 LINE",
"319 -15 LINE",
"268 -15 LINE",
"207 -15 LINE",
"91 8 LINE",
"42 28 LINE",
"42 204 LINE",
"92 213 LINE",
"126 69 LINE",
"149 54 LINE",
"206 41 LINE",
"237 41 LINE",
"323 41 LINE",
"417 120 LINE",
"417 201 LINE",
"417 249 LINE",
"385 288 LINE",
"355 326 LINE",
"292 339 LINE",
"225 339 LINE",
"225 400 LINE",
"285 400 LINE",
"343 410 LINE",
"403 474 LINE",
"403 524 LINE",
"403 552 LINE",
"383 602 LINE",
"345 639 LINE",
"293 660 LINE",
"261 660 LINE",
"230 660 LINE",
"171 647 LINE",
"146 632 LINE",
"112 490 LINE",
"62 500 LINE",
"62 670 LINE",
"85 680 LINE",
"139 696 LINE",
"196 708 LINE",
"256 715 LINE",
"285 715 LINE",
"329 715 LINE",
"410 697 LINE",
"472 654 LINE",
"509 584 LINE",
"509 533 LINE",
"509 507 LINE",
"489 457 LINE",
"453 412 LINE",
"403 376 LINE",
"373 367 LINE",
"403 357 LINE",
"459 329 LINE",
"501 288 LINE",
"527 233 LINE"
);
}
);
};
hints = (
{
place = "{370, 138}";
},
{
place = "{383, 143}";
},
{
horizontal = 1;
place = "{-14, 89}";
},
{
horizontal = 1;
place = "{325, 91}";
},
{
horizontal = 1;
place = "{626, 88}";
}
);
layerId = "03739D6D-2A00-4CFA-A48A-FF6A1F8AF183";
paths = (
{
closed = 1;
nodes = (
"526 282 OFFCURVE",
"466 338 OFFCURVE",
"408 368 CURVE",
"466 405 OFFCURVE",
"508 466 OFFCURVE",
"508 525 CURVE SMOOTH",
"508 672 OFFCURVE",
"401 714 OFFCURVE",
"277 714 CURVE SMOOTH",
"199 714 OFFCURVE",
"115 692 OFFCURVE",
"47 666 CURVE",
"47 480 LINE",
"127 464 LINE",
"162 606 LINE",
"187 620 OFFCURVE",
"223 626 OFFCURVE",
"254 626 CURVE SMOOTH",
"324 626 OFFCURVE",
"370 582 OFFCURVE",
"370 518 CURVE SMOOTH",
"370 466 OFFCURVE",
"334 428 OFFCURVE",
"274 416 CURVE",
"201 416 LINE",
"201 325 LINE",
"280 325 LINE",
"351 310 OFFCURVE",
"383 259 OFFCURVE",
"383 208 CURVE SMOOTH",
"383 119 OFFCURVE",
"328 75 OFFCURVE",
"232 75 CURVE SMOOTH",
"200 75 OFFCURVE",
"168 80 OFFCURVE",
"143 94 CURVE",
"109 237 LINE",
"28 222 LINE",
"28 33 LINE",
"99 4 OFFCURVE",
"183 -14 OFFCURVE",
"261 -14 CURVE SMOOTH",
"406 -14 OFFCURVE",
"526 52 OFFCURVE",
"526 208 CURVE SMOOTH"
);
}
);
width = 564;
},
{
background = {
paths = (
{
closed = 1;
nodes = (
"540 199 LINE",
"540 142 LINE",
"498 61 LINE",
"426 9 LINE",
"332 -15 LINE",
"281 -15 LINE",
"220 -15 LINE",
"104 8 LINE",
"55 28 LINE",
"55 204 LINE",
"105 213 LINE",
"139 69 LINE",
"162 54 LINE",
"219 41 LINE",
"250 41 LINE",
"336 41 LINE",
"430 120 LINE",
"430 201 LINE",
"430 249 LINE",
"398 288 LINE",
"368 326 LINE",
"305 339 LINE",
"238 339 LINE",
"238 400 LINE",
"298 400 LINE",
"356 410 LINE",
"416 474 LINE",
"416 524 LINE",
"416 552 LINE",
"396 602 LINE",
"358 639 LINE",
"306 660 LINE",
"274 660 LINE",
"243 660 LINE",
"184 647 LINE",
"159 632 LINE",
"125 490 LINE",
"75 500 LINE",
"75 670 LINE",
"98 680 LINE",
"152 696 LINE",
"209 708 LINE",
"269 715 LINE",
"298 715 LINE",
"342 715 LINE",
"423 697 LINE",
"485 654 LINE",
"522 584 LINE",
"522 533 LINE",
"522 507 LINE",
"502 457 LINE",
"466 412 LINE",
"416 376 LINE",
"386 367 LINE",
"416 357 LINE",
"472 329 LINE",
"514 288 LINE",
"540 233 LINE"
);
}
);
};
hints = (
{
place = "{75, 50}";
},
{
place = "{430, 110}";
},
{
place = "{416, 106}";
},
{
horizontal = 1;
place = "{-15, 56}";
},
{
horizontal = 1;
place = "{340, 60}";
},
{
horizontal = 1;
place = "{660, 55}";
}
);
layerId = UUID0;
paths = (
{
closed = 1;
nodes = (
"540 291 OFFCURVE",
"466 343 OFFCURVE",
"386 367 CURVE",
"466 394 OFFCURVE",
"522 467 OFFCURVE",
"522 535 CURVE SMOOTH",
"522 671 OFFCURVE",
"415 715 OFFCURVE",
"298 715 CURVE SMOOTH",
"219 715 OFFCURVE",
"138 695 OFFCURVE",
"75 670 CURVE",
"75 500 LINE",
"125 490 LINE",
"159 632 LINE",
"191 652 OFFCURVE",
"234 660 OFFCURVE",
"274 660 CURVE SMOOTH",
"360 660 OFFCURVE",
"416 601 OFFCURVE",
"416 526 CURVE SMOOTH",
"416 459 OFFCURVE",
"375 413 OFFCURVE",
"298 400 CURVE",
"238 400 LINE",
"238 340 LINE",
"305 340 LINE",
"389 323 OFFCURVE",
"430 264 OFFCURVE",
"430 200 CURVE SMOOTH",
"430 92 OFFCURVE",
"365 41 OFFCURVE",
"250 41 CURVE SMOOTH",
"210 41 OFFCURVE",
"170 49 OFFCURVE",
"139 69 CURVE",
"105 214 LINE",
"55 204 LINE",
"55 28 LINE",
"119 1 OFFCURVE",
"201 -15 OFFCURVE",
"281 -15 CURVE SMOOTH",
"418 -15 OFFCURVE",
"540 51 OFFCURVE",
"540 200 CURVE SMOOTH"
);
}
);
width = 592;
}
);
unicode = 0033;
},
{
glyphname = four;
lastChange = "2017-11-21 14:35:46 +0000";
layers = (
{
background = {
paths = (
{
closed = 1;
nodes = (
"389 64 LINE",
"389 168 LINE",
"52 168 LINE",
"52 195 LINE",
"442 715 LINE",
"488 715 LINE",
"488 223 LINE",
"585 223 LINE",
"585 168 LINE",
"488 168 LINE",
"488 64 LINE",
"584 45 LINE",
"573 0 LINE",
"280 0 LINE",
"280 35 LINE"
);
},
{
closed = 1;
nodes = (
"389 223 LINE",
"389 551 LINE",
"142 223 LINE"
);
}
);
};
hints = (
{
horizontal = 1;
place = "{0, 243}";
},
{
horizontal = 1;
place = "{159, 84}";
},
{
horizontal = 1;
place = "{715, -20}";
target = down;
type = TopGhost;
}
);
layerId = "03739D6D-2A00-4CFA-A48A-FF6A1F8AF183";
paths = (
{
closed = 1;
nodes = (
"256 66 LINE",
"256 0 LINE",
"570 0 LINE",
"587 77 LINE",
"488 96 LINE",
"488 159 LINE",
"585 159 LINE",
"585 243 LINE",
"488 243 LINE",
"488 715 LINE",
"418 715 LINE",
"40 210 LINE",
"40 159 LINE",
"358 159 LINE",
"358 94 LINE"
);
},
{
closed = 1;
nodes = (
"178 243 LINE",
"244 332 OFFCURVE",
"296 401 OFFCURVE",
"358 483 CURVE",
"358 243 LINE"
);
}
);
width = 622;
},
{
background = {
paths = (
{
closed = 1;
nodes = (
"341 64 LINE",
"341 168 LINE",
"4 168 LINE",
"4 195 LINE",
"394 715 LINE",
"440 715 LINE",
"440 223 LINE",
"537 223 LINE",
"537 168 LINE",
"440 168 LINE",
"440 64 LINE",
"536 45 LINE",
"525 0 LINE",
"232 0 LINE",
"232 35 LINE"
);
},
{
closed = 1;
nodes = (
"341 223 LINE",
"341 551 LINE",
"94 223 LINE"
);
}
);
};
hints = (
{
place = "{340, 100}";
},
{
horizontal = 1;
place = "{0, 35}";
},
{
horizontal = 1;
place = "{168, 55}";
},
{
horizontal = 1;
place = "{715, -20}";
target = down;
type = TopGhost;
}
);
layerId = UUID0;
paths = (
{
closed = 1;
nodes = (
"232 35 LINE",
"232 0 LINE",
"525 0 LINE",
"535 45 LINE",
"440 64 LINE",
"440 168 LINE",
"536 168 LINE",
"536 223 LINE",
"440 223 LINE",
"440 715 LINE",
"393 715 LINE",
"4 195 LINE",
"4 168 LINE",
"340 168 LINE",
"340 64 LINE"
);
},
{
closed = 1;
nodes = (
"93 223 LINE",
"340 551 LINE",
"340 223 LINE"
);
}
);
width = 577;
}
);
unicode = 0034;
},
{
glyphname = five;
lastChange = "2017-11-21 14:35:46 +0000";
layers = (
{
background = {
paths = (
{
closed = 1;
nodes = (
"483 610 LINE",
"169 610 LINE",
"153 410 LINE",
"185 417 LINE",
"251 425 LINE",
"287 425 LINE",
"347 425 LINE",
"438 388 LINE",
"499 328 LINE",
"528 251 LINE",
"528 211 LINE",
"528 151 LINE",
"483 65 LINE",
"408 11 LINE",
"311 -14 LINE",
"256 -14 LINE",
"203 -14 LINE",
"92 8 LINE",
"43 30 LINE",
"43 199 LINE",
"93 209 LINE",
"127 68 LINE",
"153 56 LINE",
"215 41 LINE",
"248 41 LINE",
"281 41 LINE",
"343 59 LINE",
"392 97 LINE",
"419 157 LINE",
"419 199 LINE",
"419 229 LINE",
"398 287 LINE",
"354 332 LINE",
"285 359 LINE",
"238 358 LINE",
"229 358 LINE",
"212 357 LINE",
"203 356 LINE",
"186 354 LINE",
"154 352 LINE",
"139 350 LINE",
"93 350 LINE",
"122 700 LINE",
"447 700 LINE",
"478 753 LINE",
"529 740 LINE"
);
}
);
};
hints = (
{
place = "{89, 84}";
},
{
place = "{378, 150}";
},
{
place = "{89, 97}";
},
{
horizontal = 1;
place = "{-14, 91}";
},
{
horizontal = 1;
place = "{343, 101}";
},
{
horizontal = 1;
place = "{578, 122}";
},
{
horizontal = 1;
place = "{754, -20}";
target = down;
type = TopGhost;
}
);
layerId = "03739D6D-2A00-4CFA-A48A-FF6A1F8AF183";
paths = (
{
closed = 1;
nodes = (
"534 734 LINE",
"451 754 LINE",
"443 742 OFFCURVE",
"430 715 OFFCURVE",
"420 700 CURVE",
"104 700 LINE",
"75 332 LINE",
"143 332 LINE",
"143 332 OFFCURVE",
"204 343 OFFCURVE",
"233 343 CURVE SMOOTH",
"339 345 OFFCURVE",
"379 278 OFFCURVE",
"378 207 CURVE SMOOTH",
"377 114 OFFCURVE",
"317 77 OFFCURVE",
"241 77 CURVE SMOOTH",
"206 77 OFFCURVE",
"174 84 OFFCURVE",
"144 96 CURVE",
"110 239 LINE",
"30 223 LINE",
"30 35 LINE",
"101 3 OFFCURVE",
"179 -14 OFFCURVE",
"250 -14 CURVE SMOOTH",
"400 -14 OFFCURVE",
"528 49 OFFCURVE",
"528 219 CURVE SMOOTH",
"528 329 OFFCURVE",
"445 444 OFFCURVE",
"278 444 CURVE SMOOTH",
"241 444 OFFCURVE",
"206 440 OFFCURVE",
"173 434 CURVE",
"177 490 OFFCURVE",
"182 527 OFFCURVE",
"186 578 CURVE",
"478 578 LINE"
);
}
);
width = 569;
},
{
background = {
paths = (
{
closed = 1;
nodes = (
"483 610 LINE",
"169 610 LINE",
"153 410 LINE",
"185 417 LINE",
"251 425 LINE",
"287 425 LINE",
"347 425 LINE",
"438 388 LINE",
"499 328 LINE",
"528 251 LINE",
"528 211 LINE",
"528 151 LINE",
"483 65 LINE",
"408 11 LINE",
"311 -14 LINE",
"256 -14 LINE",
"203 -14 LINE",
"92 8 LINE",
"43 30 LINE",
"43 199 LINE",
"93 209 LINE",
"127 68 LINE",
"153 56 LINE",
"215 41 LINE",
"248 41 LINE",
"281 41 LINE",
"343 59 LINE",
"392 97 LINE",
"419 157 LINE",
"419 199 LINE",
"419 229 LINE",
"398 287 LINE",
"354 332 LINE",
"285 359 LINE",
"238 358 LINE",
"229 358 LINE",
"212 357 LINE",
"203 356 LINE",
"186 354 LINE",
"154 352 LINE",
"139 350 LINE",
"93 350 LINE",
"122 700 LINE",
"447 700 LINE",
"478 753 LINE",
"529 740 LINE"
);
}
);
};
hints = (
{
place = "{419, 109}";
},
{
horizontal = 1;
place = "{-14, 55}";
},
{
horizontal = 1;
place = "{358, 67}";
},
{
horizontal = 1;
place = "{611, 90}";
}
);
layerId = UUID0;
paths = (
{
closed = 1;
nodes = (
"529 740 LINE",
"477 753 LINE",
"447 701 LINE",
"121 701 LINE",
"93 350 LINE",
"139 350 LINE",
"159 353 OFFCURVE",
"179 353 OFFCURVE",
"202 356 CURVE SMOOTH",
"215 357 OFFCURVE",
"226 358 OFFCURVE",
"238 358 CURVE SMOOTH",
"364 361 OFFCURVE",
"419 279 OFFCURVE",
"419 199 CURVE SMOOTH",
"419 87 OFFCURVE",
"338 41 OFFCURVE",
"247 41 CURVE SMOOTH",
"204 41 OFFCURVE",
"162 52 OFFCURVE",
"127 68 CURVE",
"93 209 LINE",
"43 199 LINE",
"43 30 LINE",
"108 1 OFFCURVE",
"184 -14 OFFCURVE",
"256 -14 CURVE SMOOTH",
"399 -14 OFFCURVE",
"528 50 OFFCURVE",
"528 211 CURVE SMOOTH",
"528 318 OFFCURVE",
"449 425 OFFCURVE",
"286 425 CURVE SMOOTH",
"239 425 OFFCURVE",
"194 419 OFFCURVE",
"153 410 CURVE",
"169 611 LINE",
"483 611 LINE"
);
}
);
width = 575;
}
);
unicode = 0035;
},
{
glyphname = six;
lastChange = "2017-11-21 14:35:46 +0000";
layers = (
{
background = {
paths = (
{
closed = 1;
nodes = (
"443 208 LINE",
"443 246 LINE",
"419 302 LINE",
"381 340 LINE",
"329 360 LINE",
"299 360 LINE",
"263 360 LINE",
"189 328 LINE",
"160 299 LINE",
"160 241 LINE",
"179 145 LINE",
"217 78 LINE",
"274 40 LINE",
"313 40 LINE",
"377 40 LINE",
"443 134 LINE"
);
},
{
closed = 1;
nodes = (
"165 348 LINE",
"203 385 LINE",
"296 419 LINE",
"342 419 LINE",
"383 419 LINE",
"458 395 LINE",
"518 345 LINE",
"553 269 LINE",
"553 218 LINE",
"553 170 LINE",
"517 86 LINE",
"454 22 LINE",
"366 -15 LINE",
"314 -15 LINE",
"189 -15 LINE",
"50 140 LINE",
"50 284 LINE",
"50 393 LINE",
"126 555 LINE",
"245 664 LINE",
"387 714 LINE",
"453 713 LINE",
"471 668 LINE",
"417 665 LINE",
"309 625 LINE",
"221 549 LINE",
"165 431 LINE"
);
}
);
};
hints = (
{
place = "{35, 143}";
},
{
place = "{409, 143}";
},
{
horizontal = 1;
place = "{-13, 88}";
},
{
horizontal = 1;
place = "{341, 93}";
}
);
layerId = "03739D6D-2A00-4CFA-A48A-FF6A1F8AF183";
paths = (
{
closed = 1;
nodes = (
"409 135 OFFCURVE",
"373 73 OFFCURVE",
"305 75 CURVE SMOOTH",
"217 77 OFFCURVE",
"175 167 OFFCURVE",
"178 295 CURVE",
"212 324 OFFCURVE",
"252 341 OFFCURVE",
"291 341 CURVE SMOOTH",
"355 341 OFFCURVE",
"409 299 OFFCURVE",
"409 218 CURVE SMOOTH"
);
},
{
closed = 1;
nodes = (
"450 712 LINE",
"270 715 OFFCURVE",
"35 574 OFFCURVE",
"35 289 CURVE SMOOTH",
"35 96 OFFCURVE",
"132 -13 OFFCURVE",
"306 -13 CURVE SMOOTH",
"455 -13 OFFCURVE",
"552 83 OFFCURVE",
"552 226 CURVE SMOOTH",
"552 369 OFFCURVE",
"444 434 OFFCURVE",
"332 434 CURVE SMOOTH",
"283 434 OFFCURVE",
"231 421 OFFCURVE",
"186 391 CURVE",
"207 555 OFFCURVE",
"355 617 OFFCURVE",
"482 628 CURVE"
);
}
);
width = 584;
},
{
background = {
paths = (
{
closed = 1;
nodes = (
"443 208 LINE",
"443 246 LINE",
"419 302 LINE",
"381 340 LINE",
"329 360 LINE",
"299 360 LINE",
"263 360 LINE",
"189 328 LINE",
"160 299 LINE",
"160 241 LINE",
"179 145 LINE",
"217 78 LINE",
"274 40 LINE",
"313 40 LINE",
"377 40 LINE",
"443 134 LINE"
);
},
{
closed = 1;
nodes = (
"165 348 LINE",
"203 385 LINE",
"296 419 LINE",
"342 419 LINE",
"383 419 LINE",
"458 395 LINE",
"518 345 LINE",
"553 269 LINE",
"553 218 LINE",
"553 170 LINE",
"517 86 LINE",
"454 22 LINE",
"366 -15 LINE",
"314 -15 LINE",
"189 -15 LINE",
"50 140 LINE",
"50 284 LINE",
"50 393 LINE",
"126 555 LINE",
"245 664 LINE",
"387 714 LINE",
"453 713 LINE",
"471 668 LINE",
"417 665 LINE",
"309 625 LINE",
"221 549 LINE",
"165 431 LINE"
);
}
);
};
hints = (
{
place = "{50, 110}";
},
{
place = "{443, 110}";
},
{
horizontal = 1;
place = "{-14, 54}";
},
{
horizontal = 1;
place = "{360, 59}";
},
{
horizontal = 1;
place = "{668, 45}";
}
);
layerId = UUID0;
paths = (
{
closed = 1;
nodes = (
"443 111 OFFCURVE",
"399 40 OFFCURVE",
"314 40 CURVE SMOOTH",
"210 40 OFFCURVE",
"160 145 OFFCURVE",
"160 300 CURVE",
"200 339 OFFCURVE",
"251 360 OFFCURVE",
"299 360 CURVE SMOOTH",
"378 360 OFFCURVE",
"443 309 OFFCURVE",
"443 210 CURVE SMOOTH"
);
},
{
closed = 1;
nodes = (
"165 569 OFFCURVE",
"330 657 OFFCURVE",
"471 668 CURVE",
"453 713 LINE",
"278 716 OFFCURVE",
"50 574 OFFCURVE",
"50 285 CURVE SMOOTH",
"50 94 OFFCURVE",
"144 -14 OFFCURVE",
"315 -14 CURVE SMOOTH",
"452 -14 OFFCURVE",
"553 95 OFFCURVE",
"553 219 CURVE SMOOTH",
"553 356 OFFCURVE",
"451 419 OFFCURVE",
"342 419 CURVE SMOOTH",
"282 419 OFFCURVE",
"216 397 OFFCURVE",
"165 349 CURVE"
);
}
);
width = 584;
}
);
unicode = 0036;
},
{
glyphname = seven;
lastChange = "2017-11-21 14:35:46 +0000";
layers = (
{
background = {
paths = (
{
closed = 1;
nodes = (
"488 700 LINE",
"488 651 LINE",
"449 567 LINE",
"377 405 LINE",
"308 244 LINE",
"242 83 LINE",
"210 0 LINE",
"95 0 LINE",
"132 79 LINE",
"205 230 LINE",
"282 380 LINE",
"363 532 LINE",
"407 610 LINE",
"137 610 LINE",
"101 486 LINE",
"50 498 LINE",
"50 700 LINE"
);
}
);
};
hints = (
{
horizontal = 1;
place = "{578, 122}";
},
{
horizontal = 1;
place = "{0, 21}";
target = up;
type = BottomGhost;
}
);
layerId = "03739D6D-2A00-4CFA-A48A-FF6A1F8AF183";
paths = (
{
closed = 1;
nodes = (
"36 700 LINE",
"36 477 LINE",
"109 460 LINE",
"144 578 LINE",
"361 578 LINE",
"252 380 OFFCURVE",
"160 198 OFFCURVE",
"68 0 CURVE",
"219 0 LINE",
"303 209 OFFCURVE",
"390 419 OFFCURVE",
"488 631 CURVE",
"488 700 LINE"
);
}
);
width = 512;
},
{
background = {
paths = (
{
closed = 1;
nodes = (
"476 700 LINE",
"476 651 LINE",
"437 567 LINE",
"365 405 LINE",
"296 244 LINE",
"230 83 LINE",
"198 0 LINE",
"83 0 LINE",
"120 79 LINE",
"193 230 LINE",
"270 380 LINE",
"351 532 LINE",
"395 610 LINE",
"125 610 LINE",
"89 486 LINE",
"38 498 LINE",
"38 700 LINE"
);
}
);
};
hints = (
{
place = "{38, 52}";
},
{
horizontal = 1;
place = "{0, 21}";
target = up;
type = BottomGhost;
},
{
horizontal = 1;
place = "{610, 90}";
}
);
layerId = UUID0;
paths = (
{
closed = 1;
nodes = (
"38 700 LINE",
"38 497 LINE",
"90 486 LINE",
"125 610 LINE",
"395 610 LINE",
"279 401 OFFCURVE",
"180 209 OFFCURVE",
"83 0 CURVE",
"198 0 LINE",
"286 221 OFFCURVE",
"372 427 OFFCURVE",
"476 651 CURVE",
"476 700 LINE"
);
}
);
width = 485;
}
);
unicode = 0037;
},
{
glyphname = eight;
lastChange = "2017-11-21 14:35:46 +0000";
layers = (
{
background = {
paths = (
{
closed = 1;
nodes = (
"537 188 LINE",
"537 136 LINE",
"494 60 LINE",
"423 10 LINE",
"333 -15 LINE",
"287 -15 LINE",
"242 -15 LINE",
"155 5 LINE",
"88 49 LINE",
"47 115 LINE",
"47 162 LINE",
"47 189 LINE",
"62 244 LINE",
"94 295 LINE",
"150 342 LINE",
"191 361 LINE",
"141 387 LINE",
"79 480 LINE",
"79 532 LINE",
"79 566 LINE",
"109 632 LINE",
"167 684 LINE",
"250 715 LINE",
"302 715 LINE",
"343 715 LINE",
"417 694 LINE",
"472 653 LINE",
"504 591 LINE",
"504 550 LINE",
"504 498 LINE",
"451 406 LINE",
"383 372 LINE",
"408 359 LINE",
"463 326 LINE",
"508 282 LINE",
"537 225 LINE"
);
},
{
closed = 1;
nodes = (
"433 158 LINE",
"433 197 LINE",
"404 248 LINE",
"354 286 LINE",
"284 317 LINE",
"245 335 LINE",
"227 326 LINE",
"193 294 LINE",
"168 253 LINE",
"152 204 LINE",
"152 177 LINE",
"152 141 LINE",
"176 89 LINE",
"216 56 LINE",
"267 41 LINE",
"293 41 LINE",
"319 41 LINE",
"370 56 LINE",
"409 86 LINE",
"433 130 LINE"
);
},
{
closed = 1;
nodes = (
"182 549 LINE",
"182 522 LINE",
"202 469 LINE",
"232 449 LINE",
"246 440 LINE",
"303 408 LINE",
"331 396 LINE",
"364 427 LINE",
"399 499 LINE",
"399 552 LINE",
"399 606 LINE",
"338 659 LINE",
"294 659 LINE",
"250 659 LINE",
"182 603 LINE"
);
}
);
};
hints = (
{
place = "{33, 135}";
},
{
place = "{64, 131}";
},
{
place = "{370, 133}";
},
{
place = "{402, 136}";
},
{
horizontal = 1;
place = "{-15, 89}";
},
{
horizontal = 1;
place = "{625, 90}";
}
);
layerId = "03739D6D-2A00-4CFA-A48A-FF6A1F8AF183";
paths = (
{
closed = 1;
nodes = (
"538 286 OFFCURVE",
"463 338 OFFCURVE",
"401 368 CURVE",
"473 419 OFFCURVE",
"502 475 OFFCURVE",
"503 539 CURVE SMOOTH",
"504 655 OFFCURVE",
"421 715 OFFCURVE",
"294 715 CURVE SMOOTH",
"148 715 OFFCURVE",
"64 619 OFFCURVE",
"64 522 CURVE SMOOTH",
"64 462 OFFCURVE",
"106 403 OFFCURVE",
"162 366 CURVE",
"68 315 OFFCURVE",
"33 242 OFFCURVE",
"33 172 CURVE SMOOTH",
"33 42 OFFCURVE",
"155 -15 OFFCURVE",
"279 -15 CURVE SMOOTH",
"415 -15 OFFCURVE",
"538 51 OFFCURVE",
"538 194 CURVE SMOOTH"
);
},
{
closed = 1;
nodes = (
"402 105 OFFCURVE",
"342 74 OFFCURVE",
"285 74 CURVE SMOOTH",
"228 74 OFFCURVE",
"168 108 OFFCURVE",
"168 186 CURVE SMOOTH",
"168 242 OFFCURVE",
"204 292 OFFCURVE",
"241 315 CURVE",
"261 306 LINE",
"260 306 LINE",
"340 271 OFFCURVE",
"402 244 OFFCURVE",
"402 168 CURVE SMOOTH"
);
},
{
closed = 1;
nodes = (
"195 594 OFFCURVE",
"240 625 OFFCURVE",
"286 625 CURVE SMOOTH",
"331 625 OFFCURVE",
"370 597 OFFCURVE",
"370 541 CURVE SMOOTH",
"370 488 OFFCURVE",
"342 444 OFFCURVE",
"311 412 CURVE",
"277 427 OFFCURVE",
"274 431 OFFCURVE",
"242 449 CURVE",
"197 480 OFFCURVE",
"195 523 OFFCURVE",
"195 538 CURVE SMOOTH"
);
}
);
width = 571;
},
{
background = {
paths = (
{
closed = 1;
nodes = (
"537 188 LINE",
"537 136 LINE",
"494 60 LINE",
"423 10 LINE",
"333 -15 LINE",
"287 -15 LINE",
"242 -15 LINE",
"155 5 LINE",
"88 49 LINE",
"47 115 LINE",
"47 162 LINE",
"47 189 LINE",
"62 244 LINE",
"94 295 LINE",
"150 342 LINE",
"191 361 LINE",
"141 387 LINE",
"79 480 LINE",
"79 532 LINE",
"79 566 LINE",
"109 632 LINE",
"167 684 LINE",
"250 715 LINE",
"302 715 LINE",
"343 715 LINE",
"417 694 LINE",
"472 653 LINE",
"504 591 LINE",
"504 550 LINE",
"504 498 LINE",
"451 406 LINE",
"383 372 LINE",
"408 359 LINE",
"463 326 LINE",
"508 282 LINE",
"537 225 LINE"
);
},
{
closed = 1;
nodes = (
"433 158 LINE",
"433 197 LINE",
"404 248 LINE",
"354 286 LINE",
"284 317 LINE",
"245 335 LINE",
"227 326 LINE",
"193 294 LINE",
"168 253 LINE",
"152 204 LINE",
"152 177 LINE",
"152 141 LINE",
"176 89 LINE",
"216 56 LINE",
"267 41 LINE",
"293 41 LINE",
"319 41 LINE",
"370 56 LINE",
"409 86 LINE",
"433 130 LINE"
);
},
{
closed = 1;
nodes = (
"182 549 LINE",
"182 522 LINE",
"202 469 LINE",
"232 449 LINE",
"246 440 LINE",
"303 408 LINE",
"331 396 LINE",
"364 427 LINE",
"399 499 LINE",
"399 552 LINE",
"399 606 LINE",
"338 659 LINE",
"294 659 LINE",
"250 659 LINE",
"182 603 LINE"
);
}
);
};
hints = (
{
place = "{47, 105}";
},
{
place = "{433, 104}";
},
{
place = "{79, 103}";
},
{
place = "{399, 105}";
},
{
horizontal = 1;
place = "{-15, 56}";
},
{
horizontal = 1;
place = "{659, 56}";
}
);
layerId = UUID0;
paths = (
{
closed = 1;
nodes = (
"537 287 OFFCURVE",
"451 337 OFFCURVE",
"383 372 CURVE",
"474 417 OFFCURVE",
"504 481 OFFCURVE",
"504 550 CURVE SMOOTH",
"504 659 OFFCURVE",
"412 715 OFFCURVE",
"302 715 CURVE SMOOTH",
"161 715 OFFCURVE",
"79 624 OFFCURVE",
"79 532 CURVE SMOOTH",
"79 463 OFFCURVE",
"124 396 OFFCURVE",
"191 361 CURVE",
"81 310 OFFCURVE",
"47 235 OFFCURVE",
"47 162 CURVE SMOOTH",
"47 38 OFFCURVE",
"166 -15 OFFCURVE",
"287 -15 CURVE SMOOTH",
"411 -15 OFFCURVE",
"537 50 OFFCURVE",
"537 188 CURVE SMOOTH"
);
},
{
closed = 1;
nodes = (
"433 82 OFFCURVE",
"363 41 OFFCURVE",
"293 41 CURVE SMOOTH",
"223 41 OFFCURVE",
"152 80 OFFCURVE",
"152 177 CURVE SMOOTH",
"152 248 OFFCURVE",
"197 311 OFFCURVE",
"245 335 CURVE",
"350 287 OFFCURVE",
"433 261 OFFCURVE",
"433 158 CURVE SMOOTH"
);
},
{
closed = 1;
nodes = (
"182 621 OFFCURVE",
"234 659 OFFCURVE",
"294 659 CURVE SMOOTH",
"353 659 OFFCURVE",
"399 624 OFFCURVE",
"399 552 CURVE SMOOTH",
"399 481 OFFCURVE",
"375 437 OFFCURVE",
"331 396 CURVE",
"294 412 OFFCURVE",
"251 437 OFFCURVE",
"232 449 CURVE SMOOTH",
"192 476 OFFCURVE",
"182 513 OFFCURVE",
"182 549 CURVE SMOOTH"
);
}
);
width = 584;
}
);
unicode = 0038;
},
{
glyphname = nine;
lastChange = "2017-11-21 14:35:46 +0000";
layers = (
{
background = {
paths = (
{
closed = 1;
nodes = (
"141 491 LINE",
"141 454 LINE",
"165 397 LINE",
"203 360 LINE",
"255 340 LINE",
"285 340 LINE",
"321 340 LINE",
"395 372 LINE",
"424 401 LINE",
"424 459 LINE",
"405 555 LINE",
"367 622 LINE",
"310 660 LINE",
"271 660 LINE",
"207 660 LINE",
"141 566 LINE"
);
},
{
closed = 1;
nodes = (
"419 352 LINE",
"381 315 LINE",
"288 281 LINE",
"242 281 LINE",
"201 281 LINE",
"125 305 LINE",
"66 354 LINE",
"31 431 LINE",
"31 482 LINE",
"31 530 LINE",
"67 613 LINE",
"130 677 LINE",
"218 714 LINE",
"270 714 LINE",
"395 714 LINE",
"534 560 LINE",
"534 416 LINE",
"534 307 LINE",
"458 145 LINE",
"339 36 LINE",
"197 -15 LINE",
"131 -14 LINE",
"113 31 LINE",
"167 35 LINE",
"275 74 LINE",
"363 151 LINE",
"419 269 LINE"
);
}
);
};
hints = (
{
place = "{18, 142}";
},
{
place = "{390, 144}";
},
{
horizontal = 1;
place = "{266, 93}";
},
{
horizontal = 1;
place = "{624, 89}";
},
{
horizontal = 1;
place = "{-17, 21}";
target = up;
type = BottomGhost;
}
);
layerId = "03739D6D-2A00-4CFA-A48A-FF6A1F8AF183";
paths = (
{
closed = 1;
nodes = (
"160 565 OFFCURVE",
"195 624 OFFCURVE",
"263 624 CURVE SMOOTH",
"347 624 OFFCURVE",
"389 536 OFFCURVE",
"390 405 CURVE",
"357 376 OFFCURVE",
"316 359 OFFCURVE",
"277 359 CURVE SMOOTH",
"213 359 OFFCURVE",
"160 401 OFFCURVE",
"160 482 CURVE SMOOTH"
);
},
{
closed = 1;
nodes = (
"118 -17 LINE",
"296 -16 OFFCURVE",
"534 115 OFFCURVE",
"534 411 CURVE SMOOTH",
"534 608 OFFCURVE",
"438 713 OFFCURVE",
"262 713 CURVE SMOOTH",
"121 713 OFFCURVE",
"18 602 OFFCURVE",
"18 474 CURVE SMOOTH",
"18 331 OFFCURVE",
"123 266 OFFCURVE",
"237 266 CURVE SMOOTH",
"285 266 OFFCURVE",
"337 279 OFFCURVE",
"382 308 CURVE",
"360 144 OFFCURVE",
"214 74 OFFCURVE",
"87 63 CURVE"
);
}
);
width = 559;
},
{
background = {
paths = (
{
closed = 1;
nodes = (
"141 491 LINE",
"141 454 LINE",
"165 397 LINE",
"203 360 LINE",
"255 340 LINE",
"285 340 LINE",
"321 340 LINE",
"395 372 LINE",
"424 401 LINE",
"424 459 LINE",
"405 555 LINE",
"367 622 LINE",
"310 660 LINE",
"271 660 LINE",
"207 660 LINE",
"141 566 LINE"
);
},
{
closed = 1;
nodes = (
"419 352 LINE",
"381 315 LINE",
"288 281 LINE",
"242 281 LINE",
"201 281 LINE",
"125 305 LINE",
"66 354 LINE",
"31 431 LINE",
"31 482 LINE",
"31 530 LINE",
"67 613 LINE",
"130 677 LINE",
"218 714 LINE",
"270 714 LINE",
"395 714 LINE",
"534 560 LINE",
"534 416 LINE",
"534 307 LINE",
"458 145 LINE",
"339 36 LINE",
"197 -15 LINE",
"131 -14 LINE",
"113 31 LINE",
"167 35 LINE",
"275 74 LINE",
"363 151 LINE",
"419 269 LINE"
);
}
);
};
hints = (
{
place = "{31, 110}";
},
{
place = "{424, 110}";
},
{
horizontal = 1;
place = "{-14, 45}";
},
{
horizontal = 1;
place = "{281, 59}";
},
{
horizontal = 1;
place = "{660, 54}";
}
);
layerId = UUID0;
paths = (
{
closed = 1;
nodes = (
"141 589 OFFCURVE",
"185 660 OFFCURVE",
"270 660 CURVE SMOOTH",
"374 660 OFFCURVE",
"424 555 OFFCURVE",
"424 400 CURVE",
"384 361 OFFCURVE",
"333 340 OFFCURVE",
"285 340 CURVE SMOOTH",
"206 340 OFFCURVE",
"141 391 OFFCURVE",
"141 490 CURVE SMOOTH"
);
},
{
closed = 1;
nodes = (
"419 131 OFFCURVE",
"254 42 OFFCURVE",
"113 31 CURVE",
"131 -14 LINE",
"306 -17 OFFCURVE",
"534 126 OFFCURVE",
"534 415 CURVE SMOOTH",
"534 606 OFFCURVE",
"436 714 OFFCURVE",
"269 714 CURVE SMOOTH",
"132 714 OFFCURVE",
"31 605 OFFCURVE",
"31 481 CURVE SMOOTH",
"31 344 OFFCURVE",
"132 281 OFFCURVE",
"242 281 CURVE SMOOTH",
"302 281 OFFCURVE",
"368 303 OFFCURVE",
"419 351 CURVE"
);
}
);
width = 584;
}
);
unicode = 0039;
},
{
glyphname = colon;
lastChange = "2017-11-21 14:35:46 +0000";
layers = (
{
background = {
paths = (
{
closed = 1;
nodes = (
"62 55 LINE",
"87 102 LINE",
"135 128 LINE",
"182 103 LINE",
"207 57 LINE",
"180 10 LINE",
"132 -16 LINE",
"85 8 LINE"
);
},
{
closed = 1;
nodes = (
"62 463 LINE",
"87 510 LINE",
"135 536 LINE",
"182 511 LINE",
"207 465 LINE",
"180 418 LINE",
"132 392 LINE",
"85 416 LINE"
);
}
);
};
hints = (
{
horizontal = 1;
place = "{-16, 21}";
target = up;
type = BottomGhost;
},
{
horizontal = 1;
place = "{562, -20}";
target = down;
type = TopGhost;
}
);
layerId = "03739D6D-2A00-4CFA-A48A-FF6A1F8AF183";
paths = (
{
closed = 1;
nodes = (
"69 34 OFFCURVE",
"100 4 OFFCURVE",
"139 -16 CURVE",
"177 5 OFFCURVE",
"209 36 OFFCURVE",
"231 75 CURVE",
"210 115 OFFCURVE",
"181 143 OFFCURVE",
"142 164 CURVE",
"102 143 OFFCURVE",
"70 112 OFFCURVE",
"49 73 CURVE"
);
},
{
closed = 1;
nodes = (
"69 432 OFFCURVE",
"100 402 OFFCURVE",
"139 382 CURVE",
"177 403 OFFCURVE",
"209 434 OFFCURVE",
"231 473 CURVE",
"210 513 OFFCURVE",
"181 541 OFFCURVE",
"142 562 CURVE",
"102 541 OFFCURVE",
"70 510 OFFCURVE",
"49 471 CURVE"
);
}
);
width = 268;
},
{
background = {
paths = (
{
closed = 1;
nodes = (
"62 55 LINE",
"87 102 LINE",
"135 128 LINE",
"182 103 LINE",
"207 57 LINE",
"180 10 LINE",
"132 -16 LINE",
"85 8 LINE"
);
},
{
closed = 1;
nodes = (
"62 463 LINE",
"87 510 LINE",
"135 536 LINE",
"182 511 LINE",
"207 465 LINE",
"180 418 LINE",
"132 392 LINE",
"85 416 LINE"
);
}
);
};
hints = (
{
place = "{62, 145}";
},
{
horizontal = 1;
place = "{-16, 553}";
}
);
layerId = UUID0;
paths = (
{
closed = 1;
nodes = (
"78 24 OFFCURVE",
"102 0 OFFCURVE",
"133 -16 CURVE",
"164 1 OFFCURVE",
"189 26 OFFCURVE",
"207 57 CURVE",
"190 88 OFFCURVE",
"167 111 OFFCURVE",
"136 128 CURVE",
"104 111 OFFCURVE",
"79 86 OFFCURVE",
"62 55 CURVE"
);
},
{
closed = 1;
nodes = (
"78 433 OFFCURVE",
"102 409 OFFCURVE",
"133 393 CURVE",
"164 410 OFFCURVE",
"189 435 OFFCURVE",
"207 466 CURVE",
"190 497 OFFCURVE",
"167 520 OFFCURVE",
"136 537 CURVE",
"104 520 OFFCURVE",
"79 495 OFFCURVE",
"62 464 CURVE"
);
}
);
width = 268;
}
);
unicode = 003A;
},
{
glyphname = semicolon;
lastChange = "2017-11-21 14:35:46 +0000";
layers = (
{
background = {
paths = (
{
closed = 1;
nodes = (
"62 463 LINE",
"88 510 LINE",
"136 536 LINE",
"182 511 LINE",
"207 465 LINE",
"180 418 LINE",
"133 392 LINE",
"86 416 LINE"
);
},
{
closed = 1;
nodes = (
"207 51 LINE",
"213 26 LINE",
"202 -44 LINE",
"173 -112 LINE",
"130 -166 LINE",
"104 -175 LINE",
"84 -150 LINE",
"102 -138 LINE",
"124 -106 LINE",
"135 -70 LINE",
"136 -36 LINE",
"133 -22 LINE",
"86 2 LINE",
"62 49 LINE",
"88 96 LINE",
"136 122 LINE",
"182 97 LINE"
);
}
);
};
hints = (
{
horizontal = 1;
place = "{562, -20}";
target = down;
type = TopGhost;
},
{
horizontal = 1;
place = "{-181, 21}";
target = up;
type = BottomGhost;
}
);
layerId = "03739D6D-2A00-4CFA-A48A-FF6A1F8AF183";
paths = (
{
closed = 1;
nodes = (
"69 432 OFFCURVE",
"100 402 OFFCURVE",
"139 382 CURVE",
"177 403 OFFCURVE",
"209 434 OFFCURVE",
"231 473 CURVE",
"210 513 OFFCURVE",
"181 541 OFFCURVE",
"142 562 CURVE",
"102 541 OFFCURVE",
"70 510 OFFCURVE",
"49 471 CURVE"
);
},
{
closed = 1;
nodes = (
"207 116 OFFCURVE",
"177 143 OFFCURVE",
"139 164 CURVE",
"89 137 OFFCURVE",
"66 107 OFFCURVE",
"46 73 CURVE",
"65 35 OFFCURVE",
"97 4 OFFCURVE",
"136 -16 CURVE",
"145 -61 OFFCURVE",
"125 -116 OFFCURVE",
"77 -151 CURVE",
"101 -181 LINE",
"194 -138 OFFCURVE",
"247 -6 OFFCURVE",
"228 75 CURVE"
);
}
);
width = 271;
},
{
background = {
paths = (
{
closed = 1;
nodes = (
"62 463 LINE",
"88 510 LINE",
"136 536 LINE",
"182 511 LINE",
"207 465 LINE",
"180 418 LINE",
"133 392 LINE",
"86 416 LINE"
);
},
{
closed = 1;
nodes = (
"207 51 LINE",
"213 26 LINE",
"202 -44 LINE",
"173 -112 LINE",
"130 -166 LINE",
"104 -175 LINE",
"84 -150 LINE",
"102 -138 LINE",
"124 -106 LINE",
"135 -70 LINE",
"136 -36 LINE",
"133 -22 LINE",
"86 2 LINE",
"62 49 LINE",
"88 96 LINE",
"136 122 LINE",
"182 97 LINE"
);
}
);
};
hints = (
{
place = "{62, 148}";
},
{
horizontal = 1;
place = "{-175, 711}";
}
);
layerId = UUID0;
paths = (
{
closed = 1;
nodes = (
"78 432 OFFCURVE",
"102 408 OFFCURVE",
"133 392 CURVE",
"164 409 OFFCURVE",
"189 434 OFFCURVE",
"207 465 CURVE",
"190 496 OFFCURVE",
"167 519 OFFCURVE",
"136 536 CURVE",
"104 519 OFFCURVE",
"79 494 OFFCURVE",
"62 463 CURVE"
);
},
{
closed = 1;
nodes = (
"190 82 OFFCURVE",
"167 105 OFFCURVE",
"136 122 CURVE",
"104 105 OFFCURVE",
"79 80 OFFCURVE",
"62 49 CURVE",
"78 18 OFFCURVE",
"102 -6 OFFCURVE",
"133 -22 CURVE",
"141 -59 OFFCURVE",
"132 -118 OFFCURVE",
"84 -150 CURVE",
"104 -175 LINE",
"173 -151 OFFCURVE",
"223 -16 OFFCURVE",
"207 51 CURVE"
);
}
);
width = 271;
}
);
unicode = 003B;
},
{
glyphname = less;
lastChange = "2017-11-21 14:35:46 +0000";
layers = (
{
background = {
paths = (
{
closed = 1;
nodes = (
"30 332 LINE",
"639 579 LINE",
"639 501 LINE",
"133 301 LINE",
"639 101 LINE",
"639 23 LINE",
"30 270 LINE"
);
}
);
};
hints = (
{
horizontal = 1;
place = "{23, 21}";
target = up;
type = BottomGhost;
},
{
horizontal = 1;
place = "{579, -20}";
target = down;
type = TopGhost;
}
);
layerId = "03739D6D-2A00-4CFA-A48A-FF6A1F8AF183";
paths = (
{
closed = 1;
nodes = (
"30 270 LINE",
"639 23 LINE",
"639 141 LINE",
"193 301 LINE",
"639 461 LINE",
"639 579 LINE",
"30 332 LINE"
);
}
);
width = 680;
},
{
background = {
paths = (
{
closed = 1;
nodes = (
"30 332 LINE",
"639 579 LINE",
"639 501 LINE",
"133 301 LINE",
"639 101 LINE",
"639 23 LINE",
"30 270 LINE"
);
}
);
};
hints = (
{
place = "{30, 609}";
},
{
horizontal = 1;
place = "{23, 556}";
}
);
layerId = UUID0;
paths = (
{
closed = 1;
nodes = (
"30 270 LINE",
"639 23 LINE",
"639 101 LINE",
"133 301 LINE",
"639 501 LINE",
"639 579 LINE",
"30 332 LINE"
);
}
);
width = 694;
}
);
unicode = 003C;
},
{
glyphname = equal;
lastChange = "2017-11-21 14:35:46 +0000";
layers = (
{
background = {
paths = (
{
closed = 1;
nodes = (
"70 432 LINE",
"664 432 LINE",
"664 361 LINE",
"70 361 LINE"
);
},
{
closed = 1;
nodes = (
"70 244 LINE",
"664 244 LINE",
"664 173 LINE",
"70 173 LINE"
);
}
);
};
hints = (
{
horizontal = 1;
place = "{143, 101}";
},
{
horizontal = 1;
place = "{361, 101}";
}
);
layerId = "03739D6D-2A00-4CFA-A48A-FF6A1F8AF183";
paths = (
{
closed = 1;
nodes = (
"70 361 LINE",
"664 361 LINE",
"664 462 LINE",
"70 462 LINE"
);
},
{
closed = 1;
nodes = (
"70 143 LINE",
"664 143 LINE",
"664 244 LINE",
"70 244 LINE"
);
}
);
width = 734;
},
{
background = {
paths = (
{
closed = 1;
nodes = (
"70 432 LINE",
"664 432 LINE",
"664 361 LINE",
"70 361 LINE"
);
},
{
closed = 1;
nodes = (
"70 244 LINE",
"664 244 LINE",
"664 173 LINE",
"70 173 LINE"
);
}
);
};
hints = (
{
place = "{70, 594}";
},
{
horizontal = 1;
place = "{173, 71}";
},
{
horizontal = 1;
place = "{361, 71}";
}
);
layerId = UUID0;
paths = (
{
closed = 1;
nodes = (
"70 361 LINE",
"664 361 LINE",
"664 432 LINE",
"70 432 LINE"
);
},
{
closed = 1;
nodes = (
"70 173 LINE",
"664 173 LINE",
"664 244 LINE",
"70 244 LINE"
);
}
);
width = 734;
}
);
unicode = 003D;
},
{
glyphname = greater;
lastChange = "2017-11-21 14:35:46 +0000";
layers = (
{
background = {
paths = (
{
closed = 1;
nodes = (
"649 270 LINE",
"40 23 LINE",
"40 101 LINE",
"546 301 LINE",
"40 501 LINE",
"40 579 LINE",
"649 332 LINE"
);
}
);
};
hints = (
{
horizontal = 1;
place = "{579, -20}";
target = down;
type = TopGhost;
},
{
horizontal = 1;
place = "{23, 21}";
target = up;
type = BottomGhost;
}
);
layerId = "03739D6D-2A00-4CFA-A48A-FF6A1F8AF183";
paths = (
{
closed = 1;
nodes = (
"649 332 LINE",
"40 579 LINE",
"40 461 LINE",
"506 301 LINE",
"40 141 LINE",
"40 23 LINE",
"649 270 LINE"
);
}
);
width = 679;
},
{
background = {
paths = (
{
closed = 1;
nodes = (
"664 270 LINE",
"55 23 LINE",
"55 101 LINE",
"561 301 LINE",
"55 501 LINE",
"55 579 LINE",
"664 332 LINE"
);
}
);
};
hints = (
{
place = "{55, 609}";
},
{
horizontal = 1;
place = "{23, 556}";
}
);
layerId = UUID0;
paths = (
{
closed = 1;
nodes = (
"664 332 LINE",
"55 579 LINE",
"55 501 LINE",
"561 301 LINE",
"55 101 LINE",
"55 23 LINE",
"664 270 LINE"
);
}
);
width = 694;
}
);
unicode = 003E;
},
{
glyphname = question;
lastChange = "2017-11-21 14:35:46 +0000";
layers = (
{
background = {
paths = (
{
closed = 1;
nodes = (
"154 55 LINE",
"180 102 LINE",
"228 128 LINE",
"274 103 LINE",
"299 57 LINE",
"272 10 LINE",
"225 -16 LINE",
"178 8 LINE"
);
},
{
closed = 1;
nodes = (
"123 536 LINE",
"74 529 LINE",
"43 669 LINE",
"80 689 LINE",
"173 712 LINE",
"221 712 LINE",
"255 712 LINE",
"318 696 LINE",
"366 663 LINE",
"395 612 LINE",
"395 576 LINE",
"395 533 LINE",
"367 473 LINE",
"326 429 LINE",
"277 398 LINE",
"236 369 LINE",
"208 338 LINE",
"208 317 LINE",
"208 297 LINE",
"227 268 LINE",
"252 268 LINE",
"278 268 LINE",
"291 304 LINE",
"327 276 LINE",
"321 259 LINE",
"302 236 LINE",
"281 221 LINE",
"262 214 LINE",
"255 213 LINE",
"203 206 LINE",
"134 264 LINE",
"134 324 LINE",
"134 357 LINE",
"185 413 LINE",
"246 467 LINE",
"297 525 LINE",
"297 560 LINE",
"297 608 LINE",
"236 656 LINE",
"196 656 LINE",
"162 656 LINE",
"131 640 LINE"
);
}
);
};
hints = (
{
place = "{131, 99}";
},
{
place = "{301, 121}";
},
{
horizontal = 1;
place = "{671, 80}";
},
{
horizontal = 1;
place = "{-17, 21}";
target = up;
type = BottomGhost;
}
);
layerId = "03739D6D-2A00-4CFA-A48A-FF6A1F8AF183";
paths = (
{
closed = 1;
nodes = (
"164 30 OFFCURVE",
"192 2 OFFCURVE",
"228 -17 CURVE",
"265 3 OFFCURVE",
"294 32 OFFCURVE",
"315 69 CURVE",
"295 105 OFFCURVE",
"268 132 OFFCURVE",
"232 152 CURVE",
"194 132 OFFCURVE",
"165 103 OFFCURVE",
"145 66 CURVE"
);
},
{
closed = 1;
nodes = (
"170 660 LINE",
"180 666 OFFCURVE",
"208 671 OFFCURVE",
"222 671 CURVE SMOOTH",
"252 671 OFFCURVE",
"301 657 OFFCURVE",
"301 588 CURVE SMOOTH",
"301 487 OFFCURVE",
"134 438 OFFCURVE",
"131 333 CURVE SMOOTH",
"128 231 OFFCURVE",
"197 199 OFFCURVE",
"271 209 CURVE SMOOTH",
"290 212 OFFCURVE",
"340 232 OFFCURVE",
"356 278 CURVE",
"304 317 LINE SMOOTH",
"304 317 OFFCURVE",
"290 289 OFFCURVE",
"268 289 CURVE SMOOTH",
"240 289 OFFCURVE",
"230 301 OFFCURVE",
"230 326 CURVE SMOOTH",
"230 414 OFFCURVE",
"422 420 OFFCURVE",
"422 605 CURVE SMOOTH",
"422 707 OFFCURVE",
"333 751 OFFCURVE",
"234 751 CURVE SMOOTH",
"166 751 OFFCURVE",
"96 734 OFFCURVE",
"43 705 CURVE",
"76 554 LINE",
"157 565 LINE"
);
}
);
width = 452;
},
{
background = {
paths = (
{
closed = 1;
nodes = (
"143 55 LINE",
"169 102 LINE",
"217 128 LINE",
"263 103 LINE",
"288 57 LINE",
"261 10 LINE",
"214 -16 LINE",
"167 8 LINE"
);
},
{
closed = 1;
nodes = (
"112 536 LINE",
"63 529 LINE",
"32 669 LINE",
"69 689 LINE",
"162 712 LINE",
"210 712 LINE",
"244 712 LINE",
"307 696 LINE",
"355 663 LINE",
"384 612 LINE",
"384 576 LINE",
"384 533 LINE",
"356 473 LINE",
"315 429 LINE",
"266 398 LINE",
"225 369 LINE",
"197 338 LINE",
"197 317 LINE",
"197 297 LINE",
"216 268 LINE",
"241 268 LINE",
"267 268 LINE",
"280 304 LINE",
"316 276 LINE",
"310 259 LINE",
"291 236 LINE",
"270 221 LINE",
"251 214 LINE",
"244 213 LINE",
"192 206 LINE",
"123 264 LINE",
"123 324 LINE",
"123 357 LINE",
"174 413 LINE",
"235 467 LINE",
"286 525 LINE",
"286 560 LINE",
"286 608 LINE",
"225 656 LINE",
"185 656 LINE",
"151 656 LINE",
"120 640 LINE"
);
}
);
};
hints = (
{
place = "{123, 74}";
},
{
place = "{286, 98}";
},
{
horizontal = 1;
place = "{213, 55}";
},
{
horizontal = 1;
place = "{656, 56}";
}
);
layerId = UUID0;
paths = (
{
closed = 1;
nodes = (
"159 24 OFFCURVE",
"183 0 OFFCURVE",
"214 -16 CURVE",
"245 1 OFFCURVE",
"270 26 OFFCURVE",
"288 57 CURVE",
"271 88 OFFCURVE",
"248 111 OFFCURVE",
"217 128 CURVE",
"185 111 OFFCURVE",
"160 86 OFFCURVE",
"143 55 CURVE"
);
},
{
closed = 1;
nodes = (
"120 640 LINE",
"141 651 OFFCURVE",
"162 656 OFFCURVE",
"185 656 CURVE SMOOTH",
"238 656 OFFCURVE",
"286 624 OFFCURVE",
"286 560 CURVE SMOOTH",
"286 466 OFFCURVE",
"123 412 OFFCURVE",
"123 324 CURVE SMOOTH",
"123 244 OFFCURVE",
"175 204 OFFCURVE",
"244 213 CURVE SMOOTH",
"262 216 OFFCURVE",
"300 231 OFFCURVE",
"316 276 CURVE",
"280 304 LINE",
"271 280 OFFCURVE",
"258 268 OFFCURVE",
"241 268 CURVE SMOOTH",
"208 268 OFFCURVE",
"197 290 OFFCURVE",
"197 317 CURVE SMOOTH",
"197 401 OFFCURVE",
"384 404 OFFCURVE",
"384 576 CURVE SMOOTH",
"384 671 OFFCURVE",
"301 712 OFFCURVE",
"210 712 CURVE SMOOTH",
"146 712 OFFCURVE",
"81 696 OFFCURVE",
"32 669 CURVE",
"63 529 LINE",
"112 536 LINE"
);
}
);
width = 432;
}
);
unicode = 003F;
},
{
glyphname = at;
lastChange = "2017-11-21 14:35:46 +0000";
layers = (
{
background = {
paths = (
{
closed = 1;
nodes = (
"570 537 LINE",
"646 537 LINE",
"582 128 LINE",
"630 133 LINE",
"702 181 LINE",
"751 253 LINE",
"776 343 LINE",
"776 390 LINE",
"776 454 LINE",
"735 560 LINE",
"658 635 LINE",
"548 676 LINE",
"479 676 LINE",
"398 676 LINE",
"264 617 LINE",
"167 514 LINE",
"113 374 LINE",
"113 293 LINE",
"113 204 LINE",
"168 69 LINE",
"260 -22 LINE",
"381 -68 LINE",
"447 -68 LINE",
"491 -68 LINE",
"570 -56 LINE",
"638 -39 LINE",
"694 -18 LINE",
"715 -9 LINE",
"718 -20 LINE",
"722 -28 LINE",
"724 -36 LINE",
"729 -47 LINE",
"729 -48 LINE",
"717 -55 LINE",
"663 -79 LINE",
"587 -103 LINE",
"495 -120 LINE",
"446 -120 LINE",
"352 -120 LINE",
"202 -56 LINE",
"97 53 LINE",
"42 199 LINE",
"42 282 LINE",
"42 364 LINE",
"96 524 LINE",
"207 650 LINE",
"373 728 LINE",
"483 728 LINE",
"573 728 LINE",
"703 670 LINE",
"787 575 LINE",
"827 455 LINE",
"827 392 LINE",
"827 329 LINE",
"790 213 LINE",
"720 124 LINE",
"619 70 LINE",
"556 70 LINE",
"545 70 LINE",
"528 71 LINE",
"523 72 LINE",
"519 73 LINE",
"514 84 LINE",
"512 91 LINE",
"509 99 LINE",
"507 108 LINE",
"532 236 LINE",
"521 216 LINE",
"483 155 LINE",
"435 98 LINE",
"382 57 LINE",
"357 57 LINE",
"332 57 LINE",
"289 76 LINE",
"256 115 LINE",
"237 176 LINE",
"237 218 LINE",
"237 288 LINE",
"280 410 LINE",
"348 499 LINE",
"434 550 LINE",
"476 550 LINE",
"511 550 LINE",
"554 521 LINE",
"565 499 LINE"
);
},
{
closed = 1;
nodes = (
"550 453 LINE",
"550 471 LINE",
"523 494 LINE",
"493 494 LINE",
"462 494 LINE",
"413 465 LINE",
"375 418 LINE",
"349 360 LINE",
"333 303 LINE",
"325 251 LINE",
"325 235 LINE",
"325 221 LINE",
"329 189 LINE",
"340 162 LINE",
"358 144 LINE",
"373 144 LINE",
"403 144 LINE",
"453 186 LINE",
"493 249 LINE",
"522 325 LINE",
"542 394 LINE",
"550 445 LINE"
);
}
);
};
hints = (
{
place = "{42, 92}";
},
{
place = "{238, 103}";
},
{
place = "{757, 71}";
},
{
horizontal = 1;
place = "{-120, 77}";
},
{
horizontal = 1;
place = "{57, 109}";
},
{
horizontal = 1;
place = "{70, 96}";
},
{
horizontal = 1;
place = "{474, 76}";
},
{
horizontal = 1;
place = "{656, 72}";
}
);
layerId = "03739D6D-2A00-4CFA-A48A-FF6A1F8AF183";
paths = (
{
closed = 1;
nodes = (
"566 499 LINE",
"551 528 OFFCURVE",
"524 550 OFFCURVE",
"477 550 CURVE SMOOTH",
"364 550 OFFCURVE",
"238 406 OFFCURVE",
"238 218 CURVE SMOOTH",
"238 106 OFFCURVE",
"292 57 OFFCURVE",
"358 57 CURVE SMOOTH",
"425 57 OFFCURVE",
"504 183 OFFCURVE",
"533 236 CURVE",
"508 108 LINE",
"509 102 OFFCURVE",
"511 96 OFFCURVE",
"513 91 CURVE SMOOTH",
"516 82 OFFCURVE",
"519 73 OFFCURVE",
"524 72 CURVE SMOOTH",
"531 71 OFFCURVE",
"542 70 OFFCURVE",
"557 70 CURVE SMOOTH",
"726 70 OFFCURVE",
"828 225 OFFCURVE",
"828 392 CURVE SMOOTH",
"828 559 OFFCURVE",
"724 728 OFFCURVE",
"484 728 CURVE SMOOTH",
"190 728 OFFCURVE",
"42 501 OFFCURVE",
"42 282 CURVE SMOOTH",
"42 62 OFFCURVE",
"196 -120 OFFCURVE",
"447 -120 CURVE SMOOTH",
"578 -120 OFFCURVE",
"699 -66 OFFCURVE",
"730 -48 CURVE",
"706 19 LINE",
"650 -5 OFFCURVE",
"565 -43 OFFCURVE",
"448 -43 CURVE SMOOTH",
"288 -43 OFFCURVE",
"134 56 OFFCURVE",
"134 293 CURVE SMOOTH",
"134 509 OFFCURVE",
"265 656 OFFCURVE",
"480 656 CURVE SMOOTH",
"664 656 OFFCURVE",
"757 562 OFFCURVE",
"757 390 CURVE SMOOTH",
"757 338 OFFCURVE",
"736 188 OFFCURVE",
"606 148 CURVE",
"666 537 LINE",
"571 537 LINE"
);
},
{
closed = 1;
nodes = (
"529 411 OFFCURVE",
"476 166 OFFCURVE",
"379 166 CURVE SMOOTH",
"345 166 OFFCURVE",
"341 213 OFFCURVE",
"341 246 CURVE SMOOTH",
"341 304 OFFCURVE",
"387 474 OFFCURVE",
"485 474 CURVE SMOOTH",
"520 474 OFFCURVE",
"529 459 OFFCURVE",
"529 438 CURVE SMOOTH"
);
}
);
width = 861;
},
{
background = {
paths = (
{
closed = 1;
nodes = (
"570 537 LINE",
"646 537 LINE",
"582 128 LINE",
"630 133 LINE",
"702 181 LINE",
"751 253 LINE",
"776 343 LINE",
"776 390 LINE",
"776 454 LINE",
"735 560 LINE",
"658 635 LINE",
"548 676 LINE",
"479 676 LINE",
"398 676 LINE",
"264 617 LINE",
"167 514 LINE",
"113 374 LINE",
"113 293 LINE",
"113 204 LINE",
"168 69 LINE",
"260 -22 LINE",
"381 -68 LINE",
"447 -68 LINE",
"491 -68 LINE",
"570 -56 LINE",
"638 -39 LINE",
"694 -18 LINE",
"715 -9 LINE",
"718 -20 LINE",
"722 -28 LINE",
"724 -36 LINE",
"729 -47 LINE",
"729 -48 LINE",
"717 -55 LINE",
"663 -79 LINE",
"587 -103 LINE",
"495 -120 LINE",
"446 -120 LINE",
"352 -120 LINE",
"202 -56 LINE",
"97 53 LINE",
"42 199 LINE",
"42 282 LINE",
"42 364 LINE",
"96 524 LINE",
"207 650 LINE",
"373 728 LINE",
"483 728 LINE",
"573 728 LINE",
"703 670 LINE",
"787 575 LINE",
"827 455 LINE",
"827 392 LINE",
"827 329 LINE",
"790 213 LINE",
"720 124 LINE",
"619 70 LINE",
"556 70 LINE",
"545 70 LINE",
"528 71 LINE",
"523 72 LINE",
"519 73 LINE",
"514 84 LINE",
"512 91 LINE",
"509 99 LINE",
"507 108 LINE",
"532 236 LINE",
"521 216 LINE",
"483 155 LINE",
"435 98 LINE",
"382 57 LINE",
"357 57 LINE",
"332 57 LINE",
"289 76 LINE",
"256 115 LINE",
"237 176 LINE",
"237 218 LINE",
"237 288 LINE",
"280 410 LINE",
"348 499 LINE",
"434 550 LINE",
"476 550 LINE",
"511 550 LINE",
"554 521 LINE",
"565 499 LINE"
);
},
{
closed = 1;
nodes = (
"550 453 LINE",
"550 471 LINE",
"523 494 LINE",
"493 494 LINE",
"462 494 LINE",
"413 465 LINE",
"375 418 LINE",
"349 360 LINE",
"333 303 LINE",
"325 251 LINE",
"325 235 LINE",
"325 221 LINE",
"329 189 LINE",
"340 162 LINE",
"358 144 LINE",
"373 144 LINE",
"403 144 LINE",
"453 186 LINE",
"493 249 LINE",
"522 325 LINE",
"542 394 LINE",
"550 445 LINE"
);
}
);
};
hints = (
{
place = "{42, 72}";
},
{
place = "{238, 88}";
},
{
place = "{777, 51}";
},
{
horizontal = 1;
place = "{-120, 52}";
},
{
horizontal = 1;
place = "{57, 87}";
},
{
horizontal = 1;
place = "{494, 56}";
},
{
horizontal = 1;
place = "{676, 52}";
},
{
horizontal = 1;
place = "{70, 58}";
}
);
layerId = UUID0;
paths = (
{
closed = 1;
nodes = (
"566 499 LINE",
"551 528 OFFCURVE",
"524 550 OFFCURVE",
"477 550 CURVE SMOOTH",
"364 550 OFFCURVE",
"238 406 OFFCURVE",
"238 218 CURVE SMOOTH",
"238 106 OFFCURVE",
"292 57 OFFCURVE",
"358 57 CURVE SMOOTH",
"425 57 OFFCURVE",
"504 183 OFFCURVE",
"533 236 CURVE",
"508 108 LINE",
"509 102 OFFCURVE",
"511 96 OFFCURVE",
"513 91 CURVE SMOOTH",
"516 82 OFFCURVE",
"519 73 OFFCURVE",
"524 72 CURVE SMOOTH",
"531 71 OFFCURVE",
"542 70 OFFCURVE",
"557 70 CURVE SMOOTH",
"726 70 OFFCURVE",
"828 225 OFFCURVE",
"828 392 CURVE SMOOTH",
"828 559 OFFCURVE",
"724 728 OFFCURVE",
"484 728 CURVE SMOOTH",
"190 728 OFFCURVE",
"42 501 OFFCURVE",
"42 282 CURVE SMOOTH",
"42 62 OFFCURVE",
"196 -120 OFFCURVE",
"447 -120 CURVE SMOOTH",
"578 -120 OFFCURVE",
"699 -66 OFFCURVE",
"730 -48 CURVE",
"730 -47 OFFCURVE",
"726 -39 OFFCURVE",
"723 -28 CURVE",
"720 -23 OFFCURVE",
"718 -16 OFFCURVE",
"716 -9 CURVE",
"660 -33 OFFCURVE",
"565 -68 OFFCURVE",
"448 -68 CURVE SMOOTH",
"272 -68 OFFCURVE",
"114 56 OFFCURVE",
"114 293 CURVE SMOOTH",
"114 509 OFFCURVE",
"265 676 OFFCURVE",
"480 676 CURVE SMOOTH",
"664 676 OFFCURVE",
"777 562 OFFCURVE",
"777 390 CURVE SMOOTH",
"777 265 OFFCURVE",
"710 141 OFFCURVE",
"583 128 CURVE",
"646 537 LINE",
"571 537 LINE"
);
},
{
closed = 1;
nodes = (
"551 423 OFFCURVE",
"496 144 OFFCURVE",
"374 144 CURVE SMOOTH",
"335 144 OFFCURVE",
"326 198 OFFCURVE",
"326 235 CURVE SMOOTH",
"326 301 OFFCURVE",
"369 494 OFFCURVE",
"494 494 CURVE SMOOTH",
"534 494 OFFCURVE",
"551 477 OFFCURVE",
"551 453 CURVE SMOOTH"
);
}
);
width = 861;
}
);
unicode = 0040;
},
{
glyphname = A;
lastChange = "2017-11-21 14:35:46 +0000";
layers = (
{
background = {
paths = (
{
closed = 1;
nodes = (
"765 45 LINE",
"755 0 LINE",
"525 0 LINE",
"525 35 LINE",
"596 57 LINE",
"532 220 LINE",
"257 220 LINE",
"196 60 LINE",
"277 45 LINE",
"267 0 LINE",
"66 0 LINE",
"66 35 LINE",
"137 60 LINE",
"377 700 LINE",
"451 700 LINE",
"695 62 LINE"
);
},
{
closed = 1;
nodes = (
"277 275 LINE",
"512 275 LINE",
"393 584 LINE"
);
}
);
};
hints = (
{
horizontal = 1;
place = "{205, 80}";
},
{
horizontal = 1;
place = "{710, -20}";
target = down;
type = TopGhost;
},
{
horizontal = 1;
place = "{0, 21}";
target = up;
type = BottomGhost;
}
);
layerId = "03739D6D-2A00-4CFA-A48A-FF6A1F8AF183";
paths = (
{
closed = 1;
nodes = (
"741 67 LINE",
"481 710 LINE",
"354 710 LINE",
"118 65 LINE",
"47 40 LINE",
"47 0 LINE",
"274 0 LINE",
"284 50 LINE",
"203 65 LINE",
"256 205 LINE",
"531 205 LINE",
"586 62 LINE",
"515 40 LINE",
"515 0 LINE",
"801 0 LINE",
"811 50 LINE"
);
},
{
closed = 1;
nodes = (
"391 577 LINE",
"505 285 LINE",
"283 285 LINE"
);
}
);
width = 832;
},
{
background = {
paths = (
{
closed = 1;
nodes = (
"684 45 LINE",
"674 0 LINE",
"444 0 LINE",
"444 35 LINE",
"515 57 LINE",
"451 220 LINE",
"176 220 LINE",
"115 60 LINE",
"196 45 LINE",
"186 0 LINE",
"-15 0 LINE",
"-15 35 LINE",
"56 60 LINE",
"296 700 LINE",
"370 700 LINE",
"614 62 LINE"
);
},
{
closed = 1;
nodes = (
"196 275 LINE",
"431 275 LINE",
"312 584 LINE"
);
}
);
};
hints = (
{
place = "{-15, 699}";
},
{
horizontal = 1;
place = "{0, 35}";
},
{
horizontal = 1;
place = "{220, 55}";
},
{
horizontal = 1;
place = "{700, -20}";
target = down;
type = TopGhost;
}
);
layerId = UUID0;
paths = (
{
closed = 1;
nodes = (
"614 62 LINE",
"370 700 LINE",
"297 700 LINE",
"56 60 LINE",
"-15 35 LINE",
"-15 0 LINE",
"186 0 LINE",
"196 45 LINE",
"115 60 LINE",
"176 220 LINE",
"451 220 LINE",
"515 57 LINE",
"444 35 LINE",
"444 0 LINE",
"674 0 LINE",
"684 45 LINE"
);
},
{
closed = 1;
nodes = (
"313 584 LINE",
"431 275 LINE",
"196 275 LINE"
);
}
);
width = 668;
}
);
unicode = 0041;
},
{
glyphname = B;
lastChange = "2017-11-21 14:35:46 +0000";
layers = (
{
background = {
paths = (
{
closed = 1;
nodes = (
"79 0 LINE",
"79 35 LINE",
"174 64 LINE",
"174 636 LINE",
"79 655 LINE",
"89 700 LINE",
"373 700 LINE",
"482 700 LINE",
"605 609 LINE",
"605 523 LINE",
"605 485 LINE",
"577 431 LINE",
"534 395 LINE",
"480 374 LINE",
"453 370 LINE",
"453 365 LINE",
"487 364 LINE",
"553 342 LINE",
"605 300 LINE",
"638 239 LINE",
"638 198 LINE",
"638 140 LINE",
"601 64 LINE",
"532 19 LINE",
"434 0 LINE",
"373 0 LINE"
);
},
{
closed = 1;
nodes = (
"373 55 LINE",
"417 55 LINE",
"478 79 LINE",
"516 119 LINE",
"533 170 LINE",
"533 197 LINE",
"533 223 LINE",
"514 272 LINE",
"478 311 LINE",
"423 335 LINE",
"387 335 LINE",
"274 335 LINE",
"274 55 LINE"
);
},
{
closed = 1;
nodes = (
"389 385 LINE",
"408 385 LINE",
"448 401 LINE",
"480 434 LINE",
"500 485 LINE",
"500 519 LINE",
"500 578 LINE",
"434 645 LINE",
"373 645 LINE",
"274 645 LINE",
"274 385 LINE"
);
}
);
};
hints = (
{
place = "{128, 146}";
},
{
place = "{481, 156}";
},
{
place = "{514, 123}";
},
{
place = "{514, 155}";
},
{
horizontal = 1;
place = "{0, 80}";
},
{
horizontal = 1;
place = "{330, 45}";
},
{
horizontal = 1;
place = "{630, 80}";
},
{
horizontal = 1;
place = "{330, 75}";
}
);
layerId = "03739D6D-2A00-4CFA-A48A-FF6A1F8AF183";
paths = (
{
closed = 1;
nodes = (
"274 330 LINE",
"388 330 LINE SMOOTH",
"484 330 OFFCURVE",
"514 270 OFFCURVE",
"514 197 CURVE SMOOTH",
"514 125 OFFCURVE",
"485 80 OFFCURVE",
"373 80 CURVE",
"274 80 LINE"
);
},
{
closed = 1;
nodes = (
"274 405 LINE",
"274 630 LINE",
"364 630 LINE",
"425 630 OFFCURVE",
"481 598 OFFCURVE",
"481 529 CURVE SMOOTH",
"481 442 OFFCURVE",
"452 405 OFFCURVE",
"390 405 CURVE SMOOTH"
);
},
{
closed = 1;
nodes = (
"43 710 LINE",
"34 660 LINE",
"128 641 LINE",
"128 69 LINE",
"33 40 LINE",
"33 0 LINE",
"373 0 LINE",
"536 0 OFFCURVE",
"669 39 OFFCURVE",
"669 198 CURVE SMOOTH",
"669 326 OFFCURVE",
"578 372 OFFCURVE",
"483 375 CURVE",
"483 380 LINE",
"554 391 OFFCURVE",
"637 428 OFFCURVE",
"637 533 CURVE SMOOTH",
"637 668 OFFCURVE",
"528 710 OFFCURVE",
"373 710 CURVE"
);
}
);
width = 708;
},
{
background = {
paths = (
{
closed = 1;
nodes = (
"36 0 LINE",
"36 35 LINE",
"131 64 LINE",
"131 636 LINE",
"36 655 LINE",
"46 700 LINE",
"330 700 LINE",
"439 700 LINE",
"562 609 LINE",
"562 523 LINE",
"562 485 LINE",
"534 431 LINE",
"491 395 LINE",
"437 374 LINE",
"410 370 LINE",
"410 365 LINE",
"444 364 LINE",
"510 342 LINE",
"562 300 LINE",
"595 239 LINE",
"595 198 LINE",
"595 140 LINE",
"558 64 LINE",
"489 19 LINE",
"391 0 LINE",
"330 0 LINE"
);
},
{
closed = 1;
nodes = (
"330 55 LINE",
"374 55 LINE",
"435 79 LINE",
"473 119 LINE",
"490 170 LINE",
"490 197 LINE",
"490 223 LINE",
"471 272 LINE",
"435 311 LINE",
"380 335 LINE",
"344 335 LINE",
"231 335 LINE",
"231 55 LINE"
);
},
{
closed = 1;
nodes = (
"346 385 LINE",
"365 385 LINE",
"405 401 LINE",
"437 434 LINE",
"457 485 LINE",
"457 519 LINE",
"457 578 LINE",
"391 645 LINE",
"330 645 LINE",
"231 645 LINE",
"231 385 LINE"
);
}
);
};
hints = (
{
place = "{131, 100}";
},
{
place = "{490, 105}";
},
{
place = "{457, 105}";
},
{
horizontal = 1;
place = "{0, 55}";
},
{
horizontal = 1;
place = "{335, 50}";
},
{
horizontal = 1;
place = "{645, 55}";
}
);
layerId = UUID0;
paths = (
{
closed = 1;
nodes = (
"330 0 LINE SMOOTH",
"493 0 OFFCURVE",
"595 44 OFFCURVE",
"595 198 CURVE SMOOTH",
"595 306 OFFCURVE",
"500 362 OFFCURVE",
"410 365 CURVE",
"410 370 LINE",
"481 381 OFFCURVE",
"562 423 OFFCURVE",
"562 523 CURVE SMOOTH",
"562 638 OFFCURVE",
"475 700 OFFCURVE",
"330 700 CURVE SMOOTH",
"46 700 LINE",
"36 655 LINE",
"131 636 LINE",
"131 64 LINE",
"36 35 LINE",
"36 0 LINE"
);
},
{
closed = 1;
nodes = (
"231 55 LINE",
"231 335 LINE",
"344 335 LINE SMOOTH",
"440 335 OFFCURVE",
"490 265 OFFCURVE",
"490 197 CURVE SMOOTH",
"490 125 OFFCURVE",
"447 55 OFFCURVE",
"330 55 CURVE SMOOTH"
);
},
{
closed = 1;
nodes = (
"231 385 LINE",
"231 645 LINE",
"330 645 LINE SMOOTH",
"411 645 OFFCURVE",
"457 598 OFFCURVE",
"457 519 CURVE SMOOTH",
"457 427 OFFCURVE",
"398 385 OFFCURVE",
"346 385 CURVE SMOOTH"
);
}
);
width = 636;
}
);
unicode = 0042;
},
{
glyphname = C;
lastChange = "2017-11-21 14:35:46 +0000";
layers = (
{
background = {
paths = (
{
closed = 1;
nodes = (
"545 633 LINE",
"521 649 LINE",
"458 658 LINE",
"427 658 LINE",
"380 658 LINE",
"289 621 LINE",
"218 543 LINE",
"176 426 LINE",
"176 347 LINE",
"176 262 LINE",
"218 145 LINE",
"291 74 LINE",
"384 42 LINE",
"437 42 LINE",
"475 42 LINE",
"528 58 LINE",
"550 70 LINE",
"587 225 LINE",
"637 214 LINE",
"637 43 LINE",
"594 22 LINE",
"486 -14 LINE",
"413 -14 LINE",
"344 -14 LINE",
"220 32 LINE",
"127 123 LINE",
"71 259 LINE",
"71 347 LINE",
"71 434 LINE",
"132 569 LINE",
"236 663 LINE",
"371 713 LINE",
"445 713 LINE",
"490 713 LINE",
"583 693 LINE",
"629 672 LINE",
"629 501 LINE",
"578 491 LINE"
);
}
);
};
hints = (
{
place = "{51, 152}";
},
{
horizontal = 1;
place = "{-14, 71}";
},
{
horizontal = 1;
place = "{652, 72}";
}
);
layerId = "03739D6D-2A00-4CFA-A48A-FF6A1F8AF183";
paths = (
{
closed = 1;
nodes = (
"594 493 LINE",
"659 503 LINE",
"659 682 LINE",
"594 710 OFFCURVE",
"524 724 OFFCURVE",
"456 724 CURVE SMOOTH",
"246 724 OFFCURVE",
"51 592 OFFCURVE",
"51 349 CURVE SMOOTH",
"51 64 OFFCURVE",
"250 -14 OFFCURVE",
"442 -14 CURVE SMOOTH",
"541 -14 OFFCURVE",
"610 15 OFFCURVE",
"667 43 CURVE",
"667 223 LINE",
"601 233 LINE",
"565 80 LINE",
"551 73 OFFCURVE",
"507 57 OFFCURVE",
"466 57 CURVE SMOOTH",
"347 57 OFFCURVE",
"203 113 OFFCURVE",
"203 349 CURVE SMOOTH",
"203 548 OFFCURVE",
"328 652 OFFCURVE",
"457 652 CURVE SMOOTH",
"491 652 OFFCURVE",
"532 646 OFFCURVE",
"561 632 CURVE"
);
}
);
width = 702;
},
{
background = {
paths = (
{
closed = 1;
nodes = (
"517 633 LINE",
"493 649 LINE",
"430 658 LINE",
"399 658 LINE",
"352 658 LINE",
"261 621 LINE",
"190 543 LINE",
"148 426 LINE",
"148 347 LINE",
"148 262 LINE",
"190 145 LINE",
"263 74 LINE",
"356 42 LINE",
"409 42 LINE",
"447 42 LINE",
"500 58 LINE",
"522 70 LINE",
"559 225 LINE",
"609 214 LINE",
"609 43 LINE",
"566 22 LINE",
"458 -14 LINE",
"385 -14 LINE",
"316 -14 LINE",
"192 32 LINE",
"99 123 LINE",
"43 259 LINE",
"43 347 LINE",
"43 434 LINE",
"104 569 LINE",
"208 663 LINE",
"343 713 LINE",
"417 713 LINE",
"462 713 LINE",
"555 693 LINE",
"601 672 LINE",
"601 501 LINE",
"550 491 LINE"
);
}
);
};
hints = (
{
place = "{43, 105}";
},
{
place = "{550, 51}";
},
{
place = "{558, 51}";
},
{
horizontal = 1;
place = "{-14, 56}";
},
{
horizontal = 1;
place = "{658, 55}";
}
);
layerId = UUID0;
paths = (
{
closed = 1;
nodes = (
"550 491 LINE",
"601 501 LINE",
"601 672 LINE",
"540 700 OFFCURVE",
"477 713 OFFCURVE",
"416 713 CURVE SMOOTH",
"219 713 OFFCURVE",
"43 575 OFFCURVE",
"43 349 CURVE SMOOTH",
"43 114 OFFCURVE",
"202 -14 OFFCURVE",
"384 -14 CURVE SMOOTH",
"483 -14 OFFCURVE",
"552 15 OFFCURVE",
"609 43 CURVE",
"609 215 LINE",
"558 225 LINE",
"522 69 LINE",
"491 54 OFFCURVE",
"459 42 OFFCURVE",
"408 42 CURVE SMOOTH",
"269 42 OFFCURVE",
"148 123 OFFCURVE",
"148 349 CURVE SMOOTH",
"148 558 OFFCURVE",
"270 658 OFFCURVE",
"399 658 CURVE SMOOTH",
"439 658 OFFCURVE",
"482 656 OFFCURVE",
"517 633 CURVE"
);
}
);
width = 659;
}
);
unicode = 0043;
},
{
glyphname = D;
lastChange = "2017-11-21 14:35:46 +0000";
layers = (
{
background = {
paths = (
{
closed = 1;
nodes = (
"714 348 LINE",
"714 276 LINE",
"668 149 LINE",
"579 55 LINE",
"449 0 LINE",
"365 0 LINE",
"70 0 LINE",
"70 35 LINE",
"165 64 LINE",
"165 636 LINE",
"70 655 LINE",
"80 700 LINE",
"365 700 LINE",
"452 700 LINE",
"583 644 LINE",
"670 548 LINE",
"714 420 LINE"
);
},
{
closed = 1;
nodes = (
"265 645 LINE",
"265 55 LINE",
"348 55 LINE",
"410 55 LINE",
"507 96 LINE",
"574 172 LINE",
"609 280 LINE",
"609 348 LINE",
"609 415 LINE",
"579 525 LINE",
"516 603 LINE",
"417 645 LINE",
"348 645 LINE"
);
}
);
};
hints = (
{
place = "{120, 145}";
},
{
place = "{579, 155}";
},
{
horizontal = 1;
place = "{0, 80}";
},
{
horizontal = 1;
place = "{630, 80}";
}
);
layerId = "03739D6D-2A00-4CFA-A48A-FF6A1F8AF183";
paths = (
{
closed = 1;
nodes = (
"120 641 LINE",
"120 69 LINE",
"25 40 LINE",
"25 0 LINE",
"355 0 LINE SMOOTH",
"604 0 OFFCURVE",
"734 136 OFFCURVE",
"734 358 CURVE SMOOTH",
"734 570 OFFCURVE",
"607 710 OFFCURVE",
"355 710 CURVE SMOOTH",
"35 710 LINE",
"26 660 LINE"
);
},
{
closed = 1;
nodes = (
"338 630 LINE SMOOTH",
"512 630 OFFCURVE",
"579 518 OFFCURVE",
"579 358 CURVE SMOOTH",
"579 198 OFFCURVE",
"493 80 OFFCURVE",
"338 80 CURVE SMOOTH",
"265 80 LINE",
"265 630 LINE"
);
}
);
width = 773;
},
{
background = {
paths = (
{
closed = 1;
nodes = (
"680 348 LINE",
"680 276 LINE",
"634 149 LINE",
"545 55 LINE",
"415 0 LINE",
"331 0 LINE",
"36 0 LINE",
"36 35 LINE",
"131 64 LINE",
"131 636 LINE",
"36 655 LINE",
"46 700 LINE",
"331 700 LINE",
"418 700 LINE",
"549 644 LINE",
"636 548 LINE",
"680 420 LINE"
);
},
{
closed = 1;
nodes = (
"231 645 LINE",
"231 55 LINE",
"314 55 LINE",
"376 55 LINE",
"473 96 LINE",
"540 172 LINE",
"575 280 LINE",
"575 348 LINE",
"575 415 LINE",
"545 525 LINE",
"482 603 LINE",
"383 645 LINE",
"314 645 LINE"
);
}
);
};
hints = (
{
place = "{131, 100}";
},
{
place = "{575, 105}";
},
{
horizontal = 1;
place = "{0, 55}";
},
{
horizontal = 1;
place = "{645, 55}";
}
);
layerId = UUID0;
paths = (
{
closed = 1;
nodes = (
"680 540 OFFCURVE",
"563 700 OFFCURVE",
"331 700 CURVE SMOOTH",
"46 700 LINE",
"36 655 LINE",
"131 636 LINE",
"131 64 LINE",
"36 35 LINE",
"36 0 LINE",
"331 0 LINE SMOOTH",
"555 0 OFFCURVE",
"680 156 OFFCURVE",
"680 348 CURVE SMOOTH"
);
},
{
closed = 1;
nodes = (
"314 645 LINE SMOOTH",
"498 645 OFFCURVE",
"575 528 OFFCURVE",
"575 348 CURVE SMOOTH",
"575 168 OFFCURVE",
"479 55 OFFCURVE",
"314 55 CURVE SMOOTH",
"231 55 LINE",
"231 645 LINE"
);
}
);
width = 725;
}
);
unicode = 0044;
},
{
glyphname = E;
lastChange = "2017-11-21 14:35:46 +0000";
layers = (
{
background = {
paths = (
{
closed = 1;
nodes = (
"550 171 LINE",
"602 160 LINE",
"602 0 LINE",
"60 0 LINE",
"60 35 LINE",
"155 64 LINE",
"155 636 LINE",
"60 655 LINE",
"70 700 LINE",
"581 700 LINE",
"581 536 LINE",
"531 526 LINE",
"499 645 LINE",
"255 645 LINE",
"255 391 LINE",
"424 395 LINE",
"451 462 LINE",
"486 452 LINE",
"486 275 LINE",
"458 265 LINE",
"424 331 LINE",
"255 336 LINE",
"255 55 LINE",
"518 55 LINE"
);
},
{
closed = 1;
nodes = (
"518 55 LINE",
"255 55 LINE",
"255 336 LINE",
"424 331 LINE",
"458 265 LINE",
"486 275 LINE",
"486 452 LINE",
"451 462 LINE",
"424 395 LINE",
"255 391 LINE",
"255 645 LINE",
"499 645 LINE",
"531 526 LINE",
"581 536 LINE",
"581 700 LINE",
"70 700 LINE",
"60 655 LINE",
"155 636 LINE",
"155 64 LINE",
"60 35 LINE",
"60 0 LINE",
"602 0 LINE",
"602 160 LINE",
"550 171 LINE"
);
}
);
};
hints = (
{
place = "{120, 145}";
},
{
horizontal = 1;
place = "{0, 75}";
},
{
horizontal = 1;
place = "{326, 74}";
},
{
horizontal = 1;
place = "{635, 75}";
}
);
layerId = "03739D6D-2A00-4CFA-A48A-FF6A1F8AF183";
paths = (
{
closed = 1;
nodes = (
"510 75 LINE",
"265 75 LINE",
"265 329 LINE",
"434 324 LINE",
"468 258 LINE",
"496 268 LINE",
"496 459 LINE",
"461 469 LINE",
"434 402 LINE",
"265 398 LINE",
"265 635 LINE",
"499 635 LINE",
"529 515 LINE",
"594 525 LINE",
"594 710 LINE",
"35 710 LINE",
"25 660 LINE",
"120 641 LINE",
"120 69 LINE",
"25 40 LINE",
"25 0 LINE",
"602 0 LINE",
"603 179 LINE",
"537 189 LINE"
);
}
);
width = 642;
},
{
background = {
paths = (
{
closed = 1;
nodes = (
"526 171 LINE",
"578 160 LINE",
"578 0 LINE",
"36 0 LINE",
"36 35 LINE",
"131 64 LINE",
"131 636 LINE",
"36 655 LINE",
"46 700 LINE",
"557 700 LINE",
"557 536 LINE",
"507 526 LINE",
"475 645 LINE",
"231 645 LINE",
"231 391 LINE",
"400 395 LINE",
"427 462 LINE",
"462 452 LINE",
"462 275 LINE",
"434 265 LINE",
"400 331 LINE",
"231 336 LINE",
"231 55 LINE",
"494 55 LINE"
);
}
);
};
hints = (
{
place = "{131, 100}";
},
{
place = "{434, 28}";
},
{
place = "{526, 52}";
},
{
place = "{507, 50}";
},
{
horizontal = 1;
place = "{0, 55}";
},
{
horizontal = 1;
place = "{333, 59}";
},
{
horizontal = 1;
place = "{645, 55}";
}
);
layerId = UUID0;
paths = (
{
closed = 1;
nodes = (
"494 55 LINE",
"231 55 LINE",
"231 336 LINE",
"400 331 LINE",
"434 265 LINE",
"462 275 LINE",
"462 452 LINE",
"427 462 LINE",
"400 395 LINE",
"231 391 LINE",
"231 645 LINE",
"475 645 LINE",
"507 526 LINE",
"557 536 LINE",
"557 700 LINE",
"46 700 LINE",
"36 655 LINE",
"131 636 LINE",
"131 64 LINE",
"36 35 LINE",
"36 0 LINE",
"578 0 LINE",
"578 160 LINE",
"526 171 LINE"
);
}
);
width = 611;
}
);
unicode = 0045;
},
{
glyphname = F;
lastChange = "2017-11-21 14:35:46 +0000";
layers = (
{
background = {
paths = (
{
closed = 1;
nodes = (
"424 395 LINE",
"451 462 LINE",
"486 452 LINE",
"486 275 LINE",
"458 265 LINE",
"424 331 LINE",
"255 336 LINE",
"255 64 LINE",
"369 45 LINE",
"359 0 LINE",
"60 0 LINE",
"60 35 LINE",
"155 64 LINE",
"155 636 LINE",
"60 655 LINE",
"70 700 LINE",
"581 700 LINE",
"581 531 LINE",
"531 521 LINE",
"499 645 LINE",
"255 645 LINE",
"255 391 LINE"
);
}
);
};
hints = (
{
place = "{120, 145}";
},
{
horizontal = 1;
place = "{325, 75}";
},
{
horizontal = 1;
place = "{635, 75}";
},
{
horizontal = 1;
place = "{0, 21}";
target = up;
type = BottomGhost;
}
);
layerId = "03739D6D-2A00-4CFA-A48A-FF6A1F8AF183";
paths = (
{
closed = 1;
nodes = (
"265 635 LINE",
"487 635 LINE",
"517 515 LINE",
"582 525 LINE",
"582 710 LINE",
"35 710 LINE",
"25 665 LINE",
"120 646 LINE",
"120 69 LINE",
"25 40 LINE",
"25 0 LINE",
"380 0 LINE",
"390 50 LINE",
"265 69 LINE",
"265 326 LINE",
"433 324 LINE",
"467 258 LINE",
"495 268 LINE",
"495 459 LINE",
"460 469 LINE",
"433 402 LINE",
"265 398 LINE"
);
}
);
width = 616;
},
{
background = {
paths = (
{
closed = 1;
nodes = (
"400 395 LINE",
"427 462 LINE",
"462 452 LINE",
"462 275 LINE",
"434 265 LINE",
"400 331 LINE",
"231 336 LINE",
"231 64 LINE",
"345 45 LINE",
"335 0 LINE",
"36 0 LINE",
"36 35 LINE",
"131 64 LINE",
"131 636 LINE",
"36 655 LINE",
"46 700 LINE",
"557 700 LINE",
"557 531 LINE",
"507 521 LINE",
"475 645 LINE",
"231 645 LINE",
"231 391 LINE"
);
}
);
};
hints = (
{
place = "{131, 100}";
},
{
place = "{507, 50}";
},
{
place = "{434, 28}";
},
{
horizontal = 1;
place = "{0, 35}";
},
{
horizontal = 1;
place = "{333, 59}";
},
{
horizontal = 1;
place = "{645, 55}";
},
{
horizontal = 1;
place = "{0, 64}";
}
);
layerId = UUID0;
paths = (
{
closed = 1;
nodes = (
"231 391 LINE",
"231 645 LINE",
"475 645 LINE",
"507 521 LINE",
"557 531 LINE",
"557 700 LINE",
"46 700 LINE",
"36 655 LINE",
"131 636 LINE",
"131 64 LINE",
"36 35 LINE",
"36 0 LINE",
"335 0 LINE",
"345 45 LINE",
"231 64 LINE",
"231 336 LINE",
"400 331 LINE",
"434 265 LINE",
"462 275 LINE",
"462 452 LINE",
"427 462 LINE",
"400 395 LINE"
);
}
);
width = 577;
}
);
unicode = 0046;
},
{
glyphname = G;
lastChange = "2017-11-21 14:35:46 +0000";
layers = (
{
background = {
paths = (
{
closed = 1;
nodes = (
"646 501 LINE",
"596 491 LINE",
"561 631 LINE",
"538 646 LINE",
"475 659 LINE",
"445 659 LINE",
"385 659 LINE",
"283 620 LINE",
"208 542 LINE",
"166 425 LINE",
"166 347 LINE",
"166 305 LINE",
"179 234 LINE",
"202 175 LINE",
"233 129 LINE",
"252 111 LINE",
"271 93 LINE",
"313 68 LINE",
"357 52 LINE",
"401 45 LINE",
"422 45 LINE",
"454 45 LINE",
"517 60 LINE",
"546 70 LINE",
"546 252 LINE",
"447 271 LINE",
"447 306 LINE",
"703 306 LINE",
"703 271 LINE",
"646 253 LINE",
"646 46 LINE",
"593 19 LINE",
"475 -14 LINE",
"409 -14 LINE",
"340 -14 LINE",
"215 32 LINE",
"119 124 LINE",
"61 258 LINE",
"61 347 LINE",
"61 411 LINE",
"90 515 LINE",
"141 596 LINE",
"212 656 LINE",
"297 695 LINE",
"394 714 LINE",
"446 714 LINE",
"551 714 LINE",
"646 669 LINE"
);
}
);
};
hints = (
{
place = "{40, 154}";
},
{
place = "{510, 135}";
},
{
horizontal = 1;
place = "{-14, 76}";
},
{
horizontal = 1;
place = "{649, 75}";
}
);
layerId = "03739D6D-2A00-4CFA-A48A-FF6A1F8AF183";
paths = (
{
closed = 1;
nodes = (
"510 70 LINE",
"492 66 OFFCURVE",
"468 62 OFFCURVE",
"445 62 CURVE SMOOTH",
"326 62 OFFCURVE",
"194 113 OFFCURVE",
"194 349 CURVE SMOOTH",
"194 548 OFFCURVE",
"317 649 OFFCURVE",
"446 649 CURVE SMOOTH",
"480 649 OFFCURVE",
"519 648 OFFCURVE",
"550 632 CURVE",
"583 493 LINE",
"648 503 LINE",
"648 682 LINE",
"583 710 OFFCURVE",
"513 724 OFFCURVE",
"445 724 CURVE SMOOTH",
"235 724 OFFCURVE",
"40 592 OFFCURVE",
"40 349 CURVE SMOOTH",
"40 64 OFFCURVE",
"229 -14 OFFCURVE",
"421 -14 CURVE SMOOTH",
"520 -14 OFFCURVE",
"589 15 OFFCURVE",
"646 43 CURVE",
"645 248 LINE",
"703 279 LINE",
"703 319 LINE",
"424 319 LINE",
"424 269 LINE",
"510 247 LINE"
);
}
);
width = 719;
},
{
background = {
paths = (
{
closed = 1;
nodes = (
"629 501 LINE",
"579 491 LINE",
"544 631 LINE",
"521 646 LINE",
"458 659 LINE",
"428 659 LINE",
"368 659 LINE",
"266 620 LINE",
"191 542 LINE",
"149 425 LINE",
"149 347 LINE",
"149 305 LINE",
"162 234 LINE",
"185 175 LINE",
"216 129 LINE",
"235 111 LINE",
"254 93 LINE",
"296 68 LINE",
"340 52 LINE",
"384 45 LINE",
"405 45 LINE",
"437 45 LINE",
"500 60 LINE",
"529 70 LINE",
"529 252 LINE",
"430 271 LINE",
"430 306 LINE",
"686 306 LINE",
"686 271 LINE",
"629 253 LINE",
"629 46 LINE",
"576 19 LINE",
"458 -14 LINE",
"392 -14 LINE",
"323 -14 LINE",
"198 32 LINE",
"102 124 LINE",
"44 258 LINE",
"44 347 LINE",
"44 411 LINE",
"73 515 LINE",
"124 596 LINE",
"195 656 LINE",
"280 695 LINE",
"377 714 LINE",
"429 714 LINE",
"534 714 LINE",
"629 669 LINE"
);
}
);
};
hints = (
{
place = "{44, 105}";
},
{
place = "{529, 100}";
},
{
horizontal = 1;
place = "{-14, 59}";
},
{
horizontal = 1;
place = "{271, 35}";
},
{
horizontal = 1;
place = "{659, 55}";
}
);
layerId = UUID0;
paths = (
{
closed = 1;
nodes = (
"629 670 LINE",
"565 699 OFFCURVE",
"498 714 OFFCURVE",
"428 714 CURVE SMOOTH",
"223 714 OFFCURVE",
"44 602 OFFCURVE",
"44 349 CURVE SMOOTH",
"44 114 OFFCURVE",
"209 -14 OFFCURVE",
"391 -14 CURVE SMOOTH",
"478 -14 OFFCURVE",
"558 11 OFFCURVE",
"629 46 CURVE",
"629 253 LINE",
"685 271 LINE",
"685 306 LINE",
"429 306 LINE",
"429 271 LINE",
"529 252 LINE",
"529 70 LINE",
"489 55 OFFCURVE",
"446 45 OFFCURVE",
"405 45 CURVE SMOOTH",
"292 45 OFFCURVE",
"149 122 OFFCURVE",
"149 349 CURVE SMOOTH",
"149 558 OFFCURVE",
"268 659 OFFCURVE",
"427 659 CURVE SMOOTH",
"467 659 OFFCURVE",
"512 652 OFFCURVE",
"544 632 CURVE",
"578 491 LINE",
"629 501 LINE"
);
}
);
width = 713;
}
);
unicode = 0047;
},
{
glyphname = H;
lastChange = "2017-11-21 14:35:46 +0000";
layers = (
{
background = {
paths = (
{
closed = 1;
nodes = (
"764 45 LINE",
"754 0 LINE",
"474 0 LINE",
"474 35 LINE",
"569 64 LINE",
"569 329 LINE",
"229 329 LINE",
"229 64 LINE",
"324 45 LINE",
"314 0 LINE",
"34 0 LINE",
"34 35 LINE",
"129 64 LINE",
"129 636 LINE",
"34 655 LINE",
"44 700 LINE",
"324 700 LINE",
"324 665 LINE",
"229 636 LINE",
"229 384 LINE",
"569 384 LINE",
"569 636 LINE",
"474 655 LINE",
"484 700 LINE",
"764 700 LINE",
"764 665 LINE",
"669 636 LINE",
"669 64 LINE"
);
},
{
closed = 1;
nodes = (
"669 64 LINE",
"669 636 LINE",
"764 665 LINE",
"764 700 LINE",
"484 700 LINE",
"474 655 LINE",
"569 636 LINE",
"569 384 LINE",
"229 384 LINE",
"229 636 LINE",
"324 665 LINE",
"324 700 LINE",
"44 700 LINE",
"34 655 LINE",
"129 636 LINE",
"129 64 LINE",
"34 35 LINE",
"34 0 LINE",
"314 0 LINE",
"324 45 LINE",
"229 64 LINE",
"229 329 LINE",
"569 329 LINE",
"569 64 LINE",
"474 35 LINE",
"474 0 LINE",
"754 0 LINE",
"764 45 LINE"
);
}
);
};
hints = (
{
place = "{124, 135}";
},
{
place = "{569, 135}";
},
{
horizontal = 1;
place = "{309, 75}";
},
{
horizontal = 1;
place = "{710, -20}";
target = down;
type = TopGhost;
},
{
horizontal = 1;
place = "{0, 21}";
target = up;
type = BottomGhost;
}
);
layerId = "03739D6D-2A00-4CFA-A48A-FF6A1F8AF183";
paths = (
{
closed = 1;
nodes = (
"799 670 LINE",
"799 710 LINE",
"484 710 LINE",
"474 660 LINE",
"569 641 LINE",
"569 384 LINE",
"259 384 LINE",
"259 641 LINE",
"354 670 LINE",
"354 710 LINE",
"39 710 LINE",
"29 660 LINE",
"124 641 LINE",
"124 69 LINE",
"29 40 LINE",
"29 0 LINE",
"344 0 LINE",
"354 50 LINE",
"259 69 LINE",
"259 309 LINE",
"569 309 LINE",
"569 69 LINE",
"474 40 LINE",
"474 0 LINE",
"789 0 LINE",
"799 50 LINE",
"704 69 LINE",
"704 641 LINE"
);
}
);
width = 831;
},
{
background = {
paths = (
{
closed = 1;
nodes = (
"766 45 LINE",
"756 0 LINE",
"476 0 LINE",
"476 35 LINE",
"571 64 LINE",
"571 329 LINE",
"231 329 LINE",
"231 64 LINE",
"326 45 LINE",
"316 0 LINE",
"36 0 LINE",
"36 35 LINE",
"131 64 LINE",
"131 636 LINE",
"36 655 LINE",
"46 700 LINE",
"326 700 LINE",
"326 665 LINE",
"231 636 LINE",
"231 384 LINE",
"571 384 LINE",
"571 636 LINE",
"476 655 LINE",
"486 700 LINE",
"766 700 LINE",
"766 665 LINE",
"671 636 LINE",
"671 64 LINE"
);
}
);
};
hints = (
{
place = "{131, 100}";
},
{
place = "{571, 100}";
},
{
horizontal = 1;
place = "{0, 64}";
},
{
horizontal = 1;
place = "{329, 55}";
},
{
horizontal = 1;
place = "{636, 64}";
},
{
horizontal = 1;
place = "{0, 35}";
},
{
horizontal = 1;
place = "{665, 35}";
},
{
horizontal = 1;
place = "{655, 45}";
}
);
layerId = UUID0;
paths = (
{
closed = 1;
nodes = (
"671 64 LINE",
"671 636 LINE",
"766 665 LINE",
"766 700 LINE",
"486 700 LINE",
"476 655 LINE",
"571 636 LINE",
"571 384 LINE",
"231 384 LINE",
"231 636 LINE",
"326 665 LINE",
"326 700 LINE",
"46 700 LINE",
"36 655 LINE",
"131 636 LINE",
"131 64 LINE",
"36 35 LINE",
"36 0 LINE",
"316 0 LINE",
"326 45 LINE",
"231 64 LINE",
"231 329 LINE",
"571 329 LINE",
"571 64 LINE",
"476 35 LINE",
"476 0 LINE",
"756 0 LINE",
"766 45 LINE"
);
}
);
width = 802;
}
);
unicode = 0048;
},
{
glyphname = I;
lastChange = "2017-11-21 14:35:46 +0000";
layers = (
{
background = {
paths = (
{
closed = 1;
nodes = (
"235 636 LINE",
"235 64 LINE",
"330 45 LINE",
"320 0 LINE",
"40 0 LINE",
"40 35 LINE",
"135 64 LINE",
"135 636 LINE",
"40 655 LINE",
"50 700 LINE",
"330 700 LINE",
"330 665 LINE"
);
}
);
};
hints = (
{
place = "{135, 145}";
},
{
horizontal = 1;
place = "{710, -20}";
target = down;
type = TopGhost;
},
{
horizontal = 1;
place = "{0, 21}";
target = up;
type = BottomGhost;
}
);
layerId = "03739D6D-2A00-4CFA-A48A-FF6A1F8AF183";
paths = (
{
closed = 1;
nodes = (
"375 670 LINE",
"375 710 LINE",
"50 710 LINE",
"40 660 LINE",
"135 641 LINE",
"135 69 LINE",
"40 40 LINE",
"40 0 LINE",
"365 0 LINE",
"375 50 LINE",
"280 69 LINE",
"280 641 LINE"
);
}
);
width = 416;
},
{
background = {
paths = (
{
closed = 1;
nodes = (
"231 636 LINE",
"231 64 LINE",
"326 45 LINE",
"316 0 LINE",
"36 0 LINE",
"36 35 LINE",
"131 64 LINE",
"131 636 LINE",
"36 655 LINE",
"46 700 LINE",
"326 700 LINE",
"326 665 LINE"
);
}
);
};
hints = (
{
place = "{131, 100}";
},
{
horizontal = 1;
place = "{0, 35}";
},
{
horizontal = 1;
place = "{665, 35}";
},
{
horizontal = 1;
place = "{655, 45}";
},
{
horizontal = 1;
place = "{0, 64}";
},
{
horizontal = 1;
place = "{636, 64}";
}
);
layerId = UUID0;
paths = (
{
closed = 1;
nodes = (
"326 665 LINE",
"326 700 LINE",
"46 700 LINE",
"36 655 LINE",
"131 636 LINE",
"131 64 LINE",
"36 35 LINE",
"36 0 LINE",
"316 0 LINE",
"326 45 LINE",
"231 64 LINE",
"231 636 LINE"
);
}
);
width = 362;
}
);
unicode = 0049;
},
{
glyphname = J;
lastChange = "2017-11-21 14:35:46 +0000";
layers = (
{
background = {
paths = (
{
closed = 1;
nodes = (
"301 42 LINE",
"274 12 LINE",
"208 -13 LINE",
"170 -13 LINE",
"129 -13 LINE",
"47 10 LINE",
"13 27 LINE",
"13 191 LINE",
"64 201 LINE",
"101 53 LINE",
"130 43 LINE",
"156 43 LINE",
"189 43 LINE",
"228 72 LINE",
"247 120 LINE",
"251 183 LINE",
"251 218 LINE",
"251 261 LINE",
"251 636 LINE",
"157 655 LINE",
"167 700 LINE",
"439 700 LINE",
"439 665 LINE",
"352 636 LINE",
"352 269 LINE",
"352 240 LINE",
"351 180 LINE",
"342 121 LINE",
"321 66 LINE"
);
}
);
};
hints = (
{
place = "{252, 145}";
},
{
horizontal = 1;
place = "{-13, 69}";
},
{
horizontal = 1;
place = "{708, -20}";
target = down;
type = TopGhost;
}
);
layerId = "03739D6D-2A00-4CFA-A48A-FF6A1F8AF183";
paths = (
{
closed = 1;
nodes = (
"397 639 LINE",
"492 668 LINE",
"492 708 LINE",
"167 708 LINE",
"157 658 LINE",
"252 639 LINE",
"252 261 LINE",
"252 218 LINE SMOOTH",
"252 126 OFFCURVE",
"242 56 OFFCURVE",
"162 56 CURVE SMOOTH",
"148 56 OFFCURVE",
"144 55 OFFCURVE",
"124 63 CURVE",
"107 207 LINE",
"33 192 LINE",
"33 27 LINE",
"73 2 OFFCURVE",
"149 -13 OFFCURVE",
"191 -13 CURVE SMOOTH",
"260 -13 OFFCURVE",
"311 2 OFFCURVE",
"346 42 CURVE",
"399 106 OFFCURVE",
"397 192 OFFCURVE",
"397 269 CURVE"
);
}
);
width = 518;
},
{
background = {
paths = (
{
closed = 1;
nodes = (
"321 42 LINE",
"294 12 LINE",
"228 -13 LINE",
"190 -13 LINE",
"149 -13 LINE",
"67 10 LINE",
"33 27 LINE",
"33 191 LINE",
"84 201 LINE",
"121 53 LINE",
"150 43 LINE",
"176 43 LINE",
"209 43 LINE",
"248 72 LINE",
"267 120 LINE",
"271 183 LINE",
"271 218 LINE",
"271 261 LINE",
"271 636 LINE",
"177 655 LINE",
"187 700 LINE",
"459 700 LINE",
"459 665 LINE",
"372 636 LINE",
"372 269 LINE",
"372 240 LINE",
"371 180 LINE",
"362 121 LINE",
"341 66 LINE"
);
}
);
};
hints = (
{
place = "{272, 100}";
},
{
horizontal = 1;
place = "{-13, 56}";
},
{
horizontal = 1;
place = "{665, 35}";
},
{
horizontal = 1;
place = "{636, 64}";
},
{
horizontal = 1;
place = "{655, 45}";
}
);
layerId = UUID0;
paths = (
{
closed = 1;
nodes = (
"374 106 OFFCURVE",
"372 192 OFFCURVE",
"372 269 CURVE SMOOTH",
"372 636 LINE",
"460 665 LINE",
"460 700 LINE",
"187 700 LINE",
"177 655 LINE",
"272 636 LINE",
"272 261 LINE",
"272 218 LINE SMOOTH",
"272 126 OFFCURVE",
"266 43 OFFCURVE",
"176 43 CURVE SMOOTH",
"159 43 OFFCURVE",
"141 46 OFFCURVE",
"121 53 CURVE",
"85 201 LINE",
"33 191 LINE",
"33 27 LINE",
"80 4 OFFCURVE",
"136 -13 OFFCURVE",
"191 -13 CURVE SMOOTH",
"240 -13 OFFCURVE",
"286 2 OFFCURVE",
"321 42 CURVE"
);
}
);
width = 483;
}
);
unicode = 004A;
},
{
glyphname = K;
lastChange = "2017-11-21 14:35:46 +0000";
layers = (
{
background = {
paths = (
{
closed = 1;
nodes = (
"245 328 LINE",
"245 64 LINE",
"330 45 LINE",
"320 0 LINE",
"50 0 LINE",
"50 35 LINE",
"145 64 LINE",
"145 636 LINE",
"50 655 LINE",
"60 700 LINE",
"320 700 LINE",
"320 665 LINE",
"245 636 LINE",
"245 383 LINE",
"335 383 LINE",
"526 645 LINE",
"462 655 LINE",
"472 700 LINE",
"673 700 LINE",
"673 665 LINE",
"588 637 LINE",
"403 385 LINE",
"619 63 LINE",
"714 45 LINE",
"704 0 LINE",
"541 0 LINE",
"321 328 LINE"
);
}
);
};
hints = (
{
place = "{120, 145}";
},
{
horizontal = 1;
place = "{313, 80}";
},
{
horizontal = 1;
place = "{0, 21}";
target = up;
type = BottomGhost;
},
{
horizontal = 1;
place = "{710, -20}";
target = down;
type = TopGhost;
}
);
layerId = "03739D6D-2A00-4CFA-A48A-FF6A1F8AF183";
paths = (
{
closed = 1;
nodes = (
"336 313 LINE",
"547 0 LINE",
"731 0 LINE",
"743 56 LINE",
"678 68 LINE",
"439 391 LINE",
"624 642 LINE",
"709 670 LINE",
"709 710 LINE",
"477 710 LINE",
"467 660 LINE",
"531 650 LINE",
"340 393 LINE",
"265 393 LINE",
"265 641 LINE",
"340 670 LINE",
"340 710 LINE",
"35 710 LINE",
"25 660 LINE",
"120 641 LINE",
"120 69 LINE",
"25 40 LINE",
"25 0 LINE",
"340 0 LINE",
"350 50 LINE",
"265 69 LINE",
"265 313 LINE"
);
}
);
width = 786;
},
{
background = {
paths = (
{
closed = 1;
nodes = (
"231 328 LINE",
"231 64 LINE",
"316 45 LINE",
"306 0 LINE",
"36 0 LINE",
"36 35 LINE",
"131 64 LINE",
"131 636 LINE",
"36 655 LINE",
"46 700 LINE",
"306 700 LINE",
"306 665 LINE",
"231 636 LINE",
"231 383 LINE",
"321 383 LINE",
"512 645 LINE",
"448 655 LINE",
"458 700 LINE",
"659 700 LINE",
"659 665 LINE",
"574 637 LINE",
"389 385 LINE",
"605 63 LINE",
"700 45 LINE",
"690 0 LINE",
"527 0 LINE",
"307 328 LINE"
);
}
);
};
hints = (
{
place = "{131, 100}";
},
{
horizontal = 1;
place = "{0, 35}";
},
{
horizontal = 1;
place = "{328, 55}";
},
{
horizontal = 1;
place = "{665, 35}";
},
{
horizontal = 1;
place = "{655, 45}";
},
{
horizontal = 1;
place = "{645, 55}";
},
{
horizontal = 1;
place = "{0, 64}";
},
{
horizontal = 1;
place = "{636, 64}";
}
);
layerId = UUID0;
paths = (
{
closed = 1;
nodes = (
"307 328 LINE",
"527 0 LINE",
"690 0 LINE",
"700 45 LINE",
"605 63 LINE",
"389 385 LINE",
"574 637 LINE",
"659 665 LINE",
"659 700 LINE",
"458 700 LINE",
"448 655 LINE",
"512 645 LINE",
"321 383 LINE",
"231 383 LINE",
"231 636 LINE",
"306 665 LINE",
"306 700 LINE",
"46 700 LINE",
"36 655 LINE",
"131 636 LINE",
"131 64 LINE",
"36 35 LINE",
"36 0 LINE",
"306 0 LINE",
"316 45 LINE",
"231 64 LINE",
"231 328 LINE"
);
}
);
width = 687;
}
);
unicode = 004B;
},
{
glyphname = L;
lastChange = "2017-11-21 14:35:46 +0000";
layers = (
{
background = {
paths = (
{
closed = 1;
nodes = (
"517 199 LINE",
"567 189 LINE",
"567 0 LINE",
"60 0 LINE",
"60 35 LINE",
"155 64 LINE",
"155 636 LINE",
"60 655 LINE",
"70 700 LINE",
"360 700 LINE",
"360 665 LINE",
"255 636 LINE",
"255 55 LINE",
"483 55 LINE"
);
}
);
};
hints = (
{
place = "{120, 145}";
},
{
horizontal = 1;
place = "{0, 80}";
},
{
horizontal = 1;
place = "{710, -20}";
target = down;
type = TopGhost;
}
);
layerId = "03739D6D-2A00-4CFA-A48A-FF6A1F8AF183";
paths = (
{
closed = 1;
nodes = (
"576 0 LINE",
"576 214 LINE",
"510 224 LINE",
"483 80 LINE",
"265 80 LINE",
"265 641 LINE",
"370 670 LINE",
"370 710 LINE",
"35 710 LINE",
"25 660 LINE",
"120 641 LINE",
"120 74 LINE",
"25 40 LINE",
"25 0 LINE"
);
}
);
width = 610;
},
{
background = {
paths = (
{
closed = 1;
nodes = (
"493 199 LINE",
"543 189 LINE",
"543 0 LINE",
"36 0 LINE",
"36 35 LINE",
"131 64 LINE",
"131 636 LINE",
"36 655 LINE",
"46 700 LINE",
"336 700 LINE",
"336 665 LINE",
"231 636 LINE",
"231 55 LINE",
"459 55 LINE"
);
}
);
};
hints = (
{
place = "{131, 100}";
},
{
place = "{493, 50}";
},
{
horizontal = 1;
place = "{0, 55}";
},
{
horizontal = 1;
place = "{665, 35}";
},
{
horizontal = 1;
place = "{636, 64}";
},
{
horizontal = 1;
place = "{655, 45}";
}
);
layerId = UUID0;
paths = (
{
closed = 1;
nodes = (
"459 55 LINE",
"231 55 LINE",
"231 636 LINE",
"336 665 LINE",
"336 700 LINE",
"46 700 LINE",
"36 655 LINE",
"131 636 LINE",
"131 64 LINE",
"36 35 LINE",
"36 0 LINE",
"543 0 LINE",
"543 189 LINE",
"493 199 LINE"
);
}
);
width = 562;
}
);
unicode = 004C;
},
{
glyphname = M;
lastChange = "2017-11-21 14:35:46 +0000";
layers = (
{
background = {
paths = (
{
closed = 1;
nodes = (
"829 636 LINE",
"829 64 LINE",
"924 45 LINE",
"914 0 LINE",
"635 0 LINE",
"635 35 LINE",
"729 63 LINE",
"729 567 LINE",
"482 64 LINE",
"447 64 LINE",
"199 554 LINE",
"199 64 LINE",
"294 45 LINE",
"284 0 LINE",
"44 0 LINE",
"44 35 LINE",
"139 64 LINE",
"139 636 LINE",
"45 655 LINE",
"55 700 LINE",
"232 700 LINE",
"484 200 LINE",
"730 700 LINE",
"924 700 LINE",
"924 665 LINE"
);
}
);
};
hints = (
{
place = "{124, 85}";
},
{
place = "{714, 145}";
},
{
horizontal = 1;
place = "{710, -20}";
target = down;
type = TopGhost;
},
{
horizontal = 1;
place = "{0, 21}";
target = up;
type = BottomGhost;
}
);
layerId = "03739D6D-2A00-4CFA-A48A-FF6A1F8AF183";
paths = (
{
closed = 1;
nodes = (
"954 670 LINE",
"954 710 LINE",
"699 710 LINE",
"498 272 LINE",
"275 710 LINE",
"40 710 LINE",
"30 660 LINE",
"124 641 LINE",
"124 69 LINE",
"29 40 LINE",
"29 0 LINE",
"294 0 LINE",
"304 50 LINE",
"209 69 LINE",
"209 534 LINE",
"447 64 LINE",
"492 64 LINE",
"714 552 LINE",
"714 68 LINE",
"620 40 LINE",
"620 0 LINE",
"944 0 LINE",
"954 50 LINE",
"859 69 LINE",
"859 641 LINE"
);
}
);
width = 982;
},
{
background = {
paths = (
{
closed = 1;
nodes = (
"821 636 LINE",
"821 64 LINE",
"916 45 LINE",
"906 0 LINE",
"627 0 LINE",
"627 35 LINE",
"721 63 LINE",
"721 567 LINE",
"474 64 LINE",
"439 64 LINE",
"191 554 LINE",
"191 64 LINE",
"286 45 LINE",
"276 0 LINE",
"36 0 LINE",
"36 35 LINE",
"131 64 LINE",
"131 636 LINE",
"37 655 LINE",
"47 700 LINE",
"224 700 LINE",
"476 200 LINE",
"722 700 LINE",
"916 700 LINE",
"916 665 LINE"
);
}
);
};
hints = (
{
place = "{131, 60}";
},
{
place = "{721, 100}";
},
{
horizontal = 1;
place = "{0, 35}";
},
{
horizontal = 1;
place = "{665, 35}";
},
{
horizontal = 1;
place = "{655, 45}";
},
{
horizontal = 1;
place = "{636, 64}";
}
);
layerId = UUID0;
paths = (
{
closed = 1;
nodes = (
"916 665 LINE",
"916 700 LINE",
"722 700 LINE",
"476 200 LINE",
"224 700 LINE",
"47 700 LINE",
"37 655 LINE",
"131 636 LINE",
"131 64 LINE",
"36 35 LINE",
"36 0 LINE",
"276 0 LINE",
"286 45 LINE",
"191 64 LINE",
"191 554 LINE",
"439 64 LINE",
"474 64 LINE",
"721 567 LINE",
"721 63 LINE",
"627 35 LINE",
"627 0 LINE",
"906 0 LINE",
"916 45 LINE",
"821 64 LINE",
"821 636 LINE"
);
}
);
width = 952;
}
);
unicode = 004D;
},
{
glyphname = N;
lastChange = "2017-11-21 14:35:46 +0000";
layers = (
{
background = {
paths = (
{
closed = 1;
nodes = (
"197 700 LINE",
"606 157 LINE",
"606 636 LINE",
"512 655 LINE",
"522 700 LINE",
"761 700 LINE",
"761 665 LINE",
"666 636 LINE",
"666 0 LINE",
"606 0 LINE",
"197 544 LINE",
"197 64 LINE",
"292 45 LINE",
"282 0 LINE",
"42 0 LINE",
"42 35 LINE",
"137 64 LINE",
"137 636 LINE",
"42 655 LINE",
"52 700 LINE"
);
}
);
};
hints = (
{
place = "{120, 85}";
},
{
place = "{601, 85}";
},
{
horizontal = 1;
place = "{0, 21}";
target = up;
type = BottomGhost;
},
{
horizontal = 1;
place = "{710, -20}";
target = down;
type = TopGhost;
}
);
layerId = "03739D6D-2A00-4CFA-A48A-FF6A1F8AF183";
paths = (
{
closed = 1;
nodes = (
"601 0 LINE",
"601 0 OFFCURVE",
"686 0 OFFCURVE",
"686 0 CURVE",
"686 641 LINE",
"781 670 LINE",
"781 710 LINE",
"516 710 LINE",
"506 660 LINE",
"601 641 LINE",
"601 235 LINE",
"249 710 LINE",
"36 710 LINE",
"26 660 LINE",
"120 641 LINE",
"120 69 LINE",
"25 40 LINE",
"25 0 LINE",
"290 0 LINE",
"300 50 LINE",
"205 69 LINE",
"205 534 LINE"
);
}
);
width = 812;
},
{
background = {
paths = (
{
closed = 1;
nodes = (
"191 700 LINE",
"600 157 LINE",
"600 636 LINE",
"506 655 LINE",
"516 700 LINE",
"755 700 LINE",
"755 665 LINE",
"660 636 LINE",
"660 0 LINE",
"600 0 LINE",
"191 544 LINE",
"191 64 LINE",
"286 45 LINE",
"276 0 LINE",
"36 0 LINE",
"36 35 LINE",
"131 64 LINE",
"131 636 LINE",
"36 655 LINE",
"46 700 LINE"
);
}
);
};
hints = (
{
place = "{131, 60}";
},
{
place = "{600, 60}";
},
{
horizontal = 1;
place = "{0, 35}";
},
{
horizontal = 1;
place = "{665, 35}";
},
{
horizontal = 1;
place = "{655, 45}";
},
{
horizontal = 1;
place = "{0, 64}";
},
{
horizontal = 1;
place = "{636, 64}";
}
);
layerId = UUID0;
paths = (
{
closed = 1;
nodes = (
"46 700 LINE",
"36 655 LINE",
"131 636 LINE",
"131 64 LINE",
"36 35 LINE",
"36 0 LINE",
"276 0 LINE",
"286 45 LINE",
"191 64 LINE",
"191 544 LINE",
"600 0 LINE",
"660 0 LINE",
"660 636 LINE",
"755 665 LINE",
"755 700 LINE",
"516 700 LINE",
"506 655 LINE",
"600 636 LINE",
"600 157 LINE",
"191 700 LINE"
);
}
);
width = 782;
}
);
unicode = 004E;
},
{
glyphname = O;
lastChange = "2017-11-21 14:35:46 +0000";
layers = (
{
background = {
paths = (
{
closed = 1;
nodes = (
"411 41 LINE",
"461 41 LINE",
"543 89 LINE",
"601 169 LINE",
"633 275 LINE",
"633 332 LINE",
"633 394 LINE",
"605 512 LINE",
"545 603 LINE",
"452 659 LINE",
"388 659 LINE",
"338 659 LINE",
"256 611 LINE",
"198 531 LINE",
"166 425 LINE",
"166 368 LINE",
"166 306 LINE",
"194 188 LINE",
"254 97 LINE",
"347 41 LINE"
);
},
{
closed = 1;
nodes = (
"399 714 LINE",
"482 714 LINE",
"609 654 LINE",
"694 553 LINE",
"738 421 LINE",
"738 349 LINE",
"738 274 LINE",
"691 141 LINE",
"604 43 LINE",
"479 -14 LINE",
"400 -14 LINE",
"317 -14 LINE",
"190 46 LINE",
"104 147 LINE",
"61 279 LINE",
"61 351 LINE",
"61 426 LINE",
"108 559 LINE",
"195 657 LINE",
"320 714 LINE"
);
}
);
};
hints = (
{
place = "{36, 152}";
},
{
place = "{610, 153}";
},
{
horizontal = 1;
place = "{-14, 70}";
},
{
horizontal = 1;
place = "{654, 70}";
}
);
layerId = "03739D6D-2A00-4CFA-A48A-FF6A1F8AF183";
paths = (
{
closed = 1;
nodes = (
"242 56 OFFCURVE",
"188 233 OFFCURVE",
"188 378 CURVE SMOOTH",
"188 511 OFFCURVE",
"263 654 OFFCURVE",
"388 654 CURVE SMOOTH",
"557 654 OFFCURVE",
"610 487 OFFCURVE",
"610 342 CURVE SMOOTH",
"610 209 OFFCURVE",
"541 56 OFFCURVE",
"411 56 CURVE SMOOTH"
);
},
{
closed = 1;
nodes = (
"179 724 OFFCURVE",
"36 582 OFFCURVE",
"36 361 CURVE SMOOTH",
"36 149 OFFCURVE",
"168 -14 OFFCURVE",
"400 -14 CURVE SMOOTH",
"630 -14 OFFCURVE",
"763 138 OFFCURVE",
"763 359 CURVE SMOOTH",
"763 561 OFFCURVE",
"630 724 OFFCURVE",
"399 724 CURVE SMOOTH"
);
}
);
width = 801;
},
{
background = {
paths = (
{
closed = 1;
nodes = (
"394 41 LINE",
"444 41 LINE",
"526 89 LINE",
"584 169 LINE",
"616 275 LINE",
"616 332 LINE",
"616 394 LINE",
"588 512 LINE",
"528 603 LINE",
"435 659 LINE",
"371 659 LINE",
"321 659 LINE",
"239 611 LINE",
"181 531 LINE",
"149 425 LINE",
"149 368 LINE",
"149 306 LINE",
"177 188 LINE",
"237 97 LINE",
"330 41 LINE"
);
},
{
closed = 1;
nodes = (
"382 714 LINE",
"465 714 LINE",
"592 654 LINE",
"677 553 LINE",
"721 421 LINE",
"721 349 LINE",
"721 274 LINE",
"674 141 LINE",
"587 43 LINE",
"462 -14 LINE",
"383 -14 LINE",
"300 -14 LINE",
"173 46 LINE",
"87 147 LINE",
"44 279 LINE",
"44 351 LINE",
"44 426 LINE",
"91 559 LINE",
"178 657 LINE",
"303 714 LINE"
);
}
);
};
hints = (
{
place = "{44, 105}";
},
{
place = "{616, 105}";
},
{
horizontal = 1;
place = "{-14, 55}";
},
{
horizontal = 1;
place = "{659, 55}";
}
);
layerId = UUID0;
paths = (
{
closed = 1;
nodes = (
"222 41 OFFCURVE",
"149 203 OFFCURVE",
"149 368 CURVE SMOOTH",
"149 521 OFFCURVE",
"238 659 OFFCURVE",
"371 659 CURVE SMOOTH",
"543 659 OFFCURVE",
"616 497 OFFCURVE",
"616 332 CURVE SMOOTH",
"616 179 OFFCURVE",
"527 41 OFFCURVE",
"394 41 CURVE SMOOTH"
);
},
{
closed = 1;
nodes = (
"172 714 OFFCURVE",
"44 552 OFFCURVE",
"44 351 CURVE SMOOTH",
"44 159 OFFCURVE",
"161 -14 OFFCURVE",
"383 -14 CURVE SMOOTH",
"593 -14 OFFCURVE",
"721 148 OFFCURVE",
"721 349 CURVE SMOOTH",
"721 541 OFFCURVE",
"603 714 OFFCURVE",
"382 714 CURVE SMOOTH"
);
}
);
width = 765;
}
);
unicode = 004F;
},
{
glyphname = P;
lastChange = "2017-11-21 14:35:46 +0000";
layers = (
{
background = {
paths = (
{
closed = 1;
nodes = (
"329 700 LINE",
"375 700 LINE",
"472 689 LINE",
"553 645 LINE",
"605 558 LINE",
"605 482 LINE",
"605 415 LINE",
"553 333 LINE",
"472 288 LINE",
"375 272 LINE",
"329 272 LINE",
"265 272 LINE",
"265 64 LINE",
"380 45 LINE",
"370 0 LINE",
"70 0 LINE",
"70 35 LINE",
"165 64 LINE",
"165 636 LINE",
"70 655 LINE",
"80 700 LINE"
);
},
{
closed = 1;
nodes = (
"265 645 LINE",
"265 327 LINE",
"329 327 LINE",
"361 327 LINE",
"422 336 LINE",
"470 367 LINE",
"500 429 LINE",
"500 482 LINE",
"500 529 LINE",
"473 592 LINE",
"427 629 LINE",
"365 645 LINE",
"329 645 LINE"
);
}
);
};
hints = (
{
place = "{120, 145}";
},
{
place = "{480, 155}";
},
{
horizontal = 1;
place = "{262, 80}";
},
{
horizontal = 1;
place = "{630, 80}";
},
{
horizontal = 1;
place = "{0, 21}";
target = up;
type = BottomGhost;
}
);
layerId = "03739D6D-2A00-4CFA-A48A-FF6A1F8AF183";
paths = (
{
closed = 1;
nodes = (
"329 630 LINE SMOOTH",
"434 630 OFFCURVE",
"480 587 OFFCURVE",
"480 492 CURVE SMOOTH",
"480 381 OFFCURVE",
"423 342 OFFCURVE",
"329 342 CURVE SMOOTH",
"265 342 LINE",
"265 630 LINE"
);
},
{
closed = 1;
nodes = (
"120 69 LINE",
"25 40 LINE",
"25 0 LINE",
"370 0 LINE",
"380 50 LINE",
"265 69 LINE",
"265 262 LINE",
"329 262 LINE SMOOTH",
"451 262 OFFCURVE",
"635 294 OFFCURVE",
"635 492 CURVE SMOOTH",
"635 705 OFFCURVE",
"451 710 OFFCURVE",
"329 710 CURVE SMOOTH",
"38 710 LINE",
"26 660 LINE",
"120 641 LINE"
);
}
);
width = 665;
},
{
background = {
paths = (
{
closed = 1;
nodes = (
"295 700 LINE",
"341 700 LINE",
"438 689 LINE",
"519 645 LINE",
"571 558 LINE",
"571 482 LINE",
"571 415 LINE",
"519 333 LINE",
"438 288 LINE",
"341 272 LINE",
"295 272 LINE",
"231 272 LINE",
"231 64 LINE",
"346 45 LINE",
"336 0 LINE",
"36 0 LINE",
"36 35 LINE",
"131 64 LINE",
"131 636 LINE",
"36 655 LINE",
"46 700 LINE"
);
},
{
closed = 1;
nodes = (
"231 645 LINE",
"231 327 LINE",
"295 327 LINE",
"327 327 LINE",
"388 336 LINE",
"436 367 LINE",
"466 429 LINE",
"466 482 LINE",
"466 529 LINE",
"439 592 LINE",
"393 629 LINE",
"331 645 LINE",
"295 645 LINE"
);
}
);
};
hints = (
{
place = "{131, 100}";
},
{
place = "{466, 105}";
},
{
horizontal = 1;
place = "{0, 35}";
},
{
horizontal = 1;
place = "{272, 55}";
},
{
horizontal = 1;
place = "{645, 55}";
},
{
horizontal = 1;
place = "{0, 64}";
}
);
layerId = UUID0;
paths = (
{
closed = 1;
nodes = (
"46 700 LINE",
"36 655 LINE",
"131 636 LINE",
"131 64 LINE",
"36 35 LINE",
"36 0 LINE",
"336 0 LINE",
"346 45 LINE",
"231 64 LINE",
"231 272 LINE",
"295 272 LINE SMOOTH",
"417 272 OFFCURVE",
"571 304 OFFCURVE",
"571 482 CURVE SMOOTH",
"571 685 OFFCURVE",
"417 700 OFFCURVE",
"295 700 CURVE SMOOTH"
);
},
{
closed = 1;
nodes = (
"295 645 LINE SMOOTH",
"390 645 OFFCURVE",
"466 607 OFFCURVE",
"466 482 CURVE SMOOTH",
"466 341 OFFCURVE",
"379 327 OFFCURVE",
"295 327 CURVE SMOOTH",
"231 327 LINE",
"231 645 LINE"
);
}
);
width = 599;
}
);
unicode = 0050;
},
{
glyphname = Q;
lastChange = "2017-11-21 14:35:46 +0000";
layers = (
{
background = {
paths = (
{
closed = 1;
nodes = (
"395 714 LINE",
"478 714 LINE",
"605 654 LINE",
"691 553 LINE",
"735 421 LINE",
"735 349 LINE",
"735 284 LINE",
"700 169 LINE",
"636 76 LINE",
"541 10 LINE",
"483 -4 LINE",
"505 -38 LINE",
"573 -77 LINE",
"646 -94 LINE",
"721 -93 LINE",
"750 -87 LINE",
"750 -124 LINE",
"701 -144 LINE",
"592 -157 LINE",
"488 -133 LINE",
"399 -69 LINE",
"371 -13 LINE",
"295 -8 LINE",
"177 55 LINE",
"97 155 LINE",
"57 282 LINE",
"57 351 LINE",
"57 426 LINE",
"104 559 LINE",
"192 657 LINE",
"317 714 LINE"
);
},
{
closed = 1;
nodes = (
"408 41 LINE",
"457 41 LINE",
"539 89 LINE",
"597 169 LINE",
"630 275 LINE",
"630 332 LINE",
"630 394 LINE",
"601 512 LINE",
"541 603 LINE",
"449 659 LINE",
"385 659 LINE",
"334 659 LINE",
"253 611 LINE",
"195 531 LINE",
"162 425 LINE",
"162 368 LINE",
"162 306 LINE",
"191 188 LINE",
"250 97 LINE",
"344 41 LINE"
);
}
);
};
hints = (
{
place = "{36, 153}";
},
{
place = "{610, 153}";
},
{
horizontal = 1;
place = "{654, 70}";
}
);
layerId = "03739D6D-2A00-4CFA-A48A-FF6A1F8AF183";
paths = (
{
closed = 1;
nodes = (
"179 724 OFFCURVE",
"36 582 OFFCURVE",
"36 361 CURVE SMOOTH",
"36 177 OFFCURVE",
"135 30 OFFCURVE",
"312 -5 CURVE",
"406 -201 OFFCURVE",
"628 -181 OFFCURVE",
"756 -130 CURVE",
"756 -65 LINE",
"682 -79 OFFCURVE",
"545 -82 OFFCURVE",
"480 -7 CURVE",
"660 24 OFFCURVE",
"763 165 OFFCURVE",
"763 359 CURVE SMOOTH",
"763 561 OFFCURVE",
"630 724 OFFCURVE",
"399 724 CURVE SMOOTH"
);
},
{
closed = 1;
nodes = (
"249 56 OFFCURVE",
"189 233 OFFCURVE",
"189 378 CURVE SMOOTH",
"189 511 OFFCURVE",
"265 654 OFFCURVE",
"388 654 CURVE SMOOTH",
"550 654 OFFCURVE",
"610 487 OFFCURVE",
"610 342 CURVE SMOOTH",
"610 209 OFFCURVE",
"534 56 OFFCURVE",
"411 56 CURVE SMOOTH"
);
}
);
width = 793;
},
{
background = {
paths = (
{
closed = 1;
nodes = (
"382 714 LINE",
"465 714 LINE",
"592 654 LINE",
"678 553 LINE",
"722 421 LINE",
"722 349 LINE",
"722 284 LINE",
"687 169 LINE",
"623 76 LINE",
"528 10 LINE",
"470 -4 LINE",
"492 -38 LINE",
"560 -77 LINE",
"633 -94 LINE",
"708 -93 LINE",
"737 -87 LINE",
"737 -124 LINE",
"688 -144 LINE",
"579 -157 LINE",
"475 -133 LINE",
"386 -69 LINE",
"358 -13 LINE",
"282 -8 LINE",
"164 55 LINE",
"84 155 LINE",
"44 282 LINE",
"44 351 LINE",
"44 426 LINE",
"91 559 LINE",
"179 657 LINE",
"304 714 LINE"
);
},
{
closed = 1;
nodes = (
"395 41 LINE",
"444 41 LINE",
"526 89 LINE",
"584 169 LINE",
"617 275 LINE",
"617 332 LINE",
"617 394 LINE",
"588 512 LINE",
"528 603 LINE",
"436 659 LINE",
"372 659 LINE",
"321 659 LINE",
"240 611 LINE",
"182 531 LINE",
"149 425 LINE",
"149 368 LINE",
"149 306 LINE",
"178 188 LINE",
"237 97 LINE",
"331 41 LINE"
);
}
);
};
hints = (
{
place = "{44, 105}";
},
{
place = "{616, 105}";
},
{
horizontal = 1;
place = "{-152, 58}";
},
{
horizontal = 1;
place = "{-4, 45}";
},
{
horizontal = 1;
place = "{659, 55}";
}
);
layerId = UUID0;
paths = (
{
closed = 1;
nodes = (
"172 714 OFFCURVE",
"44 552 OFFCURVE",
"44 351 CURVE SMOOTH",
"44 167 OFFCURVE",
"152 0 OFFCURVE",
"358 -13 CURVE",
"431 -163 OFFCURVE",
"607 -177 OFFCURVE",
"737 -124 CURVE",
"737 -87 LINE",
"659 -103 OFFCURVE",
"528 -95 OFFCURVE",
"469 -4 CURVE",
"627 34 OFFCURVE",
"721 177 OFFCURVE",
"721 349 CURVE SMOOTH",
"721 541 OFFCURVE",
"603 714 OFFCURVE",
"382 714 CURVE SMOOTH"
);
},
{
closed = 1;
nodes = (
"222 41 OFFCURVE",
"149 203 OFFCURVE",
"149 368 CURVE SMOOTH",
"149 521 OFFCURVE",
"238 659 OFFCURVE",
"371 659 CURVE SMOOTH",
"543 659 OFFCURVE",
"616 497 OFFCURVE",
"616 332 CURVE SMOOTH",
"616 179 OFFCURVE",
"527 41 OFFCURVE",
"394 41 CURVE SMOOTH"
);
}
);
width = 766;
}
);
unicode = 0051;
},
{
glyphname = R;
lastChange = "2017-11-21 14:35:46 +0000";
layers = (
{
background = {
paths = (
{
closed = 1;
nodes = (
"319 700 LINE",
"365 700 LINE",
"464 687 LINE",
"546 644 LINE",
"600 559 LINE",
"600 487 LINE",
"600 452 LINE",
"580 396 LINE",
"546 354 LINE",
"500 323 LINE",
"473 313 LINE",
"626 61 LINE",
"707 45 LINE",
"697 0 LINE",
"546 0 LINE",
"376 290 LINE",
"346 287 LINE",
"319 287 LINE",
"255 287 LINE",
"255 64 LINE",
"350 45 LINE",
"340 0 LINE",
"60 0 LINE",
"60 35 LINE",
"155 64 LINE",
"155 636 LINE",
"60 655 LINE",
"70 700 LINE"
);
},
{
closed = 1;
nodes = (
"255 645 LINE",
"255 342 LINE",
"319 342 LINE",
"351 342 LINE",
"414 352 LINE",
"464 383 LINE",
"495 440 LINE",
"495 487 LINE",
"495 536 LINE",
"464 597 LINE",
"414 632 LINE",
"351 645 LINE",
"319 645 LINE"
);
}
);
};
hints = (
{
place = "{120, 145}";
},
{
place = "{480, 155}";
},
{
horizontal = 1;
place = "{277, 80}";
},
{
horizontal = 1;
place = "{630, 80}";
},
{
horizontal = 1;
place = "{0, 21}";
target = up;
type = BottomGhost;
}
);
layerId = "03739D6D-2A00-4CFA-A48A-FF6A1F8AF183";
paths = (
{
closed = 1;
nodes = (
"498 313 LINE",
"564 345 OFFCURVE",
"635 397 OFFCURVE",
"635 497 CURVE SMOOTH",
"635 699 OFFCURVE",
"451 710 OFFCURVE",
"329 710 CURVE",
"38 710 LINE",
"26 660 LINE",
"120 641 LINE",
"120 69 LINE",
"25 40 LINE",
"25 0 LINE",
"348 0 LINE",
"358 50 LINE",
"265 68 LINE",
"265 277 LINE",
"319 277 LINE SMOOTH",
"335 277 OFFCURVE",
"345 277 OFFCURVE",
"362 278 CURVE",
"549 0 LINE",
"725 0 LINE",
"739 57 LINE",
"680 68 LINE"
);
},
{
closed = 1;
nodes = (
"329 630 LINE SMOOTH",
"394 630 OFFCURVE",
"480 607 OFFCURVE",
"480 497 CURVE SMOOTH",
"480 382 OFFCURVE",
"404 357 OFFCURVE",
"319 357 CURVE SMOOTH",
"265 357 LINE",
"265 630 LINE"
);
}
);
width = 756;
},
{
background = {
paths = (
{
closed = 1;
nodes = (
"295 700 LINE",
"341 700 LINE",
"440 687 LINE",
"522 644 LINE",
"576 559 LINE",
"576 487 LINE",
"576 452 LINE",
"556 396 LINE",
"522 354 LINE",
"476 323 LINE",
"449 313 LINE",
"602 61 LINE",
"683 45 LINE",
"673 0 LINE",
"522 0 LINE",
"352 290 LINE",
"322 287 LINE",
"295 287 LINE",
"231 287 LINE",
"231 64 LINE",
"326 45 LINE",
"316 0 LINE",
"36 0 LINE",
"36 35 LINE",
"131 64 LINE",
"131 636 LINE",
"36 655 LINE",
"46 700 LINE"
);
},
{
closed = 1;
nodes = (
"231 645 LINE",
"231 342 LINE",
"295 342 LINE",
"327 342 LINE",
"390 352 LINE",
"440 383 LINE",
"471 440 LINE",
"471 487 LINE",
"471 536 LINE",
"440 597 LINE",
"390 632 LINE",
"327 645 LINE",
"295 645 LINE"
);
}
);
};
hints = (
{
place = "{131, 100}";
},
{
place = "{471, 105}";
},
{
horizontal = 1;
place = "{0, 35}";
},
{
horizontal = 1;
place = "{287, 55}";
},
{
horizontal = 1;
place = "{645, 55}";
},
{
horizontal = 1;
place = "{0, 64}";
}
);
layerId = UUID0;
paths = (
{
closed = 1;
nodes = (
"46 700 LINE",
"36 655 LINE",
"131 636 LINE",
"131 64 LINE",
"36 35 LINE",
"36 0 LINE",
"316 0 LINE",
"326 45 LINE",
"231 64 LINE",
"231 287 LINE",
"295 287 LINE SMOOTH",
"313 287 OFFCURVE",
"332 288 OFFCURVE",
"352 290 CURVE",
"522 0 LINE",
"673 0 LINE",
"683 45 LINE",
"602 61 LINE",
"449 313 LINE",
"520 339 OFFCURVE",
"576 394 OFFCURVE",
"576 487 CURVE SMOOTH",
"576 679 OFFCURVE",
"417 700 OFFCURVE",
"295 700 CURVE SMOOTH"
);
},
{
closed = 1;
nodes = (
"295 645 LINE SMOOTH",
"380 645 OFFCURVE",
"471 617 OFFCURVE",
"471 487 CURVE SMOOTH",
"471 362 OFFCURVE",
"380 342 OFFCURVE",
"295 342 CURVE SMOOTH",
"231 342 LINE",
"231 645 LINE"
);
}
);
width = 663;
}
);
unicode = 0052;
},
{
glyphname = S;
lastChange = "2017-11-21 14:35:46 +0000";
layers = (
{
background = {
paths = (
{
closed = 1;
nodes = (
"68 197 LINE",
"118 207 LINE",
"155 62 LINE",
"182 52 LINE",
"236 41 LINE",
"264 41 LINE",
"293 41 LINE",
"346 53 LINE",
"387 83 LINE",
"411 133 LINE",
"411 170 LINE",
"411 216 LINE",
"386 243 LINE",
"361 271 LINE",
"287 311 LINE",
"243 327 LINE",
"221 335 LINE",
"180 356 LINE",
"162 369 LINE",
"124 393 LINE",
"99 430 LINE",
"74 467 LINE",
"74 529 LINE",
"74 563 LINE",
"95 618 LINE",
"131 659 LINE",
"180 687 LINE",
"235 706 LINE",
"295 714 LINE",
"324 714 LINE",
"379 714 LINE",
"424 702 LINE",
"470 691 LINE",
"489 670 LINE",
"489 501 LINE",
"439 491 LINE",
"401 642 LINE",
"360 659 LINE",
"319 659 LINE",
"291 659 LINE",
"240 643 LINE",
"202 611 LINE",
"179 562 LINE",
"179 529 LINE",
"179 488 LINE",
"204 463 LINE",
"229 437 LINE",
"304 398 LINE",
"348 379 LINE",
"391 360 LINE",
"429 334 LINE",
"466 308 LINE",
"491 269 LINE",
"516 229 LINE",
"516 170 LINE",
"516 116 LINE",
"473 45 LINE",
"437 23 LINE",
"420 12 LINE",
"379 -2 LINE",
"336 -11 LINE",
"290 -15 LINE",
"268 -15 LINE",
"235 -15 LINE",
"172 -8 LINE",
"119 4 LINE",
"78 21 LINE",
"68 29 LINE"
);
}
);
};
hints = (
{
place = "{44, 155}";
},
{
place = "{391, 128}";
},
{
place = "{391, 155}";
},
{
horizontal = 1;
place = "{-16, 80}";
},
{
horizontal = 1;
place = "{643, 80}";
}
);
layerId = "03739D6D-2A00-4CFA-A48A-FF6A1F8AF183";
paths = (
{
closed = 1;
nodes = (
"103 224 LINE",
"38 214 LINE",
"38 29 LINE",
"95 7 OFFCURVE",
"190 -16 OFFCURVE",
"287 -16 CURVE SMOOTH",
"422 -16 OFFCURVE",
"546 27 OFFCURVE",
"546 173 CURVE SMOOTH",
"546 418 OFFCURVE",
"199 389 OFFCURVE",
"199 535 CURVE SMOOTH",
"199 616 OFFCURVE",
"265 643 OFFCURVE",
"332 643 CURVE SMOOTH",
"363 643 OFFCURVE",
"395 638 OFFCURVE",
"420 628 CURVE",
"454 481 LINE",
"519 491 LINE",
"519 680 LINE",
"472 706 OFFCURVE",
"395 723 OFFCURVE",
"317 723 CURVE SMOOTH",
"183 723 OFFCURVE",
"44 674 OFFCURVE",
"44 536 CURVE SMOOTH",
"44 286 OFFCURVE",
"391 324 OFFCURVE",
"391 173 CURVE SMOOTH",
"391 90 OFFCURVE",
"339 67 OFFCURVE",
"279 64 CURVE SMOOTH",
"209 60 OFFCURVE",
"166 73 OFFCURVE",
"136 82 CURVE"
);
}
);
width = 582;
},
{
background = {
paths = (
{
closed = 1;
nodes = (
"52 197 LINE",
"102 207 LINE",
"139 62 LINE",
"166 52 LINE",
"220 41 LINE",
"248 41 LINE",
"277 41 LINE",
"330 53 LINE",
"371 83 LINE",
"395 133 LINE",
"395 170 LINE",
"395 216 LINE",
"370 243 LINE",
"345 271 LINE",
"271 311 LINE",
"227 327 LINE",
"205 335 LINE",
"164 356 LINE",
"146 369 LINE",
"108 393 LINE",
"83 430 LINE",
"58 467 LINE",
"58 529 LINE",
"58 563 LINE",
"79 618 LINE",
"115 659 LINE",
"164 687 LINE",
"219 706 LINE",
"279 714 LINE",
"308 714 LINE",
"363 714 LINE",
"408 702 LINE",
"454 691 LINE",
"473 670 LINE",
"473 501 LINE",
"423 491 LINE",
"385 642 LINE",
"344 659 LINE",
"303 659 LINE",
"275 659 LINE",
"224 643 LINE",
"186 611 LINE",
"163 562 LINE",
"163 529 LINE",
"163 488 LINE",
"188 463 LINE",
"213 437 LINE",
"288 398 LINE",
"332 379 LINE",
"375 360 LINE",
"413 334 LINE",
"450 308 LINE",
"475 269 LINE",
"500 229 LINE",
"500 170 LINE",
"500 116 LINE",
"457 45 LINE",
"421 23 LINE",
"404 12 LINE",
"363 -2 LINE",
"320 -11 LINE",
"274 -15 LINE",
"252 -15 LINE",
"219 -15 LINE",
"156 -8 LINE",
"103 4 LINE",
"62 21 LINE",
"52 29 LINE"
);
}
);
};
hints = (
{
place = "{58, 105}";
},
{
place = "{395, 105}";
},
{
place = "{423, 50}";
},
{
horizontal = 1;
place = "{-15, 56}";
},
{
horizontal = 1;
place = "{659, 54}";
}
);
layerId = UUID0;
paths = (
{
closed = 1;
nodes = (
"52 29 LINE",
"78 8 OFFCURVE",
"165 -15 OFFCURVE",
"252 -15 CURVE SMOOTH",
"380 -15 OFFCURVE",
"500 27 OFFCURVE",
"500 173 CURVE SMOOTH",
"500 408 OFFCURVE",
"163 369 OFFCURVE",
"163 525 CURVE SMOOTH",
"163 613 OFFCURVE",
"225 659 OFFCURVE",
"303 659 CURVE SMOOTH",
"330 659 OFFCURVE",
"357 652 OFFCURVE",
"385 641 CURVE",
"423 491 LINE",
"473 501 LINE",
"473 670 LINE",
"446 697 OFFCURVE",
"381 713 OFFCURVE",
"308 713 CURVE SMOOTH",
"184 713 OFFCURVE",
"58 662 OFFCURVE",
"58 526 CURVE SMOOTH",
"58 286 OFFCURVE",
"395 354 OFFCURVE",
"395 173 CURVE SMOOTH",
"395 74 OFFCURVE",
"333 41 OFFCURVE",
"248 41 CURVE SMOOTH",
"211 41 OFFCURVE",
"174 49 OFFCURVE",
"139 62 CURVE",
"102 207 LINE",
"52 197 LINE"
);
}
);
width = 545;
}
);
unicode = 0053;
},
{
glyphname = T;
lastChange = "2017-11-21 14:35:46 +0000";
layers = (
{
background = {
paths = (
{
closed = 1;
nodes = (
"80 501 LINE",
"30 511 LINE",
"30 700 LINE",
"617 700 LINE",
"617 511 LINE",
"567 501 LINE",
"534 645 LINE",
"375 645 LINE",
"375 64 LINE",
"470 45 LINE",
"460 0 LINE",
"180 0 LINE",
"180 35 LINE",
"275 64 LINE",
"275 645 LINE",
"113 645 LINE"
);
},
{
closed = 1;
nodes = (
"113 645 LINE",
"275 645 LINE",
"275 64 LINE",
"180 35 LINE",
"180 0 LINE",
"460 0 LINE",
"470 45 LINE",
"375 64 LINE",
"375 645 LINE",
"534 645 LINE",
"567 501 LINE",
"617 511 LINE",
"617 700 LINE",
"30 700 LINE",
"30 511 LINE",
"80 501 LINE"
);
}
);
};
hints = (
{
place = "{277, 145}";
},
{
horizontal = 1;
place = "{630, 80}";
},
{
horizontal = 1;
place = "{0, 21}";
target = up;
type = BottomGhost;
}
);
layerId = "03739D6D-2A00-4CFA-A48A-FF6A1F8AF183";
paths = (
{
closed = 1;
nodes = (
"673 710 LINE",
"26 710 LINE",
"26 496 LINE",
"92 486 LINE",
"119 630 LINE",
"277 630 LINE",
"277 69 LINE",
"172 40 LINE",
"172 0 LINE",
"507 0 LINE",
"517 50 LINE",
"422 69 LINE",
"422 630 LINE",
"580 630 LINE",
"607 486 LINE",
"673 496 LINE"
);
}
);
width = 702;
},
{
background = {
paths = (
{
closed = 1;
nodes = (
"70 501 LINE",
"20 511 LINE",
"20 700 LINE",
"607 700 LINE",
"607 511 LINE",
"557 501 LINE",
"524 645 LINE",
"365 645 LINE",
"365 64 LINE",
"460 45 LINE",
"450 0 LINE",
"170 0 LINE",
"170 35 LINE",
"265 64 LINE",
"265 645 LINE",
"103 645 LINE"
);
}
);
};
hints = (
{
place = "{20, 50}";
},
{
place = "{265, 100}";
},
{
place = "{557, 50}";
},
{
horizontal = 1;
place = "{0, 35}";
},
{
horizontal = 1;
place = "{645, 55}";
},
{
horizontal = 1;
place = "{0, 64}";
}
);
layerId = UUID0;
paths = (
{
closed = 1;
nodes = (
"103 645 LINE",
"265 645 LINE",
"265 64 LINE",
"170 35 LINE",
"170 0 LINE",
"450 0 LINE",
"460 45 LINE",
"365 64 LINE",
"365 645 LINE",
"524 645 LINE",
"557 501 LINE",
"607 511 LINE",
"607 700 LINE",
"20 700 LINE",
"20 511 LINE",
"70 501 LINE"
);
}
);
width = 627;
}
);
unicode = 0054;
},
{
glyphname = U;
lastChange = "2017-11-21 14:35:46 +0000";
layers = (
{
background = {
paths = (
{
closed = 1;
nodes = (
"249 636 LINE",
"249 228 LINE",
"249 134 LINE",
"347 41 LINE",
"438 41 LINE",
"505 41 LINE",
"576 83 LINE",
"606 151 LINE",
"609 233 LINE",
"609 271 LINE",
"607 636 LINE",
"512 655 LINE",
"522 700 LINE",
"762 700 LINE",
"762 665 LINE",
"677 636 LINE",
"677 250 LINE",
"677 207 LINE",
"660 113 LINE",
"609 36 LINE",
"513 -14 LINE",
"434 -14 LINE",
"293 -14 LINE",
"149 99 LINE",
"149 229 LINE",
"149 636 LINE",
"54 655 LINE",
"64 700 LINE",
"344 700 LINE",
"344 665 LINE"
);
}
);
};
hints = (
{
place = "{124, 145}";
},
{
place = "{607, 80}";
},
{
horizontal = 1;
place = "{-15, 77}";
},
{
horizontal = 1;
place = "{710, -20}";
target = down;
type = TopGhost;
}
);
layerId = "03739D6D-2A00-4CFA-A48A-FF6A1F8AF183";
paths = (
{
closed = 1;
nodes = (
"364 670 LINE",
"364 710 LINE",
"39 710 LINE",
"29 660 LINE",
"124 641 LINE",
"124 248 LINE SMOOTH",
"124 75 OFFCURVE",
"226 -15 OFFCURVE",
"434 -15 CURVE SMOOTH",
"660 -15 OFFCURVE",
"687 148 OFFCURVE",
"687 265 CURVE SMOOTH",
"687 641 LINE",
"772 670 LINE",
"772 710 LINE",
"522 710 LINE",
"512 660 LINE",
"607 641 LINE",
"607 291 LINE SMOOTH",
"607 189 OFFCURVE",
"603 62 OFFCURVE",
"438 62 CURVE SMOOTH",
"337 62 OFFCURVE",
"269 122 OFFCURVE",
"269 247 CURVE SMOOTH",
"269 641 LINE"
);
}
);
width = 801;
},
{
background = {
paths = (
{
closed = 1;
nodes = (
"213 636 LINE",
"213 228 LINE",
"213 134 LINE",
"311 41 LINE",
"402 41 LINE",
"469 41 LINE",
"540 83 LINE",
"570 151 LINE",
"573 233 LINE",
"573 271 LINE",
"571 636 LINE",
"476 655 LINE",
"486 700 LINE",
"726 700 LINE",
"726 665 LINE",
"641 636 LINE",
"641 250 LINE",
"641 207 LINE",
"624 113 LINE",
"573 36 LINE",
"477 -14 LINE",
"398 -14 LINE",
"257 -14 LINE",
"113 99 LINE",
"113 229 LINE",
"113 636 LINE",
"18 655 LINE",
"28 700 LINE",
"308 700 LINE",
"308 665 LINE"
);
}
);
};
hints = (
{
place = "{113, 100}";
},
{
place = "{573, 68}";
},
{
horizontal = 1;
place = "{-10, 55}";
},
{
horizontal = 1;
place = "{665, 35}";
},
{
horizontal = 1;
place = "{655, 45}";
},
{
horizontal = 1;
place = "{636, 64}";
}
);
layerId = UUID0;
paths = (
{
closed = 1;
nodes = (
"308 665 LINE",
"308 700 LINE",
"28 700 LINE",
"18 655 LINE",
"113 636 LINE",
"113 233 LINE SMOOTH",
"113 60 OFFCURVE",
"210 -10 OFFCURVE",
"398 -10 CURVE SMOOTH",
"609 -10 OFFCURVE",
"641 138 OFFCURVE",
"641 255 CURVE SMOOTH",
"641 636 LINE",
"726 665 LINE",
"726 700 LINE",
"486 700 LINE",
"476 655 LINE",
"571 636 LINE",
"573 276 LINE SMOOTH",
"573 174 OFFCURVE",
"582 45 OFFCURVE",
"402 45 CURVE SMOOTH",
"281 45 OFFCURVE",
"213 107 OFFCURVE",
"213 232 CURVE SMOOTH",
"213 636 LINE"
);
}
);
width = 749;
}
);
unicode = 0055;
},
{
glyphname = V;
lastChange = "2017-11-21 14:35:46 +0000";
layers = (
{
background = {
paths = (
{
closed = 1;
nodes = (
"388 0 LINE",
"143 636 LINE",
"66 655 LINE",
"76 700 LINE",
"317 700 LINE",
"317 665 LINE",
"242 643 LINE",
"441 131 LINE",
"619 640 LINE",
"533 655 LINE",
"544 700 LINE",
"760 700 LINE",
"760 665 LINE",
"682 637 LINE",
"458 0 LINE"
);
}
);
};
hints = (
{
horizontal = 1;
place = "{0, 21}";
target = up;
type = BottomGhost;
},
{
horizontal = 1;
place = "{710, -20}";
target = down;
type = TopGhost;
}
);
layerId = "03739D6D-2A00-4CFA-A48A-FF6A1F8AF183";
paths = (
{
closed = 1;
nodes = (
"467 0 LINE",
"694 642 LINE",
"772 670 LINE",
"772 710 LINE",
"529 710 LINE",
"519 660 LINE",
"605 645 LINE",
"439 177 LINE",
"259 648 LINE",
"334 670 LINE",
"334 710 LINE",
"45 710 LINE",
"35 660 LINE",
"112 641 LINE",
"357 0 LINE"
);
}
);
width = 806;
},
{
background = {
paths = (
{
closed = 1;
nodes = (
"301 0 LINE",
"56 636 LINE",
"-21 655 LINE",
"-11 700 LINE",
"230 700 LINE",
"230 665 LINE",
"155 643 LINE",
"354 131 LINE",
"532 640 LINE",
"446 655 LINE",
"457 700 LINE",
"673 700 LINE",
"673 665 LINE",
"595 637 LINE",
"371 0 LINE"
);
}
);
};
hints = (
{
place = "{-21, 694}";
},
{
horizontal = 1;
place = "{0, 21}";
target = up;
type = BottomGhost;
},
{
horizontal = 1;
place = "{665, 35}";
},
{
horizontal = 1;
place = "{655, 45}";
}
);
layerId = UUID0;
paths = (
{
closed = 1;
nodes = (
"370 0 LINE",
"595 637 LINE",
"673 665 LINE",
"673 700 LINE",
"456 700 LINE",
"446 655 LINE",
"532 640 LINE",
"353 131 LINE",
"155 643 LINE",
"230 665 LINE",
"230 700 LINE",
"-11 700 LINE",
"-21 655 LINE",
"56 636 LINE",
"301 0 LINE"
);
}
);
width = 661;
}
);
unicode = 0056;
},
{
glyphname = W;
lastChange = "2017-11-21 14:35:46 +0000";
layers = (
{
background = {
paths = (
{
closed = 1;
nodes = (
"270 0 LINE",
"78 637 LINE",
"-2 655 LINE",
"8 700 LINE",
"262 700 LINE",
"262 665 LINE",
"176 641 LINE",
"322 157 LINE",
"509 700 LINE",
"566 700 LINE",
"737 155 LINE",
"904 639 LINE",
"816 655 LINE",
"826 700 LINE",
"1050 700 LINE",
"1050 665 LINE",
"967 639 LINE",
"748 0 LINE",
"686 0 LINE",
"517 538 LINE",
"331 0 LINE"
);
},
{
closed = 1;
nodes = (
"381 0 LINE",
"512 442 LINE",
"645 0 LINE",
"757 0 LINE",
"982 642 LINE",
"1060 670 LINE",
"1060 710 LINE",
"816 710 LINE",
"806 660 LINE",
"892 645 LINE",
"742 198 LINE",
"592 710 LINE",
"507 710 LINE",
"361 205 LINE",
"231 648 LINE",
"306 670 LINE",
"306 710 LINE",
"15 710 LINE",
"5 660 LINE",
"82 641 LINE",
"275 0 LINE"
);
}
);
};
hints = (
{
horizontal = 1;
place = "{0, 21}";
target = up;
type = BottomGhost;
},
{
horizontal = 1;
place = "{710, -20}";
target = down;
type = TopGhost;
}
);
layerId = "03739D6D-2A00-4CFA-A48A-FF6A1F8AF183";
paths = (
{
closed = 1;
nodes = (
"378 0 LINE",
"279 0 LINE",
"85 641 LINE",
"8 660 LINE",
"18 710 LINE",
"302 710 LINE",
"302 670 LINE",
"227 648 LINE",
"351 205 LINE",
"509 710 LINE",
"570 710 LINE",
"727 198 LINE",
"843 645 LINE",
"757 660 LINE",
"767 710 LINE",
"1011 710 LINE",
"1011 670 LINE",
"933 642 LINE",
"742 0 LINE",
"656 0 LINE",
"521 432 LINE",
"378 0 LINE SMOOTH"
);
}
);
width = 1017;
},
{
background = {
paths = (
{
closed = 1;
nodes = (
"264 0 LINE",
"72 637 LINE",
"-8 655 LINE",
"2 700 LINE",
"256 700 LINE",
"256 665 LINE",
"170 641 LINE",
"316 157 LINE",
"503 700 LINE",
"560 700 LINE",
"731 155 LINE",
"898 639 LINE",
"810 655 LINE",
"820 700 LINE",
"1044 700 LINE",
"1044 665 LINE",
"961 639 LINE",
"742 0 LINE",
"680 0 LINE",
"511 538 LINE",
"325 0 LINE"
);
}
);
};
hints = (
{
place = "{-8, 1052}";
},
{
horizontal = 1;
place = "{0, 21}";
target = up;
type = BottomGhost;
},
{
horizontal = 1;
place = "{665, 35}";
},
{
horizontal = 1;
place = "{655, 45}";
}
);
layerId = UUID0;
paths = (
{
closed = 1;
nodes = (
"325 0 LINE",
"511 538 LINE",
"680 0 LINE",
"742 0 LINE",
"961 639 LINE",
"1044 665 LINE",
"1044 700 LINE",
"820 700 LINE",
"810 655 LINE",
"898 639 LINE",
"731 155 LINE",
"560 700 LINE",
"503 700 LINE",
"316 157 LINE",
"170 641 LINE",
"256 665 LINE",
"256 700 LINE",
"2 700 LINE",
"-8 655 LINE",
"72 637 LINE",
"264 0 LINE"
);
}
);
width = 1021;
}
);
unicode = 0057;
},
{
glyphname = X;
lastChange = "2017-11-21 14:35:46 +0000";
layers = (
{
background = {
paths = (
{
closed = 1;
nodes = (
"631 639 LINE",
"433 363 LINE",
"628 64 LINE",
"705 45 LINE",
"695 0 LINE",
"452 0 LINE",
"452 35 LINE",
"520 54 LINE",
"365 293 LINE",
"191 56 LINE",
"263 45 LINE",
"254 0 LINE",
"43 0 LINE",
"43 35 LINE",
"121 62 LINE",
"331 344 LINE",
"142 636 LINE",
"59 655 LINE",
"69 700 LINE",
"321 700 LINE",
"321 665 LINE",
"251 645 LINE",
"400 414 LINE",
"564 644 LINE",
"493 655 LINE",
"504 700 LINE",
"708 700 LINE",
"708 665 LINE"
);
}
);
};
hints = (
{
horizontal = 1;
place = "{710, -20}";
target = down;
type = TopGhost;
},
{
horizontal = 1;
place = "{0, 21}";
target = up;
type = BottomGhost;
}
);
layerId = "03739D6D-2A00-4CFA-A48A-FF6A1F8AF183";
paths = (
{
closed = 1;
nodes = (
"753 670 LINE",
"753 710 LINE",
"515 710 LINE",
"505 660 LINE",
"575 649 LINE",
"415 427 LINE",
"270 650 LINE",
"341 670 LINE",
"341 710 LINE",
"35 710 LINE",
"25 660 LINE",
"108 641 LINE",
"309 333 LINE",
"111 67 LINE",
"32 40 LINE",
"32 0 LINE",
"275 0 LINE",
"285 50 LINE",
"212 61 LINE",
"362 262 LINE",
"501 59 LINE",
"433 40 LINE",
"433 0 LINE",
"731 0 LINE",
"741 50 LINE",
"663 69 LINE",
"469 356 LINE",
"676 644 LINE"
);
}
);
width = 782;
},
{
background = {
paths = (
{
closed = 1;
nodes = (
"585 639 LINE",
"387 363 LINE",
"582 64 LINE",
"659 45 LINE",
"649 0 LINE",
"406 0 LINE",
"406 35 LINE",
"474 54 LINE",
"319 293 LINE",
"145 56 LINE",
"217 45 LINE",
"208 0 LINE",
"-3 0 LINE",
"-3 35 LINE",
"75 62 LINE",
"285 344 LINE",
"96 636 LINE",
"13 655 LINE",
"23 700 LINE",
"275 700 LINE",
"275 665 LINE",
"205 645 LINE",
"354 414 LINE",
"518 644 LINE",
"447 655 LINE",
"458 700 LINE",
"662 700 LINE",
"662 665 LINE"
);
}
);
};
hints = (
{
place = "{-3, 666}";
},
{
horizontal = 1;
place = "{0, 35}";
},
{
horizontal = 1;
place = "{665, 35}";
},
{
horizontal = 1;
place = "{655, 45}";
},
{
horizontal = 1;
place = "{644, 56}";
}
);
layerId = UUID0;
paths = (
{
closed = 1;
nodes = (
"663 665 LINE",
"663 700 LINE",
"458 700 LINE",
"448 655 LINE",
"518 644 LINE",
"355 414 LINE",
"205 645 LINE",
"276 665 LINE",
"276 700 LINE",
"24 700 LINE",
"14 655 LINE",
"97 636 LINE",
"286 344 LINE",
"76 62 LINE",
"-3 35 LINE",
"-3 0 LINE",
"208 0 LINE",
"218 45 LINE",
"145 56 LINE",
"320 293 LINE",
"475 54 LINE",
"407 35 LINE",
"407 0 LINE",
"650 0 LINE",
"660 45 LINE",
"582 64 LINE",
"388 363 LINE",
"586 639 LINE"
);
}
);
width = 664;
}
);
unicode = 0058;
},
{
glyphname = Y;
lastChange = "2017-11-21 14:35:46 +0000";
layers = (
{
background = {
paths = (
{
closed = 1;
nodes = (
"387 64 LINE",
"387 298 LINE",
"172 636 LINE",
"94 655 LINE",
"104 700 LINE",
"349 700 LINE",
"349 665 LINE",
"279 645 LINE",
"453 373 LINE",
"619 643 LINE",
"545 655 LINE",
"555 700 LINE",
"764 700 LINE",
"764 665 LINE",
"683 637 LINE",
"487 319 LINE",
"487 64 LINE",
"582 45 LINE",
"572 0 LINE",
"292 0 LINE",
"292 35 LINE"
);
}
);
};
hints = (
{
place = "{342, 145}";
},
{
horizontal = 1;
place = "{0, 21}";
target = up;
type = BottomGhost;
},
{
horizontal = 1;
place = "{710, -20}";
target = down;
type = TopGhost;
}
);
layerId = "03739D6D-2A00-4CFA-A48A-FF6A1F8AF183";
paths = (
{
closed = 1;
nodes = (
"247 40 LINE",
"247 0 LINE",
"572 0 LINE",
"582 50 LINE",
"487 69 LINE",
"487 314 LINE",
"689 642 LINE",
"770 670 LINE",
"770 710 LINE",
"529 710 LINE",
"519 660 LINE",
"593 648 LINE",
"440 399 LINE",
"277 650 LINE",
"347 670 LINE",
"347 710 LINE",
"43 710 LINE",
"33 660 LINE",
"111 641 LINE",
"342 293 LINE",
"342 69 LINE"
);
}
);
width = 799;
},
{
background = {
paths = (
{
closed = 1;
nodes = (
"273 64 LINE",
"273 298 LINE",
"58 636 LINE",
"-20 655 LINE",
"-10 700 LINE",
"235 700 LINE",
"235 665 LINE",
"165 645 LINE",
"339 373 LINE",
"505 643 LINE",
"431 655 LINE",
"441 700 LINE",
"650 700 LINE",
"650 665 LINE",
"569 637 LINE",
"373 319 LINE",
"373 64 LINE",
"468 45 LINE",
"458 0 LINE",
"178 0 LINE",
"178 35 LINE"
);
}
);
};
hints = (
{
place = "{273, 100}";
},
{
horizontal = 1;
place = "{0, 35}";
},
{
horizontal = 1;
place = "{665, 35}";
},
{
horizontal = 1;
place = "{0, 64}";
},
{
horizontal = 1;
place = "{655, 45}";
},
{
horizontal = 1;
place = "{643, 57}";
}
);
layerId = UUID0;
paths = (
{
closed = 1;
nodes = (
"178 35 LINE",
"178 0 LINE",
"458 0 LINE",
"468 45 LINE",
"373 64 LINE",
"373 319 LINE",
"569 637 LINE",
"650 665 LINE",
"650 700 LINE",
"441 700 LINE",
"431 655 LINE",
"505 643 LINE",
"339 373 LINE",
"165 645 LINE",
"235 665 LINE",
"235 700 LINE",
"-10 700 LINE",
"-20 655 LINE",
"58 636 LINE",
"273 298 LINE",
"273 64 LINE"
);
}
);
width = 637;
}
);
unicode = 0059;
},
{
glyphname = Z;
lastChange = "2017-11-21 14:35:46 +0000";
layers = (
{
background = {
paths = (
{
closed = 1;
nodes = (
"45 0 LINE",
"45 49 LINE",
"428 645 LINE",
"144 645 LINE",
"106 501 LINE",
"56 511 LINE",
"57 700 LINE",
"545 700 LINE",
"545 649 LINE",
"164 55 LINE",
"473 55 LINE",
"510 196 LINE",
"560 186 LINE",
"560 0 LINE"
);
}
);
};
hints = (
{
horizontal = 1;
place = "{0, 80}";
},
{
horizontal = 1;
place = "{630, 80}";
}
);
layerId = "03739D6D-2A00-4CFA-A48A-FF6A1F8AF183";
paths = (
{
closed = 1;
nodes = (
"497 80 LINE",
"204 80 LINE",
"575 634 LINE",
"575 710 LINE",
"37 710 LINE",
"37 496 LINE",
"103 486 LINE",
"130 630 LINE",
"398 630 LINE",
"25 74 LINE",
"25 0 LINE",
"590 0 LINE",
"590 214 LINE",
"524 224 LINE"
);
}
);
width = 614;
},
{
background = {
paths = (
{
closed = 1;
nodes = (
"40 0 LINE",
"40 49 LINE",
"423 645 LINE",
"139 645 LINE",
"101 501 LINE",
"51 511 LINE",
"52 700 LINE",
"540 700 LINE",
"540 649 LINE",
"159 55 LINE",
"468 55 LINE",
"505 196 LINE",
"555 186 LINE",
"555 0 LINE"
);
}
);
};
hints = (
{
place = "{51, 49}";
},
{
place = "{505, 50}";
},
{
horizontal = 1;
place = "{0, 55}";
},
{
horizontal = 1;
place = "{645, 55}";
}
);
layerId = UUID0;
paths = (
{
closed = 1;
nodes = (
"555 0 LINE",
"555 186 LINE",
"505 196 LINE",
"468 55 LINE",
"159 55 LINE",
"540 649 LINE",
"540 700 LINE",
"52 700 LINE",
"51 511 LINE",
"101 501 LINE",
"139 645 LINE",
"423 645 LINE",
"40 49 LINE",
"40 0 LINE"
);
}
);
width = 597;
}
);
unicode = 005A;
},
{
glyphname = bracketleft;
lastChange = "2017-11-21 14:35:46 +0000";
layers = (
{
background = {
paths = (
{
closed = 1;
nodes = (
"83 736 LINE",
"243 736 LINE",
"243 691 LINE",
"164 691 LINE",
"164 -104 LINE",
"243 -104 LINE",
"243 -149 LINE",
"83 -149 LINE"
);
}
);
};
hints = (
{
place = "{43, 120}";
},
{
place = "{43, 200}";
},
{
horizontal = 1;
place = "{-149, 65}";
},
{
horizontal = 1;
place = "{671, 65}";
}
);
layerId = "03739D6D-2A00-4CFA-A48A-FF6A1F8AF183";
paths = (
{
closed = 1;
nodes = (
"43 -149 LINE",
"243 -149 LINE",
"243 -84 LINE",
"163 -84 LINE",
"163 671 LINE",
"243 671 LINE",
"243 736 LINE",
"43 736 LINE"
);
}
);
width = 271;
},
{
background = {
paths = (
{
closed = 1;
nodes = (
"83 736 LINE",
"243 736 LINE",
"243 691 LINE",
"164 691 LINE",
"164 -104 LINE",
"243 -104 LINE",
"243 -149 LINE",
"83 -149 LINE"
);
}
);
};
hints = (
{
place = "{83, 80}";
},
{
horizontal = 1;
place = "{-149, 45}";
},
{
horizontal = 1;
place = "{691, 45}";
}
);
layerId = UUID0;
paths = (
{
closed = 1;
nodes = (
"83 -149 LINE",
"243 -149 LINE",
"243 -104 LINE",
"163 -104 LINE",
"163 691 LINE",
"243 691 LINE",
"243 736 LINE",
"83 736 LINE"
);
}
);
width = 271;
}
);
unicode = 005B;
},
{
glyphname = backslash;
lastChange = "2017-11-21 14:35:46 +0000";
layers = (
{
background = {
paths = (
{
closed = 1;
nodes = (
"103 700 LINE",
"562 -157 LINE",
"479 -157 LINE",
"20 700 LINE"
);
}
);
};
hints = (
{
horizontal = 1;
place = "{700, -20}";
target = down;
type = TopGhost;
},
{
horizontal = 1;
place = "{-157, 21}";
target = up;
type = BottomGhost;
}
);
layerId = "03739D6D-2A00-4CFA-A48A-FF6A1F8AF183";
paths = (
{
closed = 1;
nodes = (
"20 700 LINE",
"480 -157 LINE",
"603 -157 LINE",
"143 700 LINE"
);
}
);
width = 583;
},
{
background = {
paths = (
{
closed = 1;
nodes = (
"103 700 LINE",
"562 -157 LINE",
"479 -157 LINE",
"20 700 LINE"
);
}
);
};
hints = (
{
place = "{20, 543}";
},
{
horizontal = 1;
place = "{700, -20}";
target = down;
type = TopGhost;
}
);
layerId = UUID0;
paths = (
{
closed = 1;
nodes = (
"20 700 LINE",
"480 -157 LINE",
"563 -157 LINE",
"103 700 LINE"
);
}
);
width = 583;
}
);
unicode = 005C;
},
{
glyphname = bracketright;
lastChange = "2017-11-21 14:35:46 +0000";
layers = (
{
background = {
paths = (
{
closed = 1;
nodes = (
"187 -149 LINE",
"28 -149 LINE",
"28 -104 LINE",
"108 -104 LINE",
"108 691 LINE",
"28 691 LINE",
"28 736 LINE",
"187 736 LINE"
);
}
);
};
hints = (
{
place = "{28, 200}";
},
{
place = "{108, 120}";
},
{
horizontal = 1;
place = "{-149, 65}";
},
{
horizontal = 1;
place = "{671, 65}";
}
);
layerId = "03739D6D-2A00-4CFA-A48A-FF6A1F8AF183";
paths = (
{
closed = 1;
nodes = (
"228 736 LINE",
"28 736 LINE",
"28 671 LINE",
"108 671 LINE",
"108 -84 LINE",
"28 -84 LINE",
"28 -149 LINE",
"228 -149 LINE"
);
}
);
width = 271;
},
{
background = {
paths = (
{
closed = 1;
nodes = (
"187 -149 LINE",
"28 -149 LINE",
"28 -104 LINE",
"108 -104 LINE",
"108 691 LINE",
"28 691 LINE",
"28 736 LINE",
"187 736 LINE"
);
}
);
};
hints = (
{
place = "{108, 80}";
},
{
horizontal = 1;
place = "{-149, 45}";
},
{
horizontal = 1;
place = "{691, 45}";
}
);
layerId = UUID0;
paths = (
{
closed = 1;
nodes = (
"188 736 LINE",
"28 736 LINE",
"28 691 LINE",
"108 691 LINE",
"108 -104 LINE",
"28 -104 LINE",
"28 -149 LINE",
"188 -149 LINE"
);
}
);
width = 271;
}
);
unicode = 005D;
},
{
glyphname = asciicircum;
lastChange = "2017-11-21 14:35:46 +0000";
layers = (
{
background = {
paths = (
{
closed = 1;
nodes = (
"792 401 LINE",
"737 401 LINE",
"496 652 LINE",
"255 401 LINE",
"200 401 LINE",
"446 716 LINE",
"546 716 LINE"
);
}
);
};
hints = (
{
horizontal = 1;
place = "{749, -20}";
target = down;
type = TopGhost;
},
{
horizontal = 1;
place = "{401, 21}";
target = up;
type = BottomGhost;
}
);
layerId = "03739D6D-2A00-4CFA-A48A-FF6A1F8AF183";
paths = (
{
closed = 1;
nodes = (
"546 749 LINE",
"446 749 LINE",
"200 401 LINE",
"295 401 LINE",
"496 652 LINE",
"697 401 LINE",
"792 401 LINE"
);
}
);
width = 992;
},
{
background = {
paths = (
{
closed = 1;
nodes = (
"792 401 LINE",
"737 401 LINE",
"496 652 LINE",
"255 401 LINE",
"200 401 LINE",
"446 716 LINE",
"546 716 LINE"
);
}
);
};
hints = (
{
place = "{200, 592}";
},
{
horizontal = 1;
place = "{652, 64}";
}
);
layerId = UUID0;
paths = (
{
closed = 1;
nodes = (
"546 716 LINE",
"446 716 LINE",
"200 401 LINE",
"255 401 LINE",
"496 652 LINE",
"737 401 LINE",
"792 401 LINE"
);
}
);
width = 992;
}
);
unicode = 005E;
},
{
glyphname = underscore;
lastChange = "2017-11-21 14:35:46 +0000";
layers = (
{
background = {
paths = (
{
closed = 1;
nodes = (
"97 -89 LINE",
"670 -89 LINE",
"670 -165 LINE",
"97 -165 LINE"
);
}
);
};
hints = (
{
horizontal = 1;
place = "{-165, 106}";
}
);
layerId = "03739D6D-2A00-4CFA-A48A-FF6A1F8AF183";
paths = (
{
closed = 1;
nodes = (
"97 -165 LINE",
"671 -165 LINE",
"671 -59 LINE",
"97 -59 LINE"
);
}
);
width = 767;
},
{
background = {
paths = (
{
closed = 1;
nodes = (
"97 -89 LINE",
"670 -89 LINE",
"670 -165 LINE",
"97 -165 LINE"
);
}
);
};
hints = (
{
place = "{97, 574}";
},
{
horizontal = 1;
place = "{-165, 76}";
}
);
layerId = UUID0;
paths = (
{
closed = 1;
nodes = (
"97 -165 LINE",
"671 -165 LINE",
"671 -89 LINE",
"97 -89 LINE"
);
}
);
width = 767;
}
);
unicode = 005F;
},
{
glyphname = grave;
lastChange = "2017-11-21 14:35:46 +0000";
layers = (
{
background = {
paths = (
{
closed = 1;
nodes = (
"113 750 LINE",
"211 750 LINE",
"318 582 LINE",
"263 582 LINE"
);
}
);
};
hints = (
{
horizontal = 1;
place = "{582, 21}";
target = up;
type = BottomGhost;
},
{
horizontal = 1;
place = "{750, -20}";
target = down;
type = TopGhost;
}
);
layerId = "03739D6D-2A00-4CFA-A48A-FF6A1F8AF183";
paths = (
{
closed = 1;
nodes = (
"263 582 LINE",
"358 582 LINE",
"251 750 LINE",
"113 750 LINE"
);
}
);
width = 527;
},
{
background = {
paths = (
{
closed = 1;
nodes = (
"113 750 LINE",
"211 750 LINE",
"318 582 LINE",
"263 582 LINE"
);
}
);
};
hints = (
{
place = "{113, 205}";
},
{
horizontal = 1;
place = "{582, 168}";
}
);
layerId = UUID0;
paths = (
{
closed = 1;
nodes = (
"263 582 LINE",
"318 582 LINE",
"211 750 LINE",
"113 750 LINE"
);
}
);
width = 527;
}
);
unicode = 0060;
},
{
glyphname = a;
lastChange = "2017-11-21 14:35:46 +0000";
layers = (
{
background = {
paths = (
{
closed = 1;
nodes = (
"377 0 LINE",
"377 81 LINE",
"362 63 LINE",
"319 31 LINE",
"271 6 LINE",
"222 -8 LINE",
"200 -8 LINE",
"173 -8 LINE",
"125 9 LINE",
"89 43 LINE",
"67 91 LINE",
"67 123 LINE",
"67 173 LINE",
"118 236 LINE",
"183 253 LINE",
"232 266 LINE",
"323 283 LINE",
"377 289 LINE",
"377 371 LINE",
"377 399 LINE",
"361 438 LINE",
"333 463 LINE",
"296 474 LINE",
"275 474 LINE",
"252 474 LINE",
"204 468 LINE",
"181 460 LINE",
"153 346 LINE",
"101 355 LINE",
"101 485 LINE",
"140 502 LINE",
"229 529 LINE",
"280 529 LINE",
"319 529 LINE",
"387 513 LINE",
"438 476 LINE",
"467 415 LINE",
"467 370 LINE",
"467 63 LINE",
"539 46 LINE",
"529 0 LINE"
);
},
{
closed = 1;
nodes = (
"167 131 LINE",
"167 107 LINE",
"179 78 LINE",
"200 61 LINE",
"227 55 LINE",
"242 55 LINE",
"260 55 LINE",
"300 70 LINE",
"337 92 LINE",
"368 120 LINE",
"377 133 LINE",
"377 247 LINE",
"345 243 LINE",
"281 234 LINE",
"249 225 LINE",
"202 212 LINE",
"167 162 LINE"
);
}
);
};
hints = (
{
place = "{37, 145}";
},
{
place = "{362, 140}";
},
{
horizontal = 1;
place = "{-8, 78}";
},
{
horizontal = 1;
place = "{467, 72}";
},
{
horizontal = 1;
place = "{0, 21}";
target = up;
type = BottomGhost;
}
);
layerId = "03739D6D-2A00-4CFA-A48A-FF6A1F8AF183";
paths = (
{
closed = 1;
nodes = (
"173 448 LINE",
"193 461 OFFCURVE",
"220 467 OFFCURVE",
"248 467 CURVE SMOOTH",
"324 467 OFFCURVE",
"362 440 OFFCURVE",
"362 381 CURVE SMOOTH",
"362 299 LINE",
"290 291 OFFCURVE",
"248 280 OFFCURVE",
"183 263 CURVE SMOOTH",
"96 240 OFFCURVE",
"37 210 OFFCURVE",
"37 123 CURVE SMOOTH",
"37 9 OFFCURVE",
"129 -8 OFFCURVE",
"200 -8 CURVE SMOOTH",
"258 -8 OFFCURVE",
"322 18 OFFCURVE",
"362 66 CURVE",
"362 0 LINE",
"564 0 LINE",
"574 51 LINE",
"502 68 LINE",
"502 380 LINE SMOOTH",
"502 500 OFFCURVE",
"384 539 OFFCURVE",
"280 539 CURVE SMOOTH",
"212 539 OFFCURVE",
"123 518 OFFCURVE",
"71 495 CURVE",
"71 350 LINE",
"147 338 LINE"
);
},
{
closed = 1;
nodes = (
"182 152 OFFCURVE",
"186 198 OFFCURVE",
"249 215 CURVE SMOOTH",
"292 227 OFFCURVE",
"319 232 OFFCURVE",
"362 237 CURVE",
"362 148 LINE",
"338 113 OFFCURVE",
"290 70 OFFCURVE",
"242 70 CURVE SMOOTH",
"202 70 OFFCURVE",
"182 88 OFFCURVE",
"182 131 CURVE SMOOTH"
);
}
);
width = 600;
},
{
background = {
paths = (
{
closed = 1;
nodes = (
"345 0 LINE",
"345 81 LINE",
"330 63 LINE",
"287 31 LINE",
"239 6 LINE",
"190 -8 LINE",
"168 -8 LINE",
"141 -8 LINE",
"93 9 LINE",
"57 43 LINE",
"35 91 LINE",
"35 123 LINE",
"35 173 LINE",
"86 236 LINE",
"151 253 LINE",
"200 266 LINE",
"291 283 LINE",
"345 289 LINE",
"345 371 LINE",
"345 399 LINE",
"329 438 LINE",
"301 463 LINE",
"264 474 LINE",
"243 474 LINE",
"220 474 LINE",
"172 468 LINE",
"149 460 LINE",
"121 346 LINE",
"69 355 LINE",
"69 485 LINE",
"108 502 LINE",
"197 529 LINE",
"248 529 LINE",
"287 529 LINE",
"355 513 LINE",
"406 476 LINE",
"435 415 LINE",
"435 370 LINE",
"435 63 LINE",
"507 46 LINE",
"497 0 LINE"
);
},
{
closed = 1;
nodes = (
"135 131 LINE",
"135 107 LINE",
"147 78 LINE",
"168 61 LINE",
"195 55 LINE",
"210 55 LINE",
"228 55 LINE",
"268 70 LINE",
"305 92 LINE",
"336 120 LINE",
"345 133 LINE",
"345 247 LINE",
"313 243 LINE",
"249 234 LINE",
"217 225 LINE",
"170 212 LINE",
"135 162 LINE"
);
}
);
};
hints = (
{
place = "{35, 100}";
},
{
place = "{345, 90}";
},
{
place = "{69, 52}";
},
{
horizontal = 1;
place = "{0, 63}";
},
{
horizontal = 1;
place = "{247, 42}";
},
{
horizontal = 1;
place = "{474, 55}";
},
{
horizontal = 1;
place = "{0, 46}";
},
{
horizontal = 1;
place = "{-8, 63}";
}
);
layerId = UUID0;
paths = (
{
closed = 1;
nodes = (
"497 0 LINE",
"507 46 LINE",
"435 63 LINE",
"435 370 LINE SMOOTH",
"435 490 OFFCURVE",
"352 529 OFFCURVE",
"248 529 CURVE SMOOTH",
"180 529 OFFCURVE",
"121 508 OFFCURVE",
"69 485 CURVE",
"69 355 LINE",
"121 346 LINE",
"149 460 LINE",
"180 471 OFFCURVE",
"212 474 OFFCURVE",
"243 474 CURVE SMOOTH",
"299 474 OFFCURVE",
"345 446 OFFCURVE",
"345 371 CURVE SMOOTH",
"345 289 LINE",
"273 281 OFFCURVE",
"216 270 OFFCURVE",
"151 253 CURVE SMOOTH",
"64 230 OFFCURVE",
"35 190 OFFCURVE",
"35 123 CURVE SMOOTH",
"35 39 OFFCURVE",
"97 -8 OFFCURVE",
"168 -8 CURVE SMOOTH",
"226 -8 OFFCURVE",
"305 33 OFFCURVE",
"345 81 CURVE",
"345 0 LINE"
);
},
{
closed = 1;
nodes = (
"135 172 OFFCURVE",
"154 208 OFFCURVE",
"217 225 CURVE SMOOTH",
"260 237 OFFCURVE",
"302 242 OFFCURVE",
"345 247 CURVE",
"345 133 LINE",
"321 98 OFFCURVE",
"258 55 OFFCURVE",
"210 55 CURVE SMOOTH",
"170 55 OFFCURVE",
"135 68 OFFCURVE",
"135 131 CURVE SMOOTH"
);
}
);
width = 526;
}
);
unicode = 0061;
},
{
glyphname = b;
lastChange = "2017-11-21 14:35:46 +0000";
layers = (
{
background = {
paths = (
{
closed = 1;
nodes = (
"143 666 LINE",
"60 682 LINE",
"55 726 LINE",
"233 750 LINE",
"233 463 LINE",
"271 497 LINE",
"352 528 LINE",
"391 528 LINE",
"433 528 LINE",
"510 494 LINE",
"569 429 LINE",
"603 338 LINE",
"603 281 LINE",
"603 205 LINE",
"559 94 LINE",
"483 22 LINE",
"380 -13 LINE",
"321 -13 LINE",
"279 -13 LINE",
"182 6 LINE",
"143 26 LINE"
);
},
{
closed = 1;
nodes = (
"233 71 LINE",
"290 42 LINE",
"340 42 LINE",
"378 42 LINE",
"439 73 LINE",
"481 129 LINE",
"504 207 LINE",
"504 253 LINE",
"504 345 LINE",
"426 451 LINE",
"360 451 LINE",
"302 451 LINE",
"233 407 LINE"
);
}
);
};
hints = (
{
place = "{93, 140}";
},
{
place = "{489, 139}";
},
{
horizontal = 1;
place = "{-15, 71}";
},
{
horizontal = 1;
place = "{451, 96}";
},
{
horizontal = 1;
place = "{760, -20}";
target = down;
type = TopGhost;
}
);
layerId = "03739D6D-2A00-4CFA-A48A-FF6A1F8AF183";
paths = (
{
closed = 1;
nodes = (
"93 662 LINE",
"93 35 LINE",
"165 4 OFFCURVE",
"247 -15 OFFCURVE",
"323 -15 CURVE SMOOTH",
"486 -15 OFFCURVE",
"628 69 OFFCURVE",
"628 291 CURVE SMOOTH",
"628 463 OFFCURVE",
"514 547 OFFCURVE",
"391 547 CURVE SMOOTH",
"339 547 OFFCURVE",
"284 527 OFFCURVE",
"233 482 CURVE",
"233 760 LINE",
"8 728 LINE",
"13 677 LINE"
);
},
{
closed = 1;
nodes = (
"233 407 LINE",
"279 436 OFFCURVE",
"321 451 OFFCURVE",
"360 451 CURVE SMOOTH",
"448 451 OFFCURVE",
"489 376 OFFCURVE",
"489 263 CURVE SMOOTH",
"489 149 OFFCURVE",
"431 56 OFFCURVE",
"340 56 CURVE SMOOTH",
"307 56 OFFCURVE",
"271 67 OFFCURVE",
"233 86 CURVE"
);
}
);
width = 658;
},
{
background = {
paths = (
{
closed = 1;
nodes = (
"78 666 LINE",
"-5 682 LINE",
"-10 726 LINE",
"168 750 LINE",
"168 463 LINE",
"206 497 LINE",
"287 528 LINE",
"326 528 LINE",
"368 528 LINE",
"445 494 LINE",
"504 429 LINE",
"538 338 LINE",
"538 281 LINE",
"538 205 LINE",
"494 94 LINE",
"418 22 LINE",
"315 -13 LINE",
"256 -13 LINE",
"214 -13 LINE",
"117 6 LINE",
"78 26 LINE"
);
},
{
closed = 1;
nodes = (
"168 71 LINE",
"225 42 LINE",
"275 42 LINE",
"313 42 LINE",
"374 73 LINE",
"416 129 LINE",
"439 207 LINE",
"439 253 LINE",
"439 345 LINE",
"361 451 LINE",
"295 451 LINE",
"237 451 LINE",
"168 407 LINE"
);
}
);
};
hints = (
{
place = "{78, 90}";
},
{
place = "{439, 99}";
},
{
horizontal = 1;
place = "{-13, 55}";
},
{
horizontal = 1;
place = "{451, 77}";
}
);
layerId = UUID0;
paths = (
{
closed = 1;
nodes = (
"78 26 LINE",
"130 -1 OFFCURVE",
"200 -13 OFFCURVE",
"256 -13 CURVE SMOOTH",
"413 -13 OFFCURVE",
"538 78 OFFCURVE",
"538 281 CURVE SMOOTH",
"538 433 OFFCURVE",
"439 528 OFFCURVE",
"326 528 CURVE SMOOTH",
"274 528 OFFCURVE",
"219 508 OFFCURVE",
"168 463 CURVE",
"168 750 LINE",
"-10 726 LINE",
"-5 682 LINE",
"78 666 LINE"
);
},
{
closed = 1;
nodes = (
"168 407 LINE",
"214 436 OFFCURVE",
"256 451 OFFCURVE",
"295 451 CURVE SMOOTH",
"383 451 OFFCURVE",
"439 376 OFFCURVE",
"439 253 CURVE SMOOTH",
"439 129 OFFCURVE",
"376 42 OFFCURVE",
"275 42 CURVE SMOOTH",
"242 42 OFFCURVE",
"206 52 OFFCURVE",
"168 71 CURVE"
);
}
);
width = 579;
}
);
unicode = 0062;
},
{
glyphname = c;
lastChange = "2017-11-21 14:35:46 +0000";
layers = (
{
background = {
paths = (
{
closed = 1;
nodes = (
"413 457 LINE",
"370 474 LINE",
"335 474 LINE",
"297 474 LINE",
"235 442 LINE",
"191 387 LINE",
"166 311 LINE",
"166 267 LINE",
"166 227 LINE",
"186 151 LINE",
"228 91 LINE",
"292 55 LINE",
"336 55 LINE",
"370 55 LINE",
"451 81 LINE",
"482 104 LINE",
"504 66 LINE",
"464 28 LINE",
"368 -11 LINE",
"317 -11 LINE",
"266 -11 LINE",
"175 25 LINE",
"106 94 LINE",
"66 195 LINE",
"66 260 LINE",
"66 324 LINE",
"111 424 LINE",
"185 493 LINE",
"281 529 LINE",
"332 529 LINE",
"373 529 LINE",
"453 506 LINE",
"491 482 LINE",
"491 349 LINE",
"441 339 LINE"
);
}
);
};
hints = (
{
place = "{37, 138}";
},
{
horizontal = 1;
place = "{-11, 80}";
},
{
horizontal = 1;
place = "{466, 73}";
}
);
layerId = "03739D6D-2A00-4CFA-A48A-FF6A1F8AF183";
paths = (
{
closed = 1;
nodes = (
"431 337 LINE",
"491 349 LINE",
"491 492 LINE",
"440 524 OFFCURVE",
"387 539 OFFCURVE",
"332 539 CURVE SMOOTH",
"206 539 OFFCURVE",
"37 466 OFFCURVE",
"37 270 CURVE SMOOTH",
"37 62 OFFCURVE",
"181 -11 OFFCURVE",
"317 -11 CURVE SMOOTH",
"385 -11 OFFCURVE",
"451 15 OFFCURVE",
"504 66 CURVE",
"473 119 LINE",
"432 88 OFFCURVE",
"381 69 OFFCURVE",
"336 69 CURVE SMOOTH",
"219 69 OFFCURVE",
"175 170 OFFCURVE",
"175 277 CURVE SMOOTH",
"175 379 OFFCURVE",
"245 466 OFFCURVE",
"332 466 CURVE SMOOTH",
"354 466 OFFCURVE",
"379 462 OFFCURVE",
"402 447 CURVE"
);
}
);
width = 537;
},
{
background = {
paths = (
{
closed = 1;
nodes = (
"387 457 LINE",
"344 474 LINE",
"309 474 LINE",
"271 474 LINE",
"209 442 LINE",
"165 387 LINE",
"140 311 LINE",
"140 267 LINE",
"140 227 LINE",
"160 151 LINE",
"202 91 LINE",
"266 55 LINE",
"310 55 LINE",
"344 55 LINE",
"425 81 LINE",
"456 104 LINE",
"478 66 LINE",
"438 28 LINE",
"342 -11 LINE",
"291 -11 LINE",
"240 -11 LINE",
"149 25 LINE",
"80 94 LINE",
"40 195 LINE",
"40 260 LINE",
"40 324 LINE",
"85 424 LINE",
"159 493 LINE",
"255 529 LINE",
"306 529 LINE",
"347 529 LINE",
"427 506 LINE",
"465 482 LINE",
"465 349 LINE",
"415 339 LINE"
);
}
);
};
hints = (
{
place = "{40, 100}";
},
{
place = "{415, 50}";
},
{
horizontal = 1;
place = "{-11, 66}";
},
{
horizontal = 1;
place = "{474, 55}";
}
);
layerId = UUID0;
paths = (
{
closed = 1;
nodes = (
"415 339 LINE",
"465 349 LINE",
"465 482 LINE",
"414 514 OFFCURVE",
"361 529 OFFCURVE",
"306 529 CURVE SMOOTH",
"170 529 OFFCURVE",
"40 431 OFFCURVE",
"40 260 CURVE SMOOTH",
"40 87 OFFCURVE",
"155 -11 OFFCURVE",
"291 -11 CURVE SMOOTH",
"359 -11 OFFCURVE",
"425 15 OFFCURVE",
"478 66 CURVE",
"456 104 LINE",
"415 73 OFFCURVE",
"355 55 OFFCURVE",
"310 55 CURVE SMOOTH",
"193 55 OFFCURVE",
"140 160 OFFCURVE",
"140 267 CURVE SMOOTH",
"140 384 OFFCURVE",
"209 474 OFFCURVE",
"309 474 CURVE SMOOTH",
"332 474 OFFCURVE",
"358 468 OFFCURVE",
"387 457 CURVE"
);
}
);
width = 517;
}
);
unicode = 0063;
},
{
glyphname = d;
lastChange = "2017-11-21 14:35:46 +0000";
layers = (
{
background = {
paths = (
{
closed = 1;
nodes = (
"440 57 LINE",
"406 26 LINE",
"331 -8 LINE",
"284 -8 LINE",
"242 -8 LINE",
"164 28 LINE",
"104 93 LINE",
"67 186 LINE",
"67 243 LINE",
"67 307 LINE",
"110 411 LINE",
"182 484 LINE",
"274 523 LINE",
"322 523 LINE",
"352 523 LINE",
"412 506 LINE",
"440 489 LINE",
"440 666 LINE",
"357 682 LINE",
"352 726 LINE",
"529 750 LINE",
"529 63 LINE",
"597 46 LINE",
"587 0 LINE",
"440 0 LINE"
);
},
{
closed = 1;
nodes = (
"303 58 LINE",
"335 58 LINE",
"409 91 LINE",
"440 118 LINE",
"440 415 LINE",
"414 442 LINE",
"357 467 LINE",
"329 467 LINE",
"297 467 LINE",
"239 437 LINE",
"194 384 LINE",
"167 309 LINE",
"167 264 LINE",
"167 222 LINE",
"182 147 LINE",
"215 91 LINE",
"267 58 LINE"
);
}
);
};
hints = (
{
place = "{37, 140}";
},
{
place = "{425, 140}";
},
{
horizontal = 1;
place = "{-8, 80}";
},
{
horizontal = 1;
place = "{467, 75}";
},
{
horizontal = 1;
place = "{0, 21}";
target = up;
type = BottomGhost;
},
{
horizontal = 1;
place = "{760, -20}";
target = down;
type = TopGhost;
}
);
layerId = "03739D6D-2A00-4CFA-A48A-FF6A1F8AF183";
paths = (
{
closed = 1;
nodes = (
"206 72 OFFCURVE",
"177 182 OFFCURVE",
"177 274 CURVE SMOOTH",
"177 374 OFFCURVE",
"235 467 OFFCURVE",
"319 467 CURVE SMOOTH",
"356 467 OFFCURVE",
"390 451 OFFCURVE",
"425 415 CURVE",
"425 132 LINE",
"384 96 OFFCURVE",
"336 72 OFFCURVE",
"293 72 CURVE SMOOTH"
);
},
{
closed = 1;
nodes = (
"425 662 LINE",
"425 508 LINE",
"388 531 OFFCURVE",
"352 542 OFFCURVE",
"312 542 CURVE SMOOTH",
"173 542 OFFCURVE",
"37 445 OFFCURVE",
"37 253 CURVE SMOOTH",
"37 81 OFFCURVE",
"143 -8 OFFCURVE",
"274 -8 CURVE SMOOTH",
"337 -8 OFFCURVE",
"380 16 OFFCURVE",
"425 57 CURVE",
"425 0 LINE",
"631 0 LINE",
"641 53 LINE",
"566 67 LINE",
"565 760 LINE",
"339 728 LINE",
"344 677 LINE"
);
}
);
width = 661;
},
{
background = {
paths = (
{
closed = 1;
nodes = (
"413 57 LINE",
"379 26 LINE",
"304 -8 LINE",
"257 -8 LINE",
"215 -8 LINE",
"137 28 LINE",
"77 93 LINE",
"40 186 LINE",
"40 243 LINE",
"40 307 LINE",
"83 411 LINE",
"155 484 LINE",
"247 523 LINE",
"295 523 LINE",
"325 523 LINE",
"385 506 LINE",
"413 489 LINE",
"413 666 LINE",
"330 682 LINE",
"325 726 LINE",
"502 750 LINE",
"502 63 LINE",
"570 46 LINE",
"560 0 LINE",
"413 0 LINE"
);
},
{
closed = 1;
nodes = (
"276 58 LINE",
"308 58 LINE",
"382 91 LINE",
"413 118 LINE",
"413 415 LINE",
"387 442 LINE",
"330 467 LINE",
"302 467 LINE",
"270 467 LINE",
"212 437 LINE",
"167 384 LINE",
"140 309 LINE",
"140 264 LINE",
"140 222 LINE",
"155 147 LINE",
"188 91 LINE",
"240 58 LINE"
);
}
);
};
hints = (
{
place = "{40, 100}";
},
{
place = "{413, 89}";
},
{
horizontal = 1;
place = "{0, 63}";
},
{
horizontal = 1;
place = "{467, 56}";
},
{
horizontal = 1;
place = "{0, 46}";
},
{
horizontal = 1;
place = "{-8, 66}";
}
);
layerId = UUID0;
paths = (
{
closed = 1;
nodes = (
"413 0 LINE",
"560 0 LINE",
"570 46 LINE",
"502 63 LINE",
"502 750 LINE",
"325 726 LINE",
"330 682 LINE",
"413 666 LINE",
"413 489 LINE",
"376 512 OFFCURVE",
"335 523 OFFCURVE",
"295 523 CURVE SMOOTH",
"166 523 OFFCURVE",
"40 415 OFFCURVE",
"40 243 CURVE SMOOTH",
"40 91 OFFCURVE",
"146 -8 OFFCURVE",
"257 -8 CURVE SMOOTH",
"320 -8 OFFCURVE",
"368 16 OFFCURVE",
"413 57 CURVE"
);
},
{
closed = 1;
nodes = (
"179 58 OFFCURVE",
"140 152 OFFCURVE",
"140 264 CURVE SMOOTH",
"140 384 OFFCURVE",
"218 467 OFFCURVE",
"302 467 CURVE SMOOTH",
"339 467 OFFCURVE",
"378 451 OFFCURVE",
"413 415 CURVE",
"413 118 LINE",
"372 82 OFFCURVE",
"319 58 OFFCURVE",
"276 58 CURVE SMOOTH"
);
}
);
width = 599;
}
);
unicode = 0064;
},
{
glyphname = e;
lastChange = "2017-11-21 14:35:46 +0000";
layers = (
{
background = {
paths = (
{
closed = 1;
nodes = (
"169 268 LINE",
"169 218 LINE",
"195 140 LINE",
"243 85 LINE",
"308 56 LINE",
"346 56 LINE",
"417 56 LINE",
"493 105 LINE",
"515 67 LINE",
"466 29 LINE",
"362 -9 LINE",
"313 -9 LINE",
"262 -9 LINE",
"174 27 LINE",
"108 96 LINE",
"69 197 LINE",
"69 262 LINE",
"69 328 LINE",
"111 428 LINE",
"180 495 LINE",
"266 528 LINE",
"309 528 LINE",
"377 528 LINE",
"460 482 LINE",
"507 408 LINE",
"524 315 LINE",
"524 268 LINE"
);
},
{
closed = 1;
nodes = (
"424 322 LINE",
"424 361 LINE",
"403 419 LINE",
"371 456 LINE",
"328 474 LINE",
"306 474 LINE",
"282 474 LINE",
"236 454 LINE",
"197 415 LINE",
"173 359 LINE",
"172 322 LINE"
);
}
);
};
hints = (
{
place = "{33, 142}";
},
{
place = "{440, 116}";
},
{
horizontal = 1;
place = "{-9, 85}";
},
{
horizontal = 1;
place = "{236, 82}";
},
{
horizontal = 1;
place = "{463, 75}";
}
);
layerId = "03739D6D-2A00-4CFA-A48A-FF6A1F8AF183";
paths = (
{
closed = 1;
nodes = (
"556 236 LINE",
"556 401 OFFCURVE",
"485 538 OFFCURVE",
"316 538 CURVE SMOOTH",
"192 538 OFFCURVE",
"33 468 OFFCURVE",
"33 262 CURVE SMOOTH",
"33 65 OFFCURVE",
"177 -9 OFFCURVE",
"329 -9 CURVE SMOOTH",
"396 -9 OFFCURVE",
"477 16 OFFCURVE",
"542 67 CURVE",
"510 125 LINE",
"459 92 OFFCURVE",
"407 76 OFFCURVE",
"360 76 CURVE SMOOTH",
"259 76 OFFCURVE",
"175 122 OFFCURVE",
"175 236 CURVE"
);
},
{
closed = 1;
nodes = (
"178 318 LINE",
"181 416 OFFCURVE",
"250 463 OFFCURVE",
"318 463 CURVE SMOOTH",
"378 463 OFFCURVE",
"440 423 OFFCURVE",
"440 318 CURVE"
);
}
);
width = 589;
},
{
background = {
paths = (
{
closed = 1;
nodes = (
"141 268 LINE",
"141 218 LINE",
"167 140 LINE",
"215 85 LINE",
"280 56 LINE",
"318 56 LINE",
"389 56 LINE",
"465 105 LINE",
"487 67 LINE",
"438 29 LINE",
"334 -9 LINE",
"285 -9 LINE",
"234 -9 LINE",
"146 27 LINE",
"80 96 LINE",
"41 197 LINE",
"41 262 LINE",
"41 328 LINE",
"83 428 LINE",
"152 495 LINE",
"238 528 LINE",
"281 528 LINE",
"349 528 LINE",
"432 482 LINE",
"479 408 LINE",
"496 315 LINE",
"496 268 LINE"
);
},
{
closed = 1;
nodes = (
"396 322 LINE",
"396 361 LINE",
"375 419 LINE",
"343 456 LINE",
"300 474 LINE",
"278 474 LINE",
"254 474 LINE",
"208 454 LINE",
"169 415 LINE",
"145 359 LINE",
"144 322 LINE"
);
}
);
};
hints = (
{
place = "{41, 100}";
},
{
place = "{396, 100}";
},
{
horizontal = 1;
place = "{-9, 65}";
},
{
horizontal = 1;
place = "{268, 54}";
},
{
horizontal = 1;
place = "{474, 54}";
}
);
layerId = UUID0;
paths = (
{
closed = 1;
nodes = (
"496 268 LINE",
"496 393 OFFCURVE",
"460 528 OFFCURVE",
"282 528 CURVE SMOOTH",
"167 528 OFFCURVE",
"41 439 OFFCURVE",
"41 262 CURVE SMOOTH",
"41 89 OFFCURVE",
"153 -9 OFFCURVE",
"285 -9 CURVE SMOOTH",
"352 -9 OFFCURVE",
"423 16 OFFCURVE",
"488 67 CURVE",
"466 105 LINE",
"415 72 OFFCURVE",
"366 56 OFFCURVE",
"319 56 CURVE SMOOTH",
"218 56 OFFCURVE",
"141 136 OFFCURVE",
"141 268 CURVE"
);
},
{
closed = 1;
nodes = (
"144 322 LINE",
"147 420 OFFCURVE",
"216 474 OFFCURVE",
"279 474 CURVE SMOOTH",
"339 474 OFFCURVE",
"396 427 OFFCURVE",
"396 322 CURVE"
);
}
);
width = 535;
}
);
unicode = 0065;
},
{
glyphname = f;
lastChange = "2017-11-21 14:35:46 +0000";
layers = (
{
background = {
paths = (
{
closed = 1;
nodes = (
"320 757 LINE",
"349 757 LINE",
"422 740 LINE",
"451 723 LINE",
"451 590 LINE",
"401 580 LINE",
"373 690 LINE",
"361 696 LINE",
"332 702 LINE",
"320 702 LINE",
"275 702 LINE",
"233 648 LINE",
"233 575 LINE",
"233 520 LINE",
"366 520 LINE",
"366 465 LINE",
"233 465 LINE",
"233 62 LINE",
"344 48 LINE",
"334 0 LINE",
"56 0 LINE",
"56 30 LINE",
"143 60 LINE",
"143 465 LINE",
"56 465 LINE",
"56 520 LINE",
"143 520 LINE",
"143 576 LINE",
"144 626 LINE",
"175 695 LINE",
"225 738 LINE",
"288 757 LINE"
);
}
);
};
hints = (
{
place = "{113, 140}";
},
{
horizontal = 1;
place = "{436, 75}";
},
{
horizontal = 1;
place = "{697, 70}";
},
{
horizontal = 1;
place = "{0, 21}";
target = up;
type = BottomGhost;
}
);
layerId = "03739D6D-2A00-4CFA-A48A-FF6A1F8AF183";
paths = (
{
closed = 1;
nodes = (
"405 580 LINE",
"481 596 LINE",
"471 733 LINE",
"432 756 OFFCURVE",
"379 767 OFFCURVE",
"340 767 CURVE SMOOTH",
"255 767 OFFCURVE",
"113 737 OFFCURVE",
"113 584 CURVE SMOOTH",
"113 511 LINE",
"32 511 LINE",
"32 436 LINE",
"113 436 LINE",
"113 65 LINE",
"25 35 LINE",
"25 0 LINE",
"348 0 LINE",
"358 53 LINE",
"253 67 LINE",
"253 436 LINE",
"390 436 LINE",
"390 511 LINE",
"253 511 LINE",
"253 585 LINE SMOOTH",
"253 682 OFFCURVE",
"300 697 OFFCURVE",
"340 697 CURVE SMOOTH",
"351 697 OFFCURVE",
"362 696 OFFCURVE",
"375 692 CURVE"
);
}
);
width = 507;
},
{
background = {
paths = (
{
closed = 1;
nodes = (
"297 757 LINE",
"326 757 LINE",
"399 740 LINE",
"428 723 LINE",
"428 590 LINE",
"378 580 LINE",
"350 690 LINE",
"338 696 LINE",
"309 702 LINE",
"297 702 LINE",
"252 702 LINE",
"210 648 LINE",
"210 575 LINE",
"210 520 LINE",
"343 520 LINE",
"343 465 LINE",
"210 465 LINE",
"210 62 LINE",
"321 48 LINE",
"311 0 LINE",
"33 0 LINE",
"33 30 LINE",
"120 60 LINE",
"120 465 LINE",
"33 465 LINE",
"33 520 LINE",
"120 520 LINE",
"120 576 LINE",
"121 626 LINE",
"152 695 LINE",
"202 738 LINE",
"265 757 LINE"
);
}
);
};
hints = (
{
place = "{120, 90}";
},
{
place = "{378, 50}";
},
{
horizontal = 1;
place = "{0, 30}";
},
{
horizontal = 1;
place = "{465, 55}";
},
{
horizontal = 1;
place = "{702, 55}";
}
);
layerId = UUID0;
paths = (
{
closed = 1;
nodes = (
"212 757 OFFCURVE",
"121 709 OFFCURVE",
"121 576 CURVE",
"120 520 LINE",
"33 520 LINE",
"33 465 LINE",
"120 465 LINE",
"120 60 LINE",
"33 30 LINE",
"33 0 LINE",
"311 0 LINE",
"321 48 LINE",
"210 62 LINE",
"210 465 LINE",
"343 465 LINE",
"343 520 LINE",
"210 520 LINE",
"210 575 LINE SMOOTH",
"210 672 OFFCURVE",
"237 702 OFFCURVE",
"297 702 CURVE SMOOTH",
"313 702 OFFCURVE",
"334 698 OFFCURVE",
"350 690 CURVE",
"378 580 LINE",
"428 590 LINE",
"428 723 LINE",
"389 746 OFFCURVE",
"336 757 OFFCURVE",
"297 757 CURVE SMOOTH"
);
}
);
width = 370;
}
);
unicode = 0066;
},
{
glyphname = g;
lastChange = "2017-11-21 14:35:46 +0000";
layers = (
{
background = {
paths = (
{
closed = 1;
nodes = (
"264 161 LINE",
"248 161 LINE",
"215 164 LINE",
"200 168 LINE",
"183 155 LINE",
"159 121 LINE",
"159 102 LINE",
"159 85 LINE",
"190 62 LINE",
"224 61 LINE",
"412 61 LINE",
"476 59 LINE",
"531 -2 LINE",
"531 -44 LINE",
"531 -92 LINE",
"477 -168 LINE",
"392 -220 LINE",
"285 -247 LINE",
"231 -247 LINE",
"142 -247 LINE",
"33 -182 LINE",
"33 -114 LINE",
"33 -76 LINE",
"80 -19 LINE",
"120 7 LINE",
"80 36 LINE",
"80 83 LINE",
"80 109 LINE",
"117 165 LINE",
"150 185 LINE",
"106 205 LINE",
"51 279 LINE",
"51 339 LINE",
"51 390 LINE",
"85 462 LINE",
"144 508 LINE",
"222 530 LINE",
"263 530 LINE",
"302 530 LINE",
"371 510 LINE",
"396 489 LINE",
"411 489 LINE",
"467 492 LINE",
"496 494 LINE",
"528 496 LINE",
"566 499 LINE",
"566 430 LINE",
"441 433 LINE",
"460 393 LINE",
"460 339 LINE",
"460 289 LINE",
"428 221 LINE",
"372 179 LINE",
"301 161 LINE"
);
},
{
closed = 1;
nodes = (
"266 216 LINE",
"315 216 LINE",
"360 285 LINE",
"360 339 LINE",
"360 367 LINE",
"348 417 LINE",
"323 455 LINE",
"283 477 LINE",
"255 477 LINE",
"229 477 LINE",
"189 456 LINE",
"164 419 LINE",
"150 370 LINE",
"150 342 LINE",
"150 315 LINE",
"164 269 LINE",
"191 235 LINE",
"234 216 LINE"
);
},
{
closed = 1;
nodes = (
"245 -24 LINE",
"194 -24 LINE",
"158 -11 LINE",
"124 -50 LINE",
"124 -87 LINE",
"124 -116 LINE",
"146 -155 LINE",
"186 -179 LINE",
"242 -189 LINE",
"274 -189 LINE",
"310 -189 LINE",
"377 -171 LINE",
"431 -141 LINE",
"462 -101 LINE",
"462 -79 LINE",
"462 -50 LINE",
"421 -24 LINE",
"364 -24 LINE"
);
}
);
};
hints = (
{
place = "{25, 119}";
},
{
place = "{70, 100}";
},
{
place = "{340, 145}";
},
{
place = "{434, 106}";
},
{
horizontal = 1;
place = "{-247, 78}";
},
{
horizontal = 1;
place = "{-47, 118}";
},
{
horizontal = 1;
place = "{152, 74}";
},
{
horizontal = 1;
place = "{419, 90}";
},
{
horizontal = 1;
place = "{465, 75}";
}
);
layerId = "03739D6D-2A00-4CFA-A48A-FF6A1F8AF183";
paths = (
{
closed = 1;
nodes = (
"485 375 OFFCURVE",
"480 394 OFFCURVE",
"467 421 CURVE",
"592 418 LINE",
"592 509 LINE",
"567 507 OFFCURVE",
"543 505 OFFCURVE",
"521 504 CURVE SMOOTH",
"482 501 OFFCURVE",
"441 499 OFFCURVE",
"422 499 CURVE",
"387 527 OFFCURVE",
"315 540 OFFCURVE",
"263 540 CURVE SMOOTH",
"128 540 OFFCURVE",
"25 464 OFFCURVE",
"25 339 CURVE SMOOTH",
"25 249 OFFCURVE",
"82 207 OFFCURVE",
"141 180 CURVE",
"100 159 OFFCURVE",
"70 123 OFFCURVE",
"70 83 CURVE SMOOTH",
"70 52 OFFCURVE",
"79 21 OFFCURVE",
"106 -3 CURVE",
"59 -26 OFFCURVE",
"25 -63 OFFCURVE",
"25 -114 CURVE SMOOTH",
"25 -205 OFFCURVE",
"107 -247 OFFCURVE",
"232 -247 CURVE SMOOTH",
"373 -247 OFFCURVE",
"540 -177 OFFCURVE",
"540 -44 CURVE SMOOTH",
"540 25 OFFCURVE",
"504 68 OFFCURVE",
"419 71 CURVE",
"239 71 LINE",
"195 72 OFFCURVE",
"174 89 OFFCURVE",
"174 112 CURVE SMOOTH",
"174 137 OFFCURVE",
"192 146 OFFCURVE",
"215 158 CURVE",
"233 154 OFFCURVE",
"251 152 OFFCURVE",
"269 152 CURVE SMOOTH",
"377 152 OFFCURVE",
"485 222 OFFCURVE",
"485 339 CURVE SMOOTH"
);
},
{
closed = 1;
nodes = (
"194 226 OFFCURVE",
"170 270 OFFCURVE",
"170 342 CURVE SMOOTH",
"170 420 OFFCURVE",
"196 465 OFFCURVE",
"256 465 CURVE SMOOTH",
"318 465 OFFCURVE",
"340 414 OFFCURVE",
"340 339 CURVE SMOOTH",
"340 258 OFFCURVE",
"322 226 OFFCURVE",
"266 226 CURVE SMOOTH"
);
},
{
closed = 1;
nodes = (
"361 -47 LINE SMOOTH",
"417 -47 OFFCURVE",
"434 -57 OFFCURVE",
"434 -83 CURVE SMOOTH",
"434 -136 OFFCURVE",
"358 -169 OFFCURVE",
"273 -169 CURVE SMOOTH",
"212 -169 OFFCURVE",
"140 -157 OFFCURVE",
"144 -95 CURVE SMOOTH",
"146 -67 OFFCURVE",
"159 -56 OFFCURVE",
"171 -42 CURVE",
"189 -49 OFFCURVE",
"216 -47 OFFCURVE",
"246 -47 CURVE SMOOTH"
);
}
);
width = 598;
},
{
background = {
paths = (
{
closed = 1;
nodes = (
"266 161 LINE",
"250 161 LINE",
"217 164 LINE",
"202 168 LINE",
"185 155 LINE",
"161 121 LINE",
"161 102 LINE",
"161 85 LINE",
"192 62 LINE",
"226 61 LINE",
"414 61 LINE",
"478 59 LINE",
"533 -2 LINE",
"533 -44 LINE",
"533 -92 LINE",
"479 -168 LINE",
"394 -220 LINE",
"287 -247 LINE",
"233 -247 LINE",
"144 -247 LINE",
"35 -182 LINE",
"35 -114 LINE",
"35 -76 LINE",
"82 -19 LINE",
"122 7 LINE",
"82 36 LINE",
"82 83 LINE",
"82 109 LINE",
"119 165 LINE",
"152 185 LINE",
"108 205 LINE",
"53 279 LINE",
"53 339 LINE",
"53 390 LINE",
"87 462 LINE",
"146 508 LINE",
"224 530 LINE",
"265 530 LINE",
"304 530 LINE",
"373 510 LINE",
"398 489 LINE",
"413 489 LINE",
"469 492 LINE",
"498 494 LINE",
"530 496 LINE",
"568 499 LINE",
"568 430 LINE",
"443 433 LINE",
"462 393 LINE",
"462 339 LINE",
"462 289 LINE",
"430 221 LINE",
"374 179 LINE",
"303 161 LINE"
);
},
{
closed = 1;
nodes = (
"268 216 LINE",
"317 216 LINE",
"362 285 LINE",
"362 339 LINE",
"362 367 LINE",
"350 417 LINE",
"325 455 LINE",
"285 477 LINE",
"257 477 LINE",
"231 477 LINE",
"191 456 LINE",
"166 419 LINE",
"152 370 LINE",
"152 342 LINE",
"152 315 LINE",
"166 269 LINE",
"193 235 LINE",
"236 216 LINE"
);
},
{
closed = 1;
nodes = (
"247 -24 LINE",
"196 -24 LINE",
"160 -11 LINE",
"126 -50 LINE",
"126 -87 LINE",
"126 -116 LINE",
"148 -155 LINE",
"188 -179 LINE",
"244 -189 LINE",
"276 -189 LINE",
"312 -189 LINE",
"379 -171 LINE",
"433 -141 LINE",
"464 -101 LINE",
"464 -79 LINE",
"464 -50 LINE",
"423 -24 LINE",
"366 -24 LINE"
);
}
);
};
hints = (
{
place = "{53, 99}";
},
{
place = "{362, 100}";
},
{
place = "{82, 79}";
},
{
place = "{35, 91}";
},
{
place = "{464, 69}";
},
{
horizontal = 1;
place = "{-247, 58}";
},
{
horizontal = 1;
place = "{-24, 85}";
},
{
horizontal = 1;
place = "{161, 55}";
},
{
horizontal = 1;
place = "{477, 53}";
},
{
horizontal = 1;
place = "{431, 57}";
},
{
horizontal = 1;
place = "{-11, 21}";
target = up;
type = BottomGhost;
}
);
layerId = UUID0;
paths = (
{
closed = 1;
nodes = (
"366 161 OFFCURVE",
"462 206 OFFCURVE",
"462 339 CURVE SMOOTH",
"462 375 OFFCURVE",
"457 406 OFFCURVE",
"444 433 CURVE",
"569 430 LINE",
"569 499 LINE",
"544 497 OFFCURVE",
"520 495 OFFCURVE",
"498 494 CURVE SMOOTH",
"459 491 OFFCURVE",
"418 489 OFFCURVE",
"399 489 CURVE",
"364 517 OFFCURVE",
"317 530 OFFCURVE",
"265 530 CURVE SMOOTH",
"150 530 OFFCURVE",
"53 474 OFFCURVE",
"53 339 CURVE SMOOTH",
"53 259 OFFCURVE",
"94 212 OFFCURVE",
"153 185 CURVE",
"108 158 OFFCURVE",
"82 118 OFFCURVE",
"82 83 CURVE SMOOTH",
"82 52 OFFCURVE",
"95 26 OFFCURVE",
"122 7 CURVE",
"69 -28 OFFCURVE",
"35 -63 OFFCURVE",
"35 -114 CURVE SMOOTH",
"35 -205 OFFCURVE",
"114 -247 OFFCURVE",
"234 -247 CURVE SMOOTH",
"375 -247 OFFCURVE",
"533 -173 OFFCURVE",
"533 -44 CURVE SMOOTH",
"533 12 OFFCURVE",
"499 58 OFFCURVE",
"414 61 CURVE",
"226 61 LINE",
"182 62 OFFCURVE",
"161 79 OFFCURVE",
"161 102 CURVE SMOOTH",
"161 127 OFFCURVE",
"179 151 OFFCURVE",
"202 168 CURVE",
"223 163 OFFCURVE",
"245 161 OFFCURVE",
"266 161 CURVE SMOOTH"
);
},
{
closed = 1;
nodes = (
"186 216 OFFCURVE",
"152 270 OFFCURVE",
"152 342 CURVE SMOOTH",
"152 420 OFFCURVE",
"188 477 OFFCURVE",
"258 477 CURVE SMOOTH",
"330 477 OFFCURVE",
"362 414 OFFCURVE",
"362 339 CURVE SMOOTH",
"362 268 OFFCURVE",
"335 216 OFFCURVE",
"268 216 CURVE SMOOTH"
);
},
{
closed = 1;
nodes = (
"366 -24 LINE SMOOTH",
"443 -24 OFFCURVE",
"464 -40 OFFCURVE",
"464 -79 CURVE SMOOTH",
"464 -138 OFFCURVE",
"371 -189 OFFCURVE",
"277 -189 CURVE SMOOTH",
"189 -189 OFFCURVE",
"126 -164 OFFCURVE",
"126 -87 CURVE SMOOTH",
"126 -62 OFFCURVE",
"138 -37 OFFCURVE",
"160 -11 CURVE",
"185 -20 OFFCURVE",
"214 -24 OFFCURVE",
"247 -24 CURVE SMOOTH"
);
}
);
width = 568;
}
);
unicode = 0067;
},
{
glyphname = h;
lastChange = "2017-11-21 14:35:46 +0000";
layers = (
{
background = {
paths = (
{
closed = 1;
nodes = (
"263 445 LINE",
"280 466 LINE",
"323 497 LINE",
"369 518 LINE",
"415 529 LINE",
"436 529 LINE",
"508 529 LINE",
"587 441 LINE",
"587 345 LINE",
"588 62 LINE",
"668 45 LINE",
"658 0 LINE",
"421 0 LINE",
"421 30 LINE",
"498 60 LINE",
"498 325 LINE",
"498 362 LINE",
"486 410 LINE",
"462 437 LINE",
"426 447 LINE",
"402 447 LINE",
"382 447 LINE",
"341 440 LINE",
"304 426 LINE",
"273 408 LINE",
"263 396 LINE",
"263 62 LINE",
"338 48 LINE",
"328 0 LINE",
"85 0 LINE",
"85 30 LINE",
"173 60 LINE",
"173 669 LINE",
"90 685 LINE",
"85 726 LINE",
"263 750 LINE"
);
}
);
};
hints = (
{
place = "{117, 140}";
},
{
place = "{492, 140}";
},
{
horizontal = 1;
place = "{437, 102}";
},
{
horizontal = 1;
place = "{0, 21}";
target = up;
type = BottomGhost;
},
{
horizontal = 1;
place = "{760, -20}";
target = down;
type = TopGhost;
}
);
layerId = "03739D6D-2A00-4CFA-A48A-FF6A1F8AF183";
paths = (
{
closed = 1;
nodes = (
"117 662 LINE",
"117 65 LINE",
"29 35 LINE",
"29 0 LINE",
"322 0 LINE",
"332 53 LINE",
"257 67 LINE",
"257 384 LINE",
"283 415 OFFCURVE",
"343 437 OFFCURVE",
"396 437 CURVE SMOOTH",
"470 437 OFFCURVE",
"492 400 OFFCURVE",
"492 315 CURVE SMOOTH",
"492 65 LINE",
"414 35 LINE",
"414 0 LINE",
"697 0 LINE",
"707 53 LINE",
"632 67 LINE",
"632 355 LINE",
"629 493 OFFCURVE",
"526 539 OFFCURVE",
"430 539 CURVE SMOOTH",
"375 539 OFFCURVE",
"302 514 OFFCURVE",
"257 459 CURVE",
"257 760 LINE",
"31 728 LINE",
"36 677 LINE"
);
}
);
width = 736;
},
{
background = {
paths = (
{
closed = 1;
nodes = (
"191 445 LINE",
"208 466 LINE",
"251 497 LINE",
"297 518 LINE",
"343 529 LINE",
"364 529 LINE",
"436 529 LINE",
"515 441 LINE",
"515 345 LINE",
"516 62 LINE",
"596 45 LINE",
"586 0 LINE",
"349 0 LINE",
"349 30 LINE",
"426 60 LINE",
"426 325 LINE",
"426 362 LINE",
"414 410 LINE",
"390 437 LINE",
"354 447 LINE",
"330 447 LINE",
"310 447 LINE",
"269 440 LINE",
"232 426 LINE",
"201 408 LINE",
"191 396 LINE",
"191 62 LINE",
"266 48 LINE",
"256 0 LINE",
"13 0 LINE",
"13 30 LINE",
"101 60 LINE",
"101 669 LINE",
"18 685 LINE",
"13 726 LINE",
"191 750 LINE"
);
}
);
};
hints = (
{
place = "{101, 90}";
},
{
place = "{426, 89}";
},
{
horizontal = 1;
place = "{0, 30}";
},
{
horizontal = 1;
place = "{447, 82}";
}
);
layerId = UUID0;
paths = (
{
closed = 1;
nodes = (
"191 750 LINE",
"13 726 LINE",
"18 685 LINE",
"101 669 LINE",
"101 60 LINE",
"13 30 LINE",
"13 0 LINE",
"256 0 LINE",
"266 48 LINE",
"191 62 LINE",
"191 396 LINE",
"217 427 OFFCURVE",
"277 447 OFFCURVE",
"330 447 CURVE SMOOTH",
"394 447 OFFCURVE",
"426 425 OFFCURVE",
"426 325 CURVE SMOOTH",
"426 60 LINE",
"349 30 LINE",
"349 0 LINE",
"586 0 LINE",
"596 45 LINE",
"516 62 LINE",
"515 345 LINE SMOOTH",
"515 473 OFFCURVE",
"460 529 OFFCURVE",
"364 529 CURVE SMOOTH",
"309 529 OFFCURVE",
"236 500 OFFCURVE",
"191 445 CURVE"
);
}
);
width = 610;
}
);
unicode = 0068;
},
{
glyphname = i;
lastChange = "2017-11-21 14:35:46 +0000";
layers = (
{
background = {
paths = (
{
closed = 1;
nodes = (
"257 62 LINE",
"332 48 LINE",
"322 0 LINE",
"79 0 LINE",
"79 30 LINE",
"167 60 LINE",
"167 447 LINE",
"86 462 LINE",
"81 503 LINE",
"257 527 LINE"
);
},
{
closed = 1;
nodes = (
"134 673 LINE",
"159 717 LINE",
"204 742 LINE",
"248 719 LINE",
"271 675 LINE",
"245 631 LINE",
"201 606 LINE",
"180 617 LINE",
"145 652 LINE"
);
}
);
};
hints = (
{
place = "{122, 140}";
},
{
horizontal = 1;
place = "{0, 21}";
target = up;
type = BottomGhost;
},
{
horizontal = 1;
place = "{757, -20}";
target = down;
type = TopGhost;
}
);
layerId = "03739D6D-2A00-4CFA-A48A-FF6A1F8AF183";
paths = (
{
closed = 1;
nodes = (
"122 444 LINE",
"122 65 LINE",
"34 35 LINE",
"34 0 LINE",
"327 0 LINE",
"337 53 LINE",
"262 67 LINE",
"262 542 LINE",
"36 510 LINE",
"41 459 LINE"
);
},
{
closed = 1;
nodes = (
"89 645 OFFCURVE",
"138 606 OFFCURVE",
"166 591 CURVE",
"195 608 OFFCURVE",
"244 646 OFFCURVE",
"261 675 CURVE",
"246 704 OFFCURVE",
"198 742 OFFCURVE",
"169 757 CURVE",
"139 740 OFFCURVE",
"91 702 OFFCURVE",
"74 673 CURVE"
);
}
);
width = 363;
},
{
background = {
paths = (
{
closed = 1;
nodes = (
"206 62 LINE",
"281 48 LINE",
"271 0 LINE",
"28 0 LINE",
"28 30 LINE",
"116 60 LINE",
"116 447 LINE",
"35 462 LINE",
"30 503 LINE",
"206 527 LINE"
);
},
{
closed = 1;
nodes = (
"83 673 LINE",
"108 717 LINE",
"153 742 LINE",
"197 719 LINE",
"220 675 LINE",
"194 631 LINE",
"150 606 LINE",
"129 617 LINE",
"94 652 LINE"
);
}
);
};
hints = (
{
place = "{116, 90}";
},
{
horizontal = 1;
place = "{0, 30}";
},
{
horizontal = 1;
place = "{527, -20}";
target = down;
type = TopGhost;
}
);
layerId = UUID0;
paths = (
{
closed = 1;
nodes = (
"206 527 LINE",
"30 503 LINE",
"35 462 LINE",
"116 447 LINE",
"116 60 LINE",
"28 30 LINE",
"28 0 LINE",
"271 0 LINE",
"281 48 LINE",
"206 62 LINE"
);
},
{
closed = 1;
nodes = (
"98 645 OFFCURVE",
"122 621 OFFCURVE",
"150 606 CURVE",
"179 623 OFFCURVE",
"203 646 OFFCURVE",
"220 675 CURVE",
"205 704 OFFCURVE",
"182 727 OFFCURVE",
"153 742 CURVE",
"123 725 OFFCURVE",
"100 702 OFFCURVE",
"83 673 CURVE"
);
}
);
width = 305;
}
);
unicode = 0069;
},
{
glyphname = j;
lastChange = "2017-11-21 14:35:46 +0000";
layers = (
{
background = {
paths = (
{
closed = 1;
nodes = (
"123 447 LINE",
"42 462 LINE",
"37 503 LINE",
"213 527 LINE",
"213 -43 LINE",
"213 -89 LINE",
"184 -160 LINE",
"136 -209 LINE",
"73 -234 LINE",
"39 -234 LINE",
"11 -234 LINE",
"-47 -217 LINE",
"-74 -199 LINE",
"-74 -66 LINE",
"-24 -56 LINE",
"4 -165 LINE",
"34 -177 LINE",
"55 -177 LINE",
"79 -177 LINE",
"106 -152 LINE",
"119 -113 LINE",
"123 -64 LINE",
"123 -41 LINE"
);
},
{
closed = 1;
nodes = (
"91 673 LINE",
"116 717 LINE",
"161 742 LINE",
"205 719 LINE",
"228 675 LINE",
"202 631 LINE",
"158 606 LINE",
"137 617 LINE",
"102 652 LINE"
);
}
);
};
hints = (
{
place = "{123, 140}";
},
{
horizontal = 1;
place = "{-234, 72}";
},
{
horizontal = 1;
place = "{757, -20}";
target = down;
type = TopGhost;
}
);
layerId = "03739D6D-2A00-4CFA-A48A-FF6A1F8AF183";
paths = (
{
closed = 1;
nodes = (
"263 543 LINE",
"37 511 LINE",
"42 460 LINE",
"123 445 LINE",
"123 -26 LINE SMOOTH",
"123 -80 OFFCURVE",
"122 -162 OFFCURVE",
"54 -162 CURVE SMOOTH",
"43 -162 OFFCURVE",
"34 -159 OFFCURVE",
"19 -150 CURVE",
"-9 -38 LINE",
"-74 -51 LINE",
"-74 -199 LINE",
"-38 -223 OFFCURVE",
"2 -234 OFFCURVE",
"39 -234 CURVE SMOOTH",
"150 -234 OFFCURVE",
"263 -181 OFFCURVE",
"263 -28 CURVE SMOOTH"
);
},
{
closed = 1;
nodes = (
"91 645 OFFCURVE",
"140 606 OFFCURVE",
"168 591 CURVE",
"197 608 OFFCURVE",
"246 646 OFFCURVE",
"263 675 CURVE",
"248 704 OFFCURVE",
"200 742 OFFCURVE",
"171 757 CURVE",
"141 740 OFFCURVE",
"93 702 OFFCURVE",
"76 673 CURVE"
);
}
);
width = 324;
},
{
background = {
paths = (
{
closed = 1;
nodes = (
"101 447 LINE",
"20 462 LINE",
"15 503 LINE",
"191 527 LINE",
"191 -43 LINE",
"191 -89 LINE",
"162 -160 LINE",
"114 -209 LINE",
"51 -234 LINE",
"17 -234 LINE",
"-11 -234 LINE",
"-69 -217 LINE",
"-96 -199 LINE",
"-96 -66 LINE",
"-46 -56 LINE",
"-18 -165 LINE",
"12 -177 LINE",
"33 -177 LINE",
"57 -177 LINE",
"84 -152 LINE",
"97 -113 LINE",
"101 -64 LINE",
"101 -41 LINE"
);
},
{
closed = 1;
nodes = (
"69 673 LINE",
"94 717 LINE",
"139 742 LINE",
"183 719 LINE",
"206 675 LINE",
"180 631 LINE",
"136 606 LINE",
"115 617 LINE",
"80 652 LINE"
);
}
);
};
hints = (
{
place = "{101, 90}";
},
{
horizontal = 1;
place = "{-234, 57}";
},
{
horizontal = 1;
place = "{527, -20}";
target = down;
type = TopGhost;
}
);
layerId = UUID0;
paths = (
{
closed = 1;
nodes = (
"101 -41 LINE SMOOTH",
"101 -103 OFFCURVE",
"96 -177 OFFCURVE",
"33 -177 CURVE SMOOTH",
"19 -177 OFFCURVE",
"2 -173 OFFCURVE",
"-18 -165 CURVE",
"-46 -56 LINE",
"-96 -66 LINE",
"-96 -199 LINE",
"-60 -223 OFFCURVE",
"-20 -234 OFFCURVE",
"17 -234 CURVE SMOOTH",
"108 -234 OFFCURVE",
"191 -166 OFFCURVE",
"191 -43 CURVE SMOOTH",
"191 527 LINE",
"15 503 LINE",
"20 462 LINE",
"101 447 LINE"
);
},
{
closed = 1;
nodes = (
"84 645 OFFCURVE",
"108 621 OFFCURVE",
"136 606 CURVE",
"165 623 OFFCURVE",
"189 646 OFFCURVE",
"206 675 CURVE",
"191 704 OFFCURVE",
"168 727 OFFCURVE",
"139 742 CURVE",
"109 725 OFFCURVE",
"86 702 OFFCURVE",
"69 673 CURVE"
);
}
);
width = 273;
}
);
unicode = 006A;
},
